SplineFontDB: 3.0
FontName: GenJyuuGothic-Regular
FullName: Gen Jyuu Gothic Regular
FamilyName: Gen Jyuu Gothic Regular
Weight: Book
Copyright: [Source Han Sans]\nCopyright (c) 2014, 2015 Adobe Systems Incorporated (http://www.adobe.com/), with Reserved Font Name 'Source'.\n\n[M+ OUTLINE FONTS]\nCopyright(c) 2015 M+ FONTS PROJECT
Version: 1.002.20150607
ItalicAngle: 0
UnderlinePosition: -153
UnderlineWidth: 51
Ascent: 881
Descent: 143
InvalidEm: 0
sfntRevision: 0x00010083
LayerCount: 2
Layer: 0 1 "Back" 1
Layer: 1 1 "Fore" 0
XUID: [1021 731 -2029967938 14658]
StyleMap: 0x0040
FSType: 8
OS2Version: 4
OS2_WeightWidthSlopeOnly: 0
OS2_UseTypoMetrics: 0
CreationTime: 1433621743
ModificationTime: 1527051452
PfmFamily: 17
TTFWeight: 400
TTFWidth: 5
LineGap: 92
VLineGap: 0
Panose: 2 11 3 2 2 2 3 2 2 7
OS2TypoAscent: 881
OS2TypoAOffset: 0
OS2TypoDescent: -143
OS2TypoDOffset: 0
OS2TypoLinegap: 92
OS2WinAscent: 1101
OS2WinAOffset: 0
OS2WinDescent: 328
OS2WinDOffset: 0
HheadAscent: 1101
HheadAOffset: 0
HheadDescent: -328
HheadDOffset: 0
OS2SubXSize: 666
OS2SubYSize: 716
OS2SubXOff: 0
OS2SubYOff: 143
OS2SupXSize: 666
OS2SupYSize: 716
OS2SupXOff: 0
OS2SupYOff: 490
OS2StrikeYSize: 50
OS2StrikeYPos: 264
OS2FamilyClass: 2054
OS2Vendor: 'MM  '
OS2CodePages: 601201bf.dff70000
OS2UnicodeRanges: e1000aff.10000000.02000012.00000000
DEI: 91125
TtTable: prep
PUSHW_1
 511
SCANCTRL
PUSHB_1
 1
SCANTYPE
SVTCA[y-axis]
MPPEM
PUSHB_1
 8
LT
IF
PUSHB_2
 1
 1
INSTCTRL
EIF
PUSHB_2
 70
 6
CALL
IF
POP
PUSHB_1
 16
EIF
MPPEM
PUSHB_1
 20
GT
IF
POP
PUSHB_1
 128
EIF
SCVTCI
PUSHB_1
 6
CALL
NOT
IF
EIF
PUSHB_1
 20
CALL
EndTTInstrs
TtTable: fpgm
PUSHB_1
 0
FDEF
PUSHB_1
 0
SZP0
MPPEM
PUSHB_1
 42
LT
IF
PUSHB_1
 74
SROUND
EIF
PUSHB_1
 0
SWAP
MIAP[rnd]
RTG
PUSHB_1
 6
CALL
IF
RTDG
EIF
MPPEM
PUSHB_1
 42
LT
IF
RDTG
EIF
DUP
MDRP[rp0,rnd,grey]
PUSHB_1
 1
SZP0
MDAP[no-rnd]
RTG
ENDF
PUSHB_1
 1
FDEF
DUP
MDRP[rp0,min,white]
PUSHB_1
 12
CALL
ENDF
PUSHB_1
 2
FDEF
MPPEM
GT
IF
RCVT
SWAP
EIF
POP
ENDF
PUSHB_1
 3
FDEF

StartChar: .notdef
Encoding: 65536 -1 0
Width: 372
Flags: W
LayerCount: 2
Fore
SplineSet
161 -123 m 2,0,1
 137 -123 137 -123 119.5 -105.5 c 128,-1,2
 102 -88 102 -88 102 -64 c 2,3,-1
 102 842 l 2,4,5
 102 867 102 867 119.5 884 c 128,-1,6
 137 901 137 901 161 901 c 2,7,-1
 863 901 l 2,8,9
 887 901 887 901 904.5 884 c 128,-1,10
 922 867 922 867 922 842 c 2,11,-1
 922 -64 l 2,12,13
 922 -88 922 -88 904.5 -105.5 c 128,-1,14
 887 -123 887 -123 863 -123 c 2,15,-1
 161 -123 l 2,0,1
507 437 m 2,16,17
 512 431 512 431 517 437 c 2,18,-1
 833 844 l 2,19,20
 834 846 834 846 833 848 c 128,-1,21
 832 850 832 850 830 850 c 2,22,-1
 194 850 l 2,23,24
 192 850 192 850 191 848 c 128,-1,25
 190 846 190 846 191 844 c 2,26,-1
 507 437 l 2,16,17
549 395 m 2,27,28
 545 389 545 389 549 383 c 2,29,-1
 866 -24 l 2,30,31
 867 -25 867 -25 868.5 -24.5 c 128,-1,32
 870 -24 870 -24 870 -22 c 2,33,-1
 870 800 l 2,34,35
 870 802 870 802 869 803 c 0,36,37
 868 803 868 803 868 803 c 2,38,39
 867 803 867 803 866 802 c 2,40,-1
 549 395 l 2,27,28
191 -66 m 2,41,42
 190 -68 190 -68 191 -70 c 128,-1,43
 192 -72 192 -72 194 -72 c 2,44,-1
 830 -72 l 2,45,46
 834 -72 834 -72 834 -68 c 0,47,48
 834 -67 834 -67 833 -66 c 2,49,-1
 517 341 l 2,50,51
 512 347 512 347 507 341 c 2,52,-1
 191 -66 l 2,41,42
158 802 m 2,53,54
 157 803 157 803 156 803 c 2,55,56
 156 803 156 803 155 803 c 0,57,58
 154 802 154 802 154 800 c 2,59,-1
 154 -22 l 2,60,61
 154 -24 154 -24 155 -25 c 0,62,63
 156 -25 156 -25 156 -25 c 2,64,65
 157 -25 157 -25 158 -24 c 2,66,-1
 475 383 l 2,67,68
 477 386 477 386 477 389 c 128,-1,69
 477 392 477 392 475 395 c 2,70,-1
 158 802 l 2,53,54
EndSplineSet
EndChar

StartChar: period
Encoding: 46 46 2
Width: 284
Flags: W
LayerCount: 2
Fore
SplineSet
142.5 -13 m 128,-1,1
 114 -13 114 -13 94.5 6.5 c 128,-1,2
 75 26 75 26 75 57 c 128,-1,3
 75 88 75 88 94.5 109 c 128,-1,4
 114 130 114 130 142 130 c 128,-1,5
 170 130 170 130 190 109 c 128,-1,6
 210 88 210 88 210 57 c 128,-1,7
 210 26 210 26 190.5 6.5 c 128,-1,0
 171 -13 171 -13 142.5 -13 c 128,-1,1
EndSplineSet
EndChar

StartChar: two
Encoding: 50 50 3
Width: 568
Flags: W
LayerCount: 2
Fore
SplineSet
73 0 m 2,0,1
 61 0 61 0 53 8 c 128,-1,2
 45 16 45 16 45 28 c 0,3,4
 45 55 45 55 66 74 c 0,5,6
 233 222 233 222 311 334 c 128,-1,7
 389 446 389 446 389 540 c 0,8,9
 389 607 389 607 353.5 647.5 c 128,-1,10
 318 688 318 688 250.5 688 c 128,-1,11
 183 688 183 688 121 629 c 0,12,13
 110 618 110 618 94.5 617.5 c 128,-1,14
 79 617 79 617 68 628 c 256,15,16
 57 639 57 639 56.5 654.5 c 128,-1,17
 56 670 56 670 68 681 c 0,18,19
 156 765 156 765 262 765 c 0,20,21
 362 765 362 765 421 704.5 c 128,-1,22
 480 644 480 644 480 543 c 0,23,24
 480 438 480 438 406 325.5 c 128,-1,25
 332 213 332 213 192 79 c 0,26,27
 190 78 190 78 191 76 c 128,-1,28
 192 74 192 74 194 74 c 0,29,30
 276 81 276 81 309 81 c 2,31,-1
 477 81 l 2,32,33
 493 81 493 81 505 69 c 128,-1,34
 517 57 517 57 517 40.5 c 128,-1,35
 517 24 517 24 505 12 c 128,-1,36
 493 0 493 0 477 0 c 2,37,-1
 73 0 l 2,0,1
EndSplineSet
EndChar

StartChar: five
Encoding: 53 53 4
Width: 568
Flags: W
LayerCount: 2
Fore
SplineSet
267 -13 m 0,0,1
 146 -13 146 -13 57 60 c 0,2,3
 43 72 43 72 43 91 c 0,4,5
 43 105 43 105 52 117 c 256,6,7
 61 129 61 129 76 130 c 128,-1,8
 91 131 91 131 103 121 c 0,9,10
 172 65 172 65 259 65 c 0,11,12
 327 65 327 65 373 113.5 c 128,-1,13
 419 162 419 162 419 242 c 256,14,15
 419 322 419 322 376.5 367.5 c 128,-1,16
 334 413 334 413 263 413 c 0,17,18
 212 413 212 413 163 384 c 0,19,20
 150 377 150 377 137 377 c 0,21,22
 125 377 125 377 113 384 c 0,23,24
 88 399 88 399 90 429 c 2,25,-1
 108 692 l 2,26,27
 109 717 109 717 127.5 734 c 128,-1,28
 146 751 146 751 171 751 c 2,29,-1
 437 751 l 2,30,31
 454 751 454 751 465.5 739 c 128,-1,32
 477 727 477 727 477 710.5 c 128,-1,33
 477 694 477 694 465.5 682.5 c 128,-1,34
 454 671 454 671 437 671 c 2,35,-1
 201 671 l 2,36,37
 194 671 194 671 193 663 c 2,38,-1
 176 461 l 2,39,40
 176 459 176 459 178 457.5 c 128,-1,41
 180 456 180 456 182 457 c 0,42,43
 231 483 231 483 287 483 c 0,44,45
 386 483 386 483 449.5 423 c 128,-1,46
 513 363 513 363 513 245 c 0,47,48
 513 165 513 165 477.5 105 c 128,-1,49
 442 45 442 45 387 16 c 128,-1,50
 332 -13 332 -13 267 -13 c 0,0,1
EndSplineSet
EndChar

StartChar: M
Encoding: 77 77 5
Width: 831
Flags: W
LayerCount: 2
Fore
SplineSet
145.5 0 m 128,-1,1
 128 0 128 0 115 12.5 c 128,-1,2
 102 25 102 25 102 43 c 2,3,-1
 102 693 l 2,4,5
 102 717 102 717 119 734 c 128,-1,6
 136 751 136 751 160 751 c 0,7,8
 185 751 185 751 206.5 736 c 128,-1,9
 228 721 228 721 236 697 c 2,10,-1
 361 349 l 2,11,12
 396 246 396 246 414 195 c 0,13,14
 415 193 415 193 417.5 193 c 128,-1,15
 420 193 420 193 421 195 c 0,16,17
 429 220 429 220 445.5 271.5 c 128,-1,18
 462 323 462 323 471 349 c 2,19,-1
 595 697 l 2,20,21
 604 721 604 721 625 736 c 128,-1,22
 646 751 646 751 672 751 c 0,23,24
 695 751 695 751 712 734 c 128,-1,25
 729 717 729 717 729 693 c 2,26,-1
 729 45 l 2,27,28
 729 26 729 26 716 13 c 128,-1,29
 703 0 703 0 684.5 0 c 128,-1,30
 666 0 666 0 653 13 c 128,-1,31
 640 26 640 26 640 45 c 2,32,-1
 640 416 l 2,33,34
 640 480 640 480 652 635 c 0,35,36
 652 637 652 637 650 637 c 128,-1,37
 648 637 648 637 648 635 c 2,38,-1
 589 466 l 1,39,-1
 457 106 l 2,40,41
 452 92 452 92 440.5 84 c 128,-1,42
 429 76 429 76 414.5 76 c 128,-1,43
 400 76 400 76 388.5 84 c 128,-1,44
 377 92 377 92 372 106 c 2,45,-1
 241 466 l 1,46,-1
 182 635 l 2,47,48
 181 637 181 637 179 637 c 128,-1,49
 177 637 177 637 177 635 c 0,50,51
 188 458 188 458 188 416 c 2,52,-1
 188 43 l 2,53,54
 188 25 188 25 175.5 12.5 c 128,-1,0
 163 0 163 0 145.5 0 c 128,-1,1
EndSplineSet
EndChar

StartChar: P
Encoding: 80 80 6
Width: 647
Flags: W
LayerCount: 2
Fore
SplineSet
150 0 m 128,-1,1
 130 0 130 0 116 14 c 128,-1,2
 102 28 102 28 102 48 c 2,3,-1
 102 692 l 2,4,5
 102 716 102 716 119.5 733.5 c 128,-1,6
 137 751 137 751 161 751 c 2,7,-1
 316 751 l 2,8,9
 451 751 451 751 524.5 699.5 c 128,-1,10
 598 648 598 648 598 530 c 0,11,12
 598 415 598 415 523.5 356.5 c 128,-1,13
 449 298 449 298 322 298 c 2,14,-1
 205 298 l 2,15,16
 198 298 198 298 198 290 c 2,17,-1
 198 48 l 2,18,19
 198 28 198 28 184 14 c 128,-1,0
 170 0 170 0 150 0 c 128,-1,1
198 382 m 2,20,21
 198 375 198 375 205 375 c 2,22,-1
 309 375 l 2,23,24
 409 375 409 375 456.5 412.5 c 128,-1,25
 504 450 504 450 504 530 c 0,26,27
 504 609 504 609 456 641.5 c 128,-1,28
 408 674 408 674 305 674 c 2,29,-1
 205 674 l 2,30,31
 198 674 198 674 198 666 c 2,32,-1
 198 382 l 2,20,21
EndSplineSet
EndChar

StartChar: h
Encoding: 104 104 7
Width: 621
Flags: W
LayerCount: 2
Fore
SplineSet
141 0 m 128,-1,1
 122 0 122 0 108 13.5 c 128,-1,2
 94 27 94 27 94 47 c 2,3,-1
 94 769 l 2,4,5
 94 788 94 788 108 801.5 c 128,-1,6
 122 815 122 815 141 815 c 128,-1,7
 160 815 160 815 173.5 801.5 c 128,-1,8
 187 788 187 788 187 769 c 2,9,-1
 187 592 l 1,10,-1
 185 485 l 2,11,12
 184 483 184 483 186 482 c 128,-1,13
 188 481 188 481 190 482 c 0,14,15
 279 570 279 570 369 570 c 0,16,17
 539 570 539 570 539 352 c 2,18,-1
 539 47 l 2,19,20
 539 27 539 27 525 13.5 c 128,-1,21
 511 0 511 0 492 0 c 128,-1,22
 473 0 473 0 459 13.5 c 128,-1,23
 445 27 445 27 445 47 c 2,24,-1
 445 340 l 2,25,26
 445 418 445 418 420 453 c 128,-1,27
 395 488 395 488 340 488 c 0,28,29
 300 488 300 488 268 469.5 c 128,-1,30
 236 451 236 451 193 409 c 0,31,32
 187 403 187 403 187 396 c 2,33,-1
 187 47 l 2,34,35
 187 27 187 27 173.5 13.5 c 128,-1,0
 160 0 160 0 141 0 c 128,-1,1
EndSplineSet
EndChar

StartChar: p
Encoding: 112 112 8
Width: 634
Flags: W
LayerCount: 2
Fore
SplineSet
141 -237 m 128,-1,1
 122 -237 122 -237 108 -223.5 c 128,-1,2
 94 -210 94 -210 94 -191 c 2,3,-1
 94 515 l 2,4,5
 94 531 94 531 105.5 542 c 128,-1,6
 117 553 117 553 133 553 c 256,7,8
 149 553 149 553 161.5 542.5 c 128,-1,9
 174 532 174 532 176 515 c 2,10,-1
 179 491 l 2,11,12
 179 490 179 490 180.5 490 c 128,-1,13
 182 490 182 490 183 491 c 0,14,15
 278 568 278 568 359 568 c 0,16,17
 465 568 465 568 523 491.5 c 128,-1,18
 581 415 581 415 581 284 c 0,19,20
 581 215 581 215 561 157.5 c 128,-1,21
 541 100 541 100 507.5 62.5 c 128,-1,22
 474 25 474 25 430.5 4.5 c 128,-1,23
 387 -16 387 -16 339 -16 c 0,24,25
 267 -16 267 -16 191 44 c 0,26,27
 189 45 189 45 187 44 c 128,-1,28
 185 43 185 43 186 41 c 2,29,-1
 187 -49 l 1,30,-1
 187 -191 l 2,31,32
 187 -210 187 -210 173.5 -223.5 c 128,-1,0
 160 -237 160 -237 141 -237 c 128,-1,1
324 62 m 0,33,34
 394 62 394 62 438.5 121.5 c 128,-1,35
 483 181 483 181 483 283 c 0,36,37
 483 489 483 489 337 489 c 0,38,39
 272 489 272 489 193 417 c 0,40,41
 187 412 187 412 187 405 c 2,42,-1
 187 128 l 2,43,44
 187 120 187 120 193 115 c 0,45,46
 259 62 259 62 324 62 c 0,33,34
EndSplineSet
EndChar

StartChar: cid09912
Encoding: 20025 20025 9
Width: 1024
Flags: W
LayerCount: 2
Fore
SplineSet
410 616 m 0,0,1
 400 624 400 624 399.5 637 c 128,-1,2
 399 650 399 650 410 658 c 0,3,4
 421 668 421 668 436.5 668.5 c 128,-1,5
 452 669 452 669 464 660 c 0,6,7
 548 595 548 595 613 529 c 0,8,9
 623 518 623 518 622 503 c 128,-1,10
 621 488 621 488 609 478 c 128,-1,11
 597 468 597 468 582 469 c 128,-1,12
 567 470 567 470 556 482 c 0,13,14
 497 544 497 544 410 616 c 0,0,1
280 419 m 0,15,16
 280 412 280 412 287 412 c 2,17,-1
 745 412 l 2,18,19
 753 412 753 412 753 419 c 2,20,-1
 753 726 l 2,21,22
 753 733 753 733 745 733 c 2,23,-1
 288 733 l 2,24,25
 281 733 281 733 281 726 c 2,26,-1
 281 459 l 2,27,28
 281 433 281 433 280 419 c 0,15,16
931 412 m 2,29,30
 946 412 946 412 957 401 c 128,-1,31
 968 390 968 390 968 375 c 128,-1,32
 968 360 968 360 957 349.5 c 128,-1,33
 946 339 946 339 931 339 c 2,34,-1
 837 339 l 2,35,36
 829 339 829 339 829 331 c 2,37,-1
 829 23 l 2,38,39
 829 -16 829 -16 817.5 -36.5 c 128,-1,40
 806 -57 806 -57 779 -67 c 0,41,42
 739 -79 739 -79 613 -79 c 0,43,44
 596 -79 596 -79 582 -68.5 c 128,-1,45
 568 -58 568 -58 562 -41 c 0,46,47
 557 -28 557 -28 564 -17 c 128,-1,48
 571 -6 571 -6 585 -6 c 0,49,50
 627 -7 627 -7 661 -7 c 0,51,52
 698 -7 698 -7 724 -6 c 0,53,54
 740 -5 740 -5 746.5 1 c 128,-1,55
 753 7 753 7 753 23 c 2,56,-1
 753 331 l 2,57,58
 753 339 753 339 745 339 c 2,59,-1
 283 339 l 2,60,61
 275 339 275 339 275 331 c 0,62,63
 252 83 252 83 123 -54 c 0,64,65
 112 -65 112 -65 96.5 -64 c 128,-1,66
 81 -63 81 -63 69 -51.5 c 128,-1,67
 57 -40 57 -40 57 -24 c 0,68,69
 57 -10 57 -10 67 1 c 0,70,71
 180 122 180 122 200 331 c 0,72,73
 201 339 201 339 193 339 c 2,74,-1
 95 339 l 2,75,76
 80 339 80 339 69 349.5 c 128,-1,77
 58 360 58 360 58 375 c 128,-1,78
 58 390 58 390 69 401 c 128,-1,79
 80 412 80 412 95 412 c 2,80,-1
 196 412 l 2,81,82
 204 412 204 412 204 419 c 0,83,84
 205 433 205 433 205 460 c 2,85,-1
 205 744 l 2,86,87
 205 768 205 768 222 785.5 c 128,-1,88
 239 803 239 803 264 803 c 2,89,-1
 770 803 l 2,90,91
 795 803 795 803 812 785.5 c 128,-1,92
 829 768 829 768 829 744 c 2,93,-1
 829 419 l 2,94,95
 829 412 829 412 837 412 c 2,96,-1
 931 412 l 2,29,30
EndSplineSet
EndChar

StartChar: cid10140
Encoding: 20171 20171 10
Width: 1024
Flags: W
LayerCount: 2
Fore
SplineSet
512 774 m 0,0,1
 511 776 511 776 508 776 c 128,-1,2
 505 776 505 776 504 774 c 0,3,4
 447 678 447 678 344 580 c 128,-1,5
 241 482 241 482 122 411 c 0,6,7
 108 404 108 404 92.5 408 c 128,-1,8
 77 412 77 412 67 425 c 0,9,10
 60 434 60 434 60 445 c 0,11,12
 60 448 60 448 60 451 c 0,13,14
 63 465 63 465 75 472 c 0,15,16
 187 537 187 537 286 631.5 c 128,-1,17
 385 726 385 726 444 823 c 0,18,19
 465 857 465 857 503 857 c 0,20,21
 542 857 542 857 564 824 c 0,22,23
 636 720 636 720 739 630.5 c 128,-1,24
 842 541 842 541 949 485 c 0,25,26
 963 478 963 478 966 463 c 0,27,28
 967 459 967 459 967 455 c 0,29,30
 967 444 967 444 960 435 c 0,31,32
 949 420 949 420 932 416 c 0,33,34
 926 414 926 414 921 414 c 0,35,36
 910 414 910 414 900 420 c 0,37,38
 786 486 786 486 680.5 581.5 c 128,-1,39
 575 677 575 677 512 774 c 0,0,1
651 459 m 2,40,41
 651 476 651 476 662.5 487.5 c 128,-1,42
 674 499 674 499 690.5 499 c 128,-1,43
 707 499 707 499 718.5 487.5 c 128,-1,44
 730 476 730 476 730 459 c 2,45,-1
 730 -37 l 2,46,47
 730 -54 730 -54 718.5 -65.5 c 128,-1,48
 707 -77 707 -77 690.5 -77 c 128,-1,49
 674 -77 674 -77 662.5 -65.5 c 128,-1,50
 651 -54 651 -54 651 -37 c 2,51,-1
 651 459 l 2,40,41
289 456 m 2,52,53
 289 472 289 472 300.5 483.5 c 128,-1,54
 312 495 312 495 328 495 c 128,-1,55
 344 495 344 495 355.5 483.5 c 128,-1,56
 367 472 367 472 367 456 c 2,57,-1
 367 352 l 2,58,59
 367 306 367 306 363.5 268.5 c 128,-1,60
 360 231 360 231 348.5 184 c 128,-1,61
 337 137 337 137 317 98 c 128,-1,62
 297 59 297 59 260.5 18 c 128,-1,63
 224 -23 224 -23 175 -57 c 0,64,65
 163 -65 163 -65 150 -65 c 0,66,67
 146 -65 146 -65 143 -64 c 0,68,69
 126 -62 126 -62 112 -49 c 0,70,71
 102 -41 102 -41 102 -27 c 0,72,73
 102 -12 102 -12 115 -3 c 0,74,75
 161 27 161 27 194 63.5 c 128,-1,76
 227 100 227 100 245 133.5 c 128,-1,77
 263 167 263 167 273 208 c 128,-1,78
 283 249 283 249 286 280.5 c 128,-1,79
 289 312 289 312 289 353 c 2,80,-1
 289 456 l 2,52,53
EndSplineSet
EndChar

StartChar: cid10243
Encoding: 20239 20239 11
Width: 1024
Flags: W
LayerCount: 2
Fore
SplineSet
909 680 m 0,0,1
 917 667 917 667 913.5 652.5 c 128,-1,2
 910 638 910 638 897 630 c 0,3,4
 885 622 885 622 870.5 626 c 128,-1,5
 856 630 856 630 849 642 c 0,6,7
 815 701 815 701 765 765 c 0,8,9
 757 776 757 776 759.5 789 c 128,-1,10
 762 802 762 802 773 808 c 0,11,12
 785 816 785 816 799.5 813.5 c 128,-1,13
 814 811 814 811 823 800 c 0,14,15
 873 736 873 736 909 680 c 0,0,1
271 820 m 0,16,17
 277 834 277 834 291.5 841 c 128,-1,18
 306 848 306 848 321 844 c 0,19,20
 336 839 336 839 342.5 825 c 128,-1,21
 349 811 349 811 343 797 c 0,22,23
 307 707 307 707 260 625 c 0,24,25
 256 618 256 618 256 611 c 2,26,-1
 256 -40 l 2,27,28
 256 -56 256 -56 245 -67 c 128,-1,29
 234 -78 234 -78 218.5 -78 c 128,-1,30
 203 -78 203 -78 192 -67 c 128,-1,31
 181 -56 181 -56 181 -40 c 2,32,-1
 181 491 l 2,33,34
 181 493 181 493 179.5 493.5 c 128,-1,35
 178 494 178 494 177 493 c 0,36,37
 142 443 142 443 106 402 c 0,38,39
 95 390 95 390 79.5 392.5 c 128,-1,40
 64 395 64 395 56 409 c 128,-1,41
 48 423 48 423 48 439 c 0,42,43
 48 442 48 442 49 445 c 0,44,45
 51 464 51 464 63 478 c 0,46,47
 191 619 191 619 271 820 c 0,16,17
968 518.5 m 128,-1,49
 968 503 968 503 957 492 c 128,-1,50
 946 481 946 481 930 481 c 2,51,-1
 686 481 l 2,52,53
 679 481 679 481 681 474 c 0,54,55
 754 141 754 141 946 10 c 0,56,57
 959 1 959 1 961 -15 c 128,-1,58
 963 -31 963 -31 952 -43 c 0,59,60
 940 -57 940 -57 923 -60 c 0,61,62
 919 -61 919 -61 914 -61 c 0,63,64
 902 -61 902 -61 891 -53 c 0,65,66
 726 69 726 69 644 343 c 0,67,68
 644 345 644 345 642.5 344.5 c 128,-1,69
 641 344 641 344 640 343 c 0,70,71
 586 105 586 105 399 -53 c 0,72,73
 386 -63 386 -63 371 -63 c 0,74,75
 370 -63 370 -63 369 -63 c 0,76,77
 352 -62 352 -62 338 -51 c 0,78,79
 326 -42 326 -42 325.5 -27.5 c 128,-1,80
 325 -13 325 -13 336 -4 c 0,81,82
 552 175 552 175 585 474 c 0,83,84
 586 481 586 481 578 481 c 2,85,-1
 360 481 l 2,86,87
 344 481 344 481 333.5 492 c 128,-1,88
 323 503 323 503 323 518.5 c 128,-1,89
 323 534 323 534 333.5 545 c 128,-1,90
 344 556 344 556 360 556 c 2,91,-1
 583 556 l 2,92,93
 591 556 591 556 591 564 c 0,94,95
 592 582 592 582 592 618 c 2,96,-1
 592 817 l 2,97,98
 592 833 592 833 603 844 c 128,-1,99
 614 855 614 855 629.5 855 c 128,-1,100
 645 855 645 855 656.5 844 c 128,-1,101
 668 833 668 833 668 817 c 2,102,-1
 668 618 l 2,103,104
 668 582 668 582 667 564 c 0,105,106
 667 556 667 556 674 556 c 2,107,-1
 930 556 l 2,108,109
 946 556 946 556 957 545 c 128,-1,48
 968 534 968 534 968 518.5 c 128,-1,49
EndSplineSet
EndChar

StartChar: cid10354
Encoding: 20316 20316 12
Width: 1024
Flags: W
LayerCount: 2
Fore
SplineSet
280 817 m 0,0,1
 286 832 286 832 301 839 c 0,2,3
 309 843 309 843 318 843 c 0,4,5
 324 843 324 843 330 841 c 0,6,7
 345 836 345 836 352 822 c 128,-1,8
 359 808 359 808 353 794 c 0,9,10
 318 710 318 710 266 617 c 0,11,12
 262 610 262 610 262 603 c 2,13,-1
 262 -39 l 2,14,15
 262 -55 262 -55 251 -66 c 128,-1,16
 240 -77 240 -77 224.5 -77 c 128,-1,17
 209 -77 209 -77 197.5 -66 c 128,-1,18
 186 -55 186 -55 186 -39 c 2,19,-1
 186 485 l 2,20,21
 186 487 186 487 184.5 487.5 c 128,-1,22
 183 488 183 488 182 486 c 0,23,24
 151 444 151 444 115 403 c 0,25,26
 104 391 104 391 88.5 393.5 c 128,-1,27
 73 396 73 396 65 410 c 128,-1,28
 57 424 57 424 57 440 c 0,29,30
 57 442 57 442 57 445 c 0,31,32
 59 464 59 464 72 478 c 0,33,34
 199 617 199 617 280 817 c 0,0,1
981 650 m 128,-1,36
 981 635 981 635 970.5 624 c 128,-1,37
 960 613 960 613 945 613 c 2,38,-1
 673 613 l 2,39,40
 666 613 666 613 666 606 c 2,41,-1
 666 474 l 2,42,43
 666 467 666 467 673 467 c 2,44,-1
 922 467 l 2,45,46
 937 467 937 467 947 456.5 c 128,-1,47
 957 446 957 446 957 431.5 c 128,-1,48
 957 417 957 417 947 406.5 c 128,-1,49
 937 396 937 396 922 396 c 2,50,-1
 673 396 l 2,51,52
 666 396 666 396 666 389 c 2,53,-1
 666 249 l 2,54,55
 666 242 666 242 673 242 c 2,56,-1
 936 242 l 2,57,58
 951 242 951 242 961.5 231.5 c 128,-1,59
 972 221 972 221 972 206 c 128,-1,60
 972 191 972 191 961.5 180.5 c 128,-1,61
 951 170 951 170 936 170 c 2,62,-1
 673 170 l 2,63,64
 666 170 666 170 666 162 c 2,65,-1
 666 -39 l 2,66,67
 666 -55 666 -55 654.5 -66.5 c 128,-1,68
 643 -78 643 -78 627 -78 c 128,-1,69
 611 -78 611 -78 600 -66.5 c 128,-1,70
 589 -55 589 -55 589 -39 c 2,71,-1
 589 606 l 2,72,73
 589 613 589 613 581 613 c 2,74,-1
 526 613 l 2,75,76
 518 613 518 613 515 607 c 0,77,78
 460 507 460 507 398 430 c 0,79,80
 388 418 388 418 372 417.5 c 128,-1,81
 356 417 356 417 344 427 c 0,82,83
 331 439 331 439 331 456 c 0,84,85
 331 470 331 470 340 481 c 0,86,87
 454 613 454 613 526 808 c 0,88,89
 532 823 532 823 546 831 c 0,90,91
 555 835 555 835 564 835 c 0,92,93
 570 835 570 835 575 834 c 0,94,95
 590 830 590 830 597 816.5 c 128,-1,96
 604 803 604 803 598 789 c 0,97,98
 582 745 582 745 558 693 c 0,99,100
 557 691 557 691 558.5 688.5 c 128,-1,101
 560 686 560 686 563 686 c 2,102,-1
 945 686 l 2,103,104
 960 686 960 686 970.5 675.5 c 128,-1,35
 981 665 981 665 981 650 c 128,-1,36
EndSplineSet
EndChar

StartChar: cid10429
Encoding: 20363 20363 13
Width: 1024
Flags: W
LayerCount: 2
Fore
SplineSet
229 818 m 0,0,1
 234 833 234 833 248 840 c 0,2,3
 256 845 256 845 266 845 c 0,4,5
 271 845 271 845 276 843 c 0,6,7
 290 839 290 839 297 826 c 128,-1,8
 304 813 304 813 299 799 c 0,9,10
 270 716 270 716 233 637 c 0,11,12
 229 631 229 631 229 623 c 2,13,-1
 229 -42 l 2,14,15
 229 -57 229 -57 219 -67.5 c 128,-1,16
 209 -78 209 -78 194 -78 c 128,-1,17
 179 -78 179 -78 169 -67.5 c 128,-1,18
 159 -57 159 -57 159 -42 c 2,19,-1
 159 491 l 2,20,21
 159 493 159 493 157.5 493.5 c 128,-1,22
 156 494 156 494 155 492 c 0,23,24
 121 438 121 438 90 396 c 0,25,26
 80 385 80 385 65.5 386.5 c 128,-1,27
 51 388 51 388 44 402 c 0,28,29
 35 418 35 418 35 434 c 0,30,31
 35 454 35 454 50 473 c 0,32,33
 159 615 159 615 229 818 c 0,0,1
572 518 m 0,34,35
 573 525 573 525 566 525 c 2,36,-1
 442 525 l 2,37,38
 434 525 434 525 432 518 c 0,39,40
 418 473 418 473 398 422 c 0,41,42
 395 415 395 415 402 411 c 0,43,44
 472 363 472 363 519 320 c 0,45,46
 524 314 524 314 527 321 c 0,47,48
 556 409 556 409 572 518 c 0,34,35
350 736 m 2,49,50
 335 736 335 736 325 746 c 128,-1,51
 315 756 315 756 315 770.5 c 128,-1,52
 315 785 315 785 325 795 c 128,-1,53
 335 805 335 805 350 805 c 2,54,-1
 651 805 l 2,55,56
 665 805 665 805 675 795 c 128,-1,57
 685 785 685 785 685 770.5 c 128,-1,58
 685 756 685 756 675 746 c 128,-1,59
 665 736 665 736 651 736 c 2,60,-1
 489 736 l 2,61,62
 481 736 481 736 480 729 c 0,63,64
 467 658 467 658 454 599 c 0,65,66
 453 592 453 592 460 592 c 2,67,-1
 584 592 l 2,68,69
 614 592 614 592 629 587 c 0,70,71
 639 584 639 584 644.5 576 c 128,-1,72
 650 568 650 568 648 558 c 0,73,74
 591 127 591 127 372 -57 c 0,75,76
 360 -67 360 -67 345 -64.5 c 128,-1,77
 330 -62 330 -62 320 -50 c 256,78,79
 310 -38 310 -38 311 -23.5 c 128,-1,80
 312 -9 312 -9 323 1 c 0,81,82
 428 87 428 87 495 237 c 0,83,84
 498 244 498 244 492 249 c 0,85,86
 443 300 443 300 373 350 c 0,87,88
 367 354 367 354 363 348 c 0,89,90
 345 313 345 313 320 279 c 0,91,92
 312 269 312 269 298.5 269 c 128,-1,93
 285 269 285 269 276 279 c 0,94,95
 266 292 266 292 266 308 c 0,96,97
 266 321 266 321 273 332 c 0,98,99
 367 466 367 466 406 729 c 0,100,101
 408 736 408 736 400 736 c 2,102,-1
 350 736 l 2,49,50
724 741 m 128,-1,104
 738 741 738 741 748 731.5 c 128,-1,105
 758 722 758 722 758 708 c 2,106,-1
 758 188 l 2,107,108
 758 174 758 174 748 164.5 c 128,-1,109
 738 155 738 155 724 155 c 128,-1,110
 710 155 710 155 700 164.5 c 128,-1,111
 690 174 690 174 690 188 c 2,112,-1
 690 708 l 2,113,114
 690 722 690 722 700 731.5 c 128,-1,103
 710 741 710 741 724 741 c 128,-1,104
877 806 m 2,115,116
 877 820 877 820 887 830.5 c 128,-1,117
 897 841 897 841 911.5 841 c 128,-1,118
 926 841 926 841 936 830.5 c 128,-1,119
 946 820 946 820 946 806 c 2,120,-1
 946 17 l 2,121,122
 946 -18 946 -18 937 -36.5 c 128,-1,123
 928 -55 928 -55 905 -65 c 0,124,125
 875 -77 875 -77 785 -79 c 0,126,127
 784 -79 784 -79 784 -79 c 2,128,129
 767 -79 767 -79 754 -68 c 0,130,131
 741 -58 741 -58 735 -41 c 0,132,133
 734 -37 734 -37 734 -32 c 0,134,135
 734 -24 734 -24 739 -17 c 0,136,137
 747 -6 747 -6 760 -6 c 0,138,139
 765 -6 765 -6 853 -6 c 0,140,141
 866 -5 866 -5 871.5 0 c 128,-1,142
 877 5 877 5 877 17 c 2,143,-1
 877 806 l 2,115,116
EndSplineSet
EndChar

StartChar: cid10562
Encoding: 20445 20445 14
Width: 1024
Flags: W
LayerCount: 2
Fore
SplineSet
271 819 m 0,0,1
 277 834 277 834 291 841 c 0,2,3
 300 845 300 845 309 845 c 0,4,5
 315 845 315 845 321 843 c 0,6,7
 335 839 335 839 341.5 825.5 c 128,-1,8
 348 812 348 812 342 798 c 0,9,10
 302 704 302 704 256 626 c 0,11,12
 252 619 252 619 252 612 c 2,13,-1
 252 -39 l 2,14,15
 252 -54 252 -54 241.5 -65 c 128,-1,16
 231 -76 231 -76 215.5 -76 c 128,-1,17
 200 -76 200 -76 189.5 -65 c 128,-1,18
 179 -54 179 -54 179 -39 c 2,19,-1
 179 500 l 2,20,21
 179 502 179 502 177.5 502.5 c 128,-1,22
 176 503 176 503 175 502 c 0,23,24
 140 454 140 454 99 408 c 0,25,26
 88 396 88 396 72.5 398.5 c 128,-1,27
 57 401 57 401 49 414 c 0,28,29
 42 428 42 428 42 443 c 0,30,31
 42 446 42 446 42 449 c 0,32,33
 44 468 44 468 57 481 c 0,34,35
 189 623 189 623 271 819 c 0,0,1
469 740 m 2,36,37
 462 740 462 740 462 733 c 2,38,-1
 462 560 l 2,39,40
 462 553 462 553 469 553 c 2,41,-1
 834 553 l 2,42,43
 842 553 842 553 842 560 c 2,44,-1
 842 733 l 2,45,46
 842 740 842 740 834 740 c 2,47,-1
 469 740 l 2,36,37
974 323.5 m 128,-1,49
 974 309 974 309 963.5 299 c 128,-1,50
 953 289 953 289 939 289 c 2,51,-1
 739 289 l 2,52,53
 736 289 736 289 735 287 c 128,-1,54
 734 285 734 285 735 282 c 0,55,56
 780 213 780 213 841 150 c 128,-1,57
 902 87 902 87 966 45 c 0,58,59
 980 36 980 36 980 18 c 0,60,61
 980 6 980 6 972 -4 c 0,62,63
 960 -17 960 -17 943 -20 c 0,64,65
 940 -20 940 -20 936 -20 c 0,66,67
 924 -20 924 -20 913 -12 c 0,68,69
 853 33 853 33 794.5 98 c 128,-1,70
 736 163 736 163 691 235 c 0,71,72
 690 237 690 237 688.5 236.5 c 128,-1,73
 687 236 687 236 687 234 c 2,74,-1
 687 -41 l 2,75,76
 687 -57 687 -57 676 -68 c 128,-1,77
 665 -79 665 -79 649.5 -79 c 128,-1,78
 634 -79 634 -79 622.5 -68 c 128,-1,79
 611 -57 611 -57 611 -41 c 2,80,-1
 611 231 l 2,81,82
 611 233 611 233 609.5 233.5 c 128,-1,83
 608 234 608 234 607 232 c 0,84,85
 560 159 560 159 498.5 95 c 128,-1,86
 437 31 437 31 372 -12 c 0,87,88
 361 -19 361 -19 349 -19 c 0,89,90
 345 -19 345 -19 341 -19 c 0,91,92
 324 -15 324 -15 313 -2 c 0,93,94
 305 7 305 7 305 19 c 0,95,96
 305 21 305 21 305 24 c 0,97,98
 307 38 307 38 320 46 c 0,99,100
 389 87 389 87 453.5 149.5 c 128,-1,101
 518 212 518 212 563 282 c 0,102,103
 565 284 565 284 563.5 286.5 c 128,-1,104
 562 289 562 289 560 289 c 2,105,-1
 349 289 l 2,106,107
 335 289 335 289 324.5 299 c 128,-1,108
 314 309 314 309 314 323.5 c 128,-1,109
 314 338 314 338 324.5 348 c 128,-1,110
 335 358 335 358 349 358 c 2,111,-1
 604 358 l 2,112,113
 611 358 611 358 611 366 c 2,114,-1
 611 478 l 2,115,116
 611 485 611 485 604 485 c 2,117,-1
 449 485 l 2,118,119
 425 485 425 485 407.5 502.5 c 128,-1,120
 390 520 390 520 390 544 c 2,121,-1
 390 750 l 2,122,123
 390 774 390 774 407.5 791.5 c 128,-1,124
 425 809 425 809 449 809 c 2,125,-1
 859 809 l 2,126,127
 883 809 883 809 900.5 791.5 c 128,-1,128
 918 774 918 774 918 750 c 2,129,-1
 918 544 l 2,130,131
 918 520 918 520 900.5 502.5 c 128,-1,132
 883 485 883 485 859 485 c 2,133,-1
 695 485 l 2,134,135
 687 485 687 485 687 478 c 2,136,-1
 687 366 l 2,137,138
 687 358 687 358 695 358 c 2,139,-1
 939 358 l 2,140,141
 953 358 953 358 963.5 348 c 128,-1,48
 974 338 974 338 974 323.5 c 128,-1,49
EndSplineSet
EndChar

StartChar: cid10684
Encoding: 20516 20516 15
Width: 1024
Flags: W
LayerCount: 2
Fore
SplineSet
835 458 m 2,0,1
 843 458 843 458 843 465 c 2,2,-1
 843 533 l 2,3,4
 843 541 843 541 835 541 c 2,5,-1
 589 541 l 2,6,7
 582 541 582 541 582 533 c 2,8,-1
 582 465 l 2,9,10
 582 458 582 458 589 458 c 2,11,-1
 835 458 l 2,0,1
835 318 m 2,12,13
 843 318 843 318 843 326 c 2,14,-1
 843 395 l 2,15,16
 843 402 843 402 835 402 c 2,17,-1
 589 402 l 2,18,19
 582 402 582 402 582 395 c 2,20,-1
 582 326 l 2,21,22
 582 318 582 318 589 318 c 2,23,-1
 835 318 l 2,12,13
835 178 m 2,24,25
 843 178 843 178 843 186 c 2,26,-1
 843 256 l 2,27,28
 843 263 843 263 835 263 c 2,29,-1
 589 263 l 2,30,31
 582 263 582 263 582 256 c 2,32,-1
 582 186 l 2,33,34
 582 178 582 178 589 178 c 2,35,-1
 835 178 l 2,24,25
510 540 m 2,36,37
 510 564 510 564 527.5 581.5 c 128,-1,38
 545 599 545 599 569 599 c 2,39,-1
 617 599 l 2,40,41
 625 599 625 599 626 606 c 0,42,43
 629 631 629 631 634 678 c 0,44,45
 635 685 635 685 627 685 c 2,46,-1
 395 685 l 2,47,48
 381 685 381 685 371 695 c 128,-1,49
 361 705 361 705 361 718.5 c 128,-1,50
 361 732 361 732 371 742 c 128,-1,51
 381 752 381 752 395 752 c 2,52,-1
 634 752 l 2,53,54
 641 752 641 752 642 759 c 0,55,56
 645 801 645 801 646 818 c 0,57,58
 648 834 648 834 660 844 c 0,59,60
 670 854 670 854 685 854 c 0,61,62
 686 854 686 854 687 854 c 0,63,64
 703 853 703 853 713 841.5 c 128,-1,65
 723 830 723 830 722 814 c 0,66,67
 721 807 721 807 719 788 c 128,-1,68
 717 769 717 769 716 759 c 0,69,70
 716 752 716 752 723 752 c 2,71,-1
 940 752 l 2,72,73
 953 752 953 752 963 742 c 128,-1,74
 973 732 973 732 973 718.5 c 128,-1,75
 973 705 973 705 963 695 c 128,-1,76
 953 685 953 685 940 685 c 2,77,-1
 715 685 l 2,78,79
 708 685 708 685 707 678 c 0,80,81
 703 643 703 643 697 606 c 0,82,83
 696 599 696 599 704 599 c 2,84,-1
 857 599 l 2,85,86
 882 599 882 599 899 581.5 c 128,-1,87
 916 564 916 564 916 540 c 2,88,-1
 916 179 l 2,89,90
 916 154 916 154 899 137 c 128,-1,91
 882 120 882 120 857 120 c 2,92,-1
 569 120 l 2,93,94
 545 120 545 120 527.5 137 c 128,-1,95
 510 154 510 154 510 179 c 2,96,-1
 510 540 l 2,36,37
260 819 m 0,97,98
 266 833 266 833 280 840 c 0,99,100
 288 844 288 844 297 844 c 0,101,102
 303 844 303 844 309 842 c 0,103,104
 323 838 323 838 329.5 824.5 c 128,-1,105
 336 811 336 811 331 797 c 0,106,107
 293 705 293 705 242 617 c 0,108,109
 239 610 239 610 239 603 c 2,110,-1
 239 -40 l 2,111,112
 239 -55 239 -55 228.5 -65.5 c 128,-1,113
 218 -76 218 -76 203 -76 c 128,-1,114
 188 -76 188 -76 177.5 -65.5 c 128,-1,115
 167 -55 167 -55 167 -40 c 2,116,-1
 167 491 l 2,117,118
 167 493 167 493 165.5 493.5 c 128,-1,119
 164 494 164 494 163 493 c 0,120,121
 129 446 129 446 93 404 c 0,122,123
 82 393 82 393 67 395 c 128,-1,124
 52 397 52 397 44 410.5 c 128,-1,125
 36 424 36 424 36 440 c 0,126,127
 36 442 36 442 36 445 c 0,128,129
 38 464 38 464 50 477 c 0,130,131
 179 619 179 619 260 819 c 0,97,98
946 40 m 2,132,133
 959 40 959 40 969 30 c 128,-1,134
 979 20 979 20 979 6.5 c 128,-1,135
 979 -7 979 -7 969 -17 c 128,-1,136
 959 -27 959 -27 946 -27 c 2,137,-1
 425 -27 l 2,138,139
 420 -27 420 -27 420 -32 c 2,140,-1
 420 -41 l 2,141,142
 420 -56 420 -56 409.5 -66.5 c 128,-1,143
 399 -77 399 -77 384.5 -77 c 128,-1,144
 370 -77 370 -77 359.5 -66.5 c 128,-1,145
 349 -56 349 -56 349 -41 c 2,146,-1
 349 513 l 2,147,148
 349 527 349 527 359.5 537.5 c 128,-1,149
 370 548 370 548 384.5 548 c 128,-1,150
 399 548 399 548 409.5 537.5 c 128,-1,151
 420 527 420 527 420 513 c 2,152,-1
 420 47 l 2,153,154
 420 40 420 40 427 40 c 2,155,-1
 946 40 l 2,132,133
EndSplineSet
EndChar

StartChar: cid11220
Encoding: 20809 20809 16
Width: 1024
Flags: W
LayerCount: 2
Fore
SplineSet
798 780 m 0,0,1
 805 796 805 796 820 803 c 0,2,3
 829 807 829 807 837 807 c 0,4,5
 844 807 844 807 851 804 c 0,6,7
 867 798 867 798 873 782.5 c 128,-1,8
 879 767 879 767 872 753 c 0,9,10
 814 635 814 635 766 559 c 0,11,12
 758 546 758 546 744 542 c 128,-1,13
 730 538 730 538 716 543 c 0,14,15
 703 548 703 548 699 561 c 128,-1,16
 695 574 695 574 702 585 c 0,17,18
 756 677 756 677 798 780 c 0,0,1
325 593 m 0,19,20
 331 577 331 577 323.5 562.5 c 128,-1,21
 316 548 316 548 301 542 c 0,22,23
 287 536 287 536 273 542.5 c 128,-1,24
 259 549 259 549 253 564 c 0,25,26
 221 653 221 653 164 750 c 0,27,28
 156 762 156 762 160.5 775.5 c 128,-1,29
 165 789 165 789 179 794 c 0,30,31
 194 800 194 800 209 795 c 128,-1,32
 224 790 224 790 233 776 c 0,33,34
 294 678 294 678 325 593 c 0,19,20
724 -5 m 2,35,-1
 857 -5 l 2,36,37
 884 -5 884 -5 894 20 c 128,-1,38
 904 45 904 45 908 128 c 0,39,40
 908 141 908 141 919.5 146.5 c 128,-1,41
 931 152 931 152 943 147 c 0,42,43
 959 140 959 140 968 125 c 0,44,45
 977 113 977 113 977 98 c 0,46,47
 977 6 977 6 945 -41 c 0,48,49
 922 -76 922 -76 863 -76 c 2,50,-1
 716 -76 l 2,51,52
 648 -76 648 -76 624 -53 c 128,-1,53
 600 -30 600 -30 600 35 c 2,54,-1
 600 389 l 2,55,56
 600 396 600 396 593 396 c 2,57,-1
 419 396 l 2,58,59
 412 396 412 396 411 389 c 0,60,61
 405 321 405 321 395 269.5 c 128,-1,62
 385 218 385 218 365 165 c 128,-1,63
 345 112 345 112 314.5 72 c 128,-1,64
 284 32 284 32 236 -3.5 c 128,-1,65
 188 -39 188 -39 124 -64 c 0,66,67
 116 -67 116 -67 108 -67 c 128,-1,68
 100 -67 100 -67 92 -64 c 0,69,70
 76 -58 76 -58 65 -44 c 0,71,72
 57 -32 57 -32 60.5 -18.5 c 128,-1,73
 64 -5 64 -5 77 -1 c 0,74,75
 136 21 136 21 179.5 52 c 128,-1,76
 223 83 223 83 249.5 116.5 c 128,-1,77
 276 150 276 150 293 196.5 c 128,-1,78
 310 243 310 243 318 286 c 128,-1,79
 326 329 326 329 331 389 c 0,80,81
 332 396 332 396 324 396 c 2,82,-1
 96 396 l 2,83,84
 81 396 81 396 70 407 c 128,-1,85
 59 418 59 418 59 433 c 128,-1,86
 59 448 59 448 70 458.5 c 128,-1,87
 81 469 81 469 96 469 c 2,88,-1
 464 469 l 2,89,90
 471 469 471 469 471 476 c 2,91,-1
 471 819 l 2,92,93
 471 835 471 835 482 846 c 128,-1,94
 493 857 493 857 509 857 c 128,-1,95
 525 857 525 857 536 846 c 128,-1,96
 547 835 547 835 547 819 c 2,97,-1
 547 476 l 2,98,99
 547 469 547 469 554 469 c 2,100,-1
 931 469 l 2,101,102
 946 469 946 469 957 458.5 c 128,-1,103
 968 448 968 448 968 433 c 128,-1,104
 968 418 968 418 957 407 c 128,-1,105
 946 396 946 396 931 396 c 2,106,-1
 684 396 l 2,107,108
 677 396 677 396 677 389 c 2,109,-1
 677 36 l 2,110,111
 677 10 677 10 686 2.5 c 128,-1,112
 695 -5 695 -5 724 -5 c 2,35,-1
EndSplineSet
EndChar

StartChar: cid11285
Encoding: 20844 20844 17
Width: 1024
Flags: W
LayerCount: 2
Fore
SplineSet
310 788 m 0,0,1
 317 805 317 805 334 813 c 0,2,3
 344 818 344 818 355 818 c 0,4,5
 361 818 361 818 368 816 c 0,6,7
 385 811 385 811 392 795 c 0,8,9
 396 788 396 788 396 780 c 256,10,11
 396 772 396 772 392 764 c 0,12,13
 298 559 298 559 159 416 c 0,14,15
 146 402 146 402 127 401 c 0,16,17
 126 401 126 401 125 401 c 0,18,19
 106 401 106 401 92 413 c 0,20,21
 77 424 77 424 77 443 c 0,22,23
 77 458 77 458 88 468 c 0,24,25
 223 596 223 596 310 788 c 0,0,1
649 236 m 0,26,27
 640 248 640 248 643.5 262 c 128,-1,28
 647 276 647 276 660 283 c 0,29,30
 670 287 670 287 681 287 c 0,31,32
 687 287 687 287 693 286 c 0,33,34
 710 283 710 283 721 269 c 0,35,36
 843 125 843 125 921 -4 c 0,37,38
 928 -14 928 -14 928 -25 c 0,39,40
 928 -30 928 -30 926 -36 c 0,41,42
 921 -53 921 -53 906 -62 c 0,43,44
 896 -67 896 -67 885 -67 c 0,45,46
 879 -67 879 -67 873 -66 c 0,47,48
 856 -61 856 -61 847 -46 c 0,49,50
 835 -25 835 -25 822 -4 c 0,51,52
 818 2 818 2 811 2 c 0,53,54
 664 -7 664 -7 146 -33 c 0,55,56
 144 -33 144 -33 143 -33 c 0,57,58
 128 -33 128 -33 116 -23 c 0,59,60
 103 -12 103 -12 100 5 c 0,61,62
 100 8 100 8 100 10 c 0,63,64
 100 23 100 23 109 33 c 0,65,66
 119 46 119 46 136 46 c 0,67,68
 205 48 205 48 228 49 c 0,69,70
 236 49 236 49 239 56 c 0,71,72
 341 243 341 243 414 445 c 0,73,74
 421 463 421 463 438 472 c 0,75,76
 449 478 449 478 461 478 c 0,77,78
 467 478 467 478 473 477 c 0,79,80
 490 472 490 472 498 457 c 0,81,82
 503 448 503 448 503 439 c 0,83,84
 503 432 503 432 499 424 c 0,85,86
 408 210 408 210 324 60 c 0,87,88
 323 58 323 58 324.5 55.5 c 128,-1,89
 326 53 326 53 328 54 c 0,90,91
 479 59 479 59 764 72 c 0,92,93
 766 72 766 72 767 74.5 c 128,-1,94
 768 77 768 77 767 79 c 0,95,96
 708 164 708 164 649 236 c 0,26,27
634 762 m 0,97,98
 629 770 629 770 629 779 c 0,99,100
 629 785 629 785 631 791 c 0,101,102
 636 806 636 806 651 812 c 0,103,104
 660 815 660 815 668 815 c 0,105,106
 675 815 675 815 683 813 c 0,107,108
 699 807 699 807 707 792 c 0,109,110
 753 713 753 713 818 628.5 c 128,-1,111
 883 544 883 544 945 480 c 0,112,113
 957 468 957 468 957 451 c 0,114,115
 957 432 957 432 944 418 c 0,116,117
 931 405 931 405 914 405 c 0,118,119
 913 405 913 405 912 405 c 0,120,121
 895 405 895 405 884 417 c 0,122,123
 820 488 820 488 752.5 581 c 128,-1,124
 685 674 685 674 634 762 c 0,97,98
EndSplineSet
EndChar

StartChar: cid11332
Encoding: 20877 20877 18
Width: 1024
Flags: W
LayerCount: 2
Fore
SplineSet
546 246 m 2,0,1
 546 239 546 239 553 239 c 2,2,-1
 776 239 l 2,3,4
 783 239 783 239 783 246 c 2,5,-1
 783 357 l 2,6,7
 783 365 783 365 776 365 c 2,8,-1
 553 365 l 2,9,10
 546 365 546 365 546 357 c 2,11,-1
 546 246 l 2,0,1
247 365 m 2,12,13
 240 365 240 365 240 357 c 2,14,-1
 240 246 l 2,15,16
 240 239 240 239 247 239 c 2,17,-1
 463 239 l 2,18,19
 470 239 470 239 470 246 c 2,20,-1
 470 357 l 2,21,22
 470 365 470 365 463 365 c 2,23,-1
 247 365 l 2,12,13
470 548 m 2,24,25
 470 555 470 555 463 555 c 2,26,-1
 247 555 l 2,27,28
 240 555 240 555 240 548 c 2,29,-1
 240 439 l 2,30,31
 240 431 240 431 247 431 c 2,32,-1
 463 431 l 2,33,34
 470 431 470 431 470 439 c 2,35,-1
 470 548 l 2,24,25
783 548 m 2,36,37
 783 555 783 555 776 555 c 2,38,-1
 553 555 l 2,39,40
 546 555 546 555 546 548 c 2,41,-1
 546 439 l 2,42,43
 546 431 546 431 553 431 c 2,44,-1
 776 431 l 2,45,46
 783 431 783 431 783 439 c 2,47,-1
 783 548 l 2,36,37
947 239 m 2,48,49
 961 239 961 239 971.5 228.5 c 128,-1,50
 982 218 982 218 982 203.5 c 128,-1,51
 982 189 982 189 971.5 178.5 c 128,-1,52
 961 168 961 168 947 168 c 2,53,-1
 866 168 l 2,54,55
 858 168 858 168 858 160 c 2,56,-1
 858 14 l 2,57,58
 858 -21 858 -21 848 -39 c 128,-1,59
 838 -57 838 -57 814 -67 c 0,60,61
 778 -80 778 -80 675 -80 c 0,62,63
 658 -80 658 -80 644.5 -69.5 c 128,-1,64
 631 -59 631 -59 625 -43 c 0,65,66
 620 -30 620 -30 627 -19 c 128,-1,67
 634 -8 634 -8 647 -8 c 0,68,69
 675 -8 675 -8 698 -8 c 0,70,71
 737 -8 737 -8 759 -7 c 0,72,73
 773 -7 773 -7 778 -2.5 c 128,-1,74
 783 2 783 2 783 14 c 2,75,-1
 783 160 l 2,76,77
 783 168 783 168 776 168 c 2,78,-1
 247 168 l 2,79,80
 240 168 240 168 240 160 c 2,81,-1
 240 -44 l 2,82,83
 240 -59 240 -59 229 -70 c 128,-1,84
 218 -81 218 -81 202.5 -81 c 128,-1,85
 187 -81 187 -81 176 -70 c 128,-1,86
 165 -59 165 -59 165 -44 c 2,87,-1
 165 160 l 2,88,89
 165 168 165 168 157 168 c 2,90,-1
 79 168 l 2,91,92
 65 168 65 168 54.5 178.5 c 128,-1,93
 44 189 44 189 44 203.5 c 128,-1,94
 44 218 44 218 54.5 228.5 c 128,-1,95
 65 239 65 239 79 239 c 2,96,-1
 157 239 l 2,97,98
 165 239 165 239 165 246 c 2,99,-1
 165 566 l 2,100,101
 165 590 165 590 182 607.5 c 128,-1,102
 199 625 199 625 224 625 c 2,103,-1
 463 625 l 2,104,105
 470 625 470 625 470 632 c 2,106,-1
 470 715 l 2,107,108
 470 723 470 723 463 723 c 2,109,-1
 118 723 l 2,110,111
 103 723 103 723 92.5 733.5 c 128,-1,112
 82 744 82 744 82 759 c 128,-1,113
 82 774 82 774 92.5 784.5 c 128,-1,114
 103 795 103 795 118 795 c 2,115,-1
 908 795 l 2,116,117
 923 795 923 795 933.5 784.5 c 128,-1,118
 944 774 944 774 944 759 c 128,-1,119
 944 744 944 744 933.5 733.5 c 128,-1,120
 923 723 923 723 908 723 c 2,121,-1
 553 723 l 2,122,123
 546 723 546 723 546 715 c 2,124,-1
 546 632 l 2,125,126
 546 625 546 625 553 625 c 2,127,-1
 799 625 l 2,128,129
 824 625 824 625 841 607.5 c 128,-1,130
 858 590 858 590 858 566 c 2,131,-1
 858 246 l 2,132,133
 858 239 858 239 866 239 c 2,134,-1
 947 239 l 2,48,49
EndSplineSet
EndChar

StartChar: uni529B
Encoding: 21147 21147 19
Width: 1024
Flags: W
LayerCount: 2
Fore
SplineSet
500 664 m 2,0,1
 500 657 500 657 508 657 c 2,2,-1
 867 657 l 2,3,4
 891 657 891 657 908 640 c 0,5,6
 923 623 923 623 923 602 c 0,7,8
 923 414 923 414 888 166 c 0,9,10
 869 31 869 31 835 -7 c 0,11,12
 806 -42 806 -42 748 -48 c 0,13,14
 729 -49 729 -49 703 -49 c 0,15,16
 670 -49 670 -49 626 -47 c 0,17,18
 608 -46 608 -46 595 -34 c 128,-1,19
 582 -22 582 -22 576 -4 c 0,20,21
 572 9 572 9 579 20 c 128,-1,22
 586 31 586 31 599 30 c 0,23,24
 660 26 660 26 719 26 c 0,25,26
 751 26 751 26 766 41 c 0,27,28
 794 68 794 68 812 192 c 0,29,30
 831 313 831 313 845 573 c 0,31,32
 845 581 845 581 838 581 c 2,33,-1
 504 581 l 2,34,35
 496 581 496 581 495 574 c 0,36,37
 490 508 490 508 480 450 c 0,38,39
 469 388 469 388 442 316 c 128,-1,40
 415 244 415 244 375 182 c 128,-1,41
 335 120 335 120 269 56 c 0,42,43
 217 6 217 6 153 -37 c 0,44,45
 141 -44 141 -44 129 -44 c 0,46,47
 125 -44 125 -44 120 -44 c 0,48,49
 103 -40 103 -40 90 -27 c 0,50,51
 80 -17 80 -17 80 -3 c 0,52,53
 80 13 80 13 94 22 c 0,54,55
 171 72 171 72 228 132 c 0,56,57
 299 204 299 204 337 282.5 c 128,-1,58
 375 361 375 361 393 431 c 0,59,60
 410 498 410 498 416 574 c 0,61,62
 417 581 417 581 410 581 c 2,63,-1
 127 581 l 2,64,65
 111 581 111 581 100 592 c 128,-1,66
 89 603 89 603 89 619 c 128,-1,67
 89 635 89 635 100 646 c 128,-1,68
 111 657 111 657 127 657 c 2,69,-1
 414 657 l 2,70,71
 421 657 421 657 421 664 c 2,72,-1
 421 701 l 1,73,-1
 421 838 l 2,74,75
 421 855 421 855 432.5 866.5 c 128,-1,76
 444 878 444 878 460.5 878 c 128,-1,77
 477 878 477 878 488.5 866.5 c 128,-1,78
 500 855 500 855 500 838 c 2,79,-1
 500 701 l 1,80,-1
 500 664 l 2,0,1
EndSplineSet
EndChar

StartChar: cid11782
Encoding: 21151 21151 20
Width: 1024
Flags: W
LayerCount: 2
Fore
SplineSet
410 283 m 0,0,1
 424 286 424 286 435.5 278.5 c 128,-1,2
 447 271 447 271 449 257 c 0,3,4
 451 241 451 241 442.5 228 c 128,-1,5
 434 215 434 215 419 211 c 0,6,7
 281 170 281 170 100 120 c 0,8,9
 84 116 84 116 70 124 c 128,-1,10
 56 132 56 132 52 148 c 0,11,12
 50 154 50 154 50 158 c 0,13,14
 50 169 50 169 56 179 c 0,15,16
 65 193 65 193 81 197 c 0,17,18
 97 200 97 200 115.5 205 c 128,-1,19
 134 210 134 210 159 216 c 128,-1,20
 184 222 184 222 199 226 c 0,21,22
 206 227 206 227 206 235 c 2,23,-1
 206 656 l 2,24,25
 206 664 206 664 198 664 c 2,26,-1
 93 664 l 2,27,28
 78 664 78 664 67 674.5 c 128,-1,29
 56 685 56 685 56 700 c 128,-1,30
 56 715 56 715 67 725.5 c 128,-1,31
 78 736 78 736 93 736 c 2,32,-1
 393 736 l 2,33,34
 408 736 408 736 418.5 725.5 c 128,-1,35
 429 715 429 715 429 700 c 128,-1,36
 429 685 429 685 418.5 674.5 c 128,-1,37
 408 664 408 664 393 664 c 2,38,-1
 288 664 l 2,39,40
 281 664 281 664 281 656 c 2,41,-1
 281 255 l 2,42,43
 281 252 281 252 283 250.5 c 128,-1,44
 285 249 285 249 288 250 c 0,45,46
 301 253 301 253 326 260 c 128,-1,47
 351 267 351 267 371.5 272.5 c 128,-1,48
 392 278 392 278 410 283 c 0,0,1
683 632 m 0,49,50
 683 625 683 625 691 625 c 2,51,-1
 900 625 l 2,52,53
 925 625 925 625 942 607 c 0,54,55
 958 591 958 591 958 568 c 0,56,57
 958 366 958 366 932 130 c 0,58,59
 918 6 918 6 890 -28 c 0,60,61
 874 -48 874 -48 856.5 -56 c 128,-1,62
 839 -64 839 -64 811 -68 c 0,63,64
 791 -69 791 -69 762 -69 c 0,65,66
 735 -69 735 -69 700 -68 c 0,67,68
 683 -67 683 -67 670.5 -55.5 c 128,-1,69
 658 -44 658 -44 653 -27 c 0,70,71
 649 -14 649 -14 656.5 -3.5 c 128,-1,72
 664 7 664 7 676 6 c 0,73,74
 723 3 723 3 780 3 c 0,75,76
 809 3 809 3 823 18 c 0,77,78
 845 43 845 43 858.5 160.5 c 128,-1,79
 872 278 872 278 883 544 c 0,80,81
 884 551 884 551 876 551 c 2,82,-1
 686 551 l 2,83,84
 679 551 679 551 678 543 c 0,85,86
 672 440 672 440 657 359 c 128,-1,87
 642 278 642 278 612 198 c 128,-1,88
 582 118 582 118 530 53.5 c 128,-1,89
 478 -11 478 -11 405 -59 c 0,90,91
 394 -65 394 -65 383 -65 c 0,92,93
 378 -65 378 -65 374 -64 c 0,94,95
 357 -60 357 -60 345 -47 c 0,96,97
 337 -38 337 -38 337 -25 c 0,98,99
 337 -8 337 -8 351 1 c 0,100,101
 418 44 418 44 466 101.5 c 128,-1,102
 514 159 514 159 541.5 231 c 128,-1,103
 569 303 569 303 583.5 376.5 c 128,-1,104
 598 450 598 450 604 543 c 0,105,106
 604 551 604 551 597 551 c 2,107,-1
 473 551 l 2,108,109
 458 551 458 551 447 562 c 128,-1,110
 436 573 436 573 436 588 c 128,-1,111
 436 603 436 603 447 614 c 128,-1,112
 458 625 458 625 473 625 c 2,113,-1
 600 625 l 2,114,115
 607 625 607 625 607 632 c 0,116,117
 610 714 610 714 610 802 c 0,118,119
 610 817 610 817 621 828.5 c 128,-1,120
 632 840 632 840 648 840 c 128,-1,121
 664 840 664 840 675 828.5 c 128,-1,122
 686 817 686 817 686 802 c 0,123,124
 686 715 686 715 683 632 c 0,49,50
EndSplineSet
EndChar

StartChar: uni5341
Encoding: 21313 21313 21
Width: 1024
Flags: W
LayerCount: 2
Fore
SplineSet
933 499 m 2,0,1
 949 499 949 499 960.5 487.5 c 128,-1,2
 972 476 972 476 972 460 c 128,-1,3
 972 444 972 444 960.5 432.5 c 128,-1,4
 949 421 949 421 933 421 c 2,5,-1
 562 421 l 2,6,7
 554 421 554 421 554 414 c 2,8,-1
 554 -14 l 2,9,10
 554 -31 554 -31 542 -43 c 128,-1,11
 530 -55 530 -55 513.5 -55 c 128,-1,12
 497 -55 497 -55 485 -43 c 128,-1,13
 473 -31 473 -31 473 -14 c 2,14,-1
 473 414 l 2,15,16
 473 421 473 421 466 421 c 2,17,-1
 99 421 l 2,18,19
 83 421 83 421 71.5 432.5 c 128,-1,20
 60 444 60 444 60 460 c 128,-1,21
 60 476 60 476 71.5 487.5 c 128,-1,22
 83 499 83 499 99 499 c 2,23,-1
 466 499 l 2,24,25
 473 499 473 499 473 506 c 2,26,-1
 473 838 l 2,27,28
 473 854 473 854 485 866 c 128,-1,29
 497 878 497 878 513.5 878 c 128,-1,30
 530 878 530 878 542 866 c 128,-1,31
 554 854 554 854 554 838 c 2,32,-1
 554 506 l 2,33,34
 554 499 554 499 562 499 c 2,35,-1
 933 499 l 2,0,1
EndSplineSet
EndChar

StartChar: cid12143
Encoding: 21363 21363 22
Width: 1024
Flags: W
LayerCount: 2
Fore
SplineSet
422 724 m 2,0,1
 422 731 422 731 414 731 c 2,2,-1
 194 731 l 2,3,4
 186 731 186 731 186 724 c 2,5,-1
 186 610 l 2,6,7
 186 602 186 602 194 602 c 2,8,-1
 414 602 l 2,9,10
 422 602 422 602 422 610 c 2,11,-1
 422 724 l 2,0,1
186 415 m 2,12,13
 186 408 186 408 194 408 c 2,14,-1
 414 408 l 2,15,16
 422 408 422 408 422 415 c 2,17,-1
 422 527 l 2,18,19
 422 535 422 535 414 535 c 2,20,-1
 194 535 l 2,21,22
 186 535 186 535 186 527 c 2,23,-1
 186 415 l 2,12,13
321 231 m 0,24,25
 314 241 314 241 317 254 c 128,-1,26
 320 267 320 267 332 273 c 0,27,28
 345 279 345 279 359.5 276 c 128,-1,29
 374 273 374 273 383 261 c 0,30,31
 470 145 470 145 517 43 c 0,32,33
 524 28 524 28 518.5 13 c 128,-1,34
 513 -2 513 -2 498 -9 c 0,35,36
 485 -16 485 -16 471 -10.5 c 128,-1,37
 457 -5 457 -5 451 8 c 0,38,39
 439 36 439 36 420 72 c 0,40,41
 417 79 417 79 410 77 c 0,42,43
 373 66 373 66 266 33 c 128,-1,44
 159 0 159 0 108 -14 c 0,45,46
 102 -16 102 -16 96 -16 c 0,47,48
 87 -16 87 -16 77 -11 c 0,49,50
 62 -3 62 -3 57 13 c 0,51,52
 55 19 55 19 55 25 c 0,53,54
 55 34 55 34 60 43 c 0,55,56
 67 57 67 57 83 61 c 0,57,58
 96 64 96 64 107 68 c 0,59,60
 115 70 115 70 115 77 c 2,61,-1
 115 743 l 2,62,63
 115 767 115 767 132 784.5 c 128,-1,64
 149 802 149 802 174 802 c 2,65,-1
 434 802 l 2,66,67
 458 802 458 802 475.5 784.5 c 128,-1,68
 493 767 493 767 493 743 c 2,69,-1
 493 396 l 2,70,71
 493 371 493 371 475.5 354 c 128,-1,72
 458 337 458 337 434 337 c 2,73,-1
 194 337 l 2,74,75
 186 337 186 337 186 329 c 2,76,-1
 186 97 l 2,77,78
 186 94 186 94 188.5 92 c 128,-1,79
 191 90 191 90 194 91 c 0,80,81
 294 118 294 118 373 141 c 0,82,83
 380 143 380 143 376 150 c 0,84,85
 350 191 350 191 321 231 c 0,24,25
880 801 m 2,86,87
 904 801 904 801 921.5 783.5 c 128,-1,88
 939 766 939 766 939 742 c 2,89,-1
 939 181 l 2,90,91
 939 146 939 146 931 127 c 128,-1,92
 923 108 923 108 901 97 c 0,93,94
 873 84 873 84 795 82 c 2,95,96
 795 82 795 82 794 82 c 0,97,98
 776 82 776 82 762 94 c 0,99,100
 747 106 747 106 741 124 c 0,101,102
 737 139 737 139 745.5 151 c 128,-1,103
 754 163 754 163 769 163 c 0,104,105
 787 163 787 163 802 163 c 0,106,107
 827 163 827 163 844 164 c 0,108,109
 855 164 855 164 858.5 168 c 128,-1,110
 862 172 862 172 862 183 c 2,111,-1
 862 717 l 2,112,113
 862 725 862 725 855 725 c 2,114,-1
 654 725 l 2,115,116
 646 725 646 725 646 717 c 2,117,-1
 646 -40 l 2,118,119
 646 -56 646 -56 635 -67 c 128,-1,120
 624 -78 624 -78 608.5 -78 c 128,-1,121
 593 -78 593 -78 581.5 -67 c 128,-1,122
 570 -56 570 -56 570 -40 c 2,123,-1
 570 742 l 2,124,125
 570 766 570 766 587.5 783.5 c 128,-1,126
 605 801 605 801 629 801 c 2,127,-1
 880 801 l 2,86,87
EndSplineSet
EndChar

StartChar: cid12281
Encoding: 21450 21450 23
Width: 1024
Flags: W
LayerCount: 2
Fore
SplineSet
360 728 m 2,0,1
 352 728 352 728 352 721 c 2,2,-1
 352 699 l 2,3,4
 352 691 352 691 354 684 c 0,5,6
 439 348 439 348 630 176 c 0,7,8
 636 171 636 171 641 176 c 0,9,10
 775 298 775 298 834 477 c 0,11,12
 835 480 835 480 833.5 482 c 128,-1,13
 832 484 832 484 829 484 c 2,14,-1
 658 484 l 2,15,16
 652 484 652 484 651 478 c 0,17,18
 649 474 649 474 648 469 c 0,19,20
 643 453 643 453 629 444 c 0,21,22
 618 437 618 437 605 437 c 0,23,24
 602 437 602 437 599 437 c 0,25,26
 583 439 583 439 574.5 452 c 128,-1,27
 566 465 566 465 570 480 c 0,28,29
 602 595 602 595 631 721 c 0,30,31
 633 728 633 728 625 728 c 2,32,-1
 360 728 l 2,0,1
869 556 m 0,33,34
 881 560 881 560 892 555 c 2,35,-1
 906 549 l 2,36,37
 917 544 917 544 922.5 533 c 128,-1,38
 928 522 928 522 925 510 c 0,39,40
 861 277 861 277 703 128 c 0,41,42
 697 123 697 123 703 119 c 0,43,44
 808 45 808 45 948 5 c 0,45,46
 962 1 962 1 966 -13 c 0,47,48
 968 -18 968 -18 968 -23 c 0,49,50
 968 -32 968 -32 962 -40 c 0,51,52
 950 -56 950 -56 932 -63 c 0,53,54
 922 -67 922 -67 912 -67 c 0,55,56
 904 -67 904 -67 896 -65 c 0,57,58
 749 -20 749 -20 638 64 c 0,59,60
 632 69 632 69 626 64 c 0,61,62
 510 -19 510 -19 358 -67 c 0,63,64
 351 -70 351 -70 344 -70 c 0,65,66
 335 -70 335 -70 325 -66 c 0,67,68
 309 -59 309 -59 300 -44 c 0,69,70
 292 -32 292 -32 297 -19 c 128,-1,71
 302 -6 302 -6 315 -2 c 0,72,73
 454 38 454 38 566 115 c 0,74,75
 572 120 572 120 567 125 c 0,76,77
 432 257 432 257 349 474 c 0,78,79
 348 476 348 476 346.5 475.5 c 128,-1,80
 345 475 345 475 345 474 c 0,81,82
 313 166 313 166 124 -30 c 0,83,84
 112 -41 112 -41 96.5 -39.5 c 128,-1,85
 81 -38 81 -38 70 -25 c 0,86,87
 58 -13 58 -13 58 4 c 128,-1,88
 58 21 58 21 70 34 c 0,89,90
 124 90 124 90 163.5 157 c 128,-1,91
 203 224 203 224 224 282.5 c 128,-1,92
 245 341 245 341 257.5 411 c 128,-1,93
 270 481 270 481 272.5 530.5 c 128,-1,94
 275 580 275 580 275 642 c 2,95,-1
 275 721 l 2,96,97
 275 728 275 728 268 728 c 2,98,-1
 132 728 l 2,99,100
 117 728 117 728 106 739 c 128,-1,101
 95 750 95 750 95 765 c 128,-1,102
 95 780 95 780 106 791 c 128,-1,103
 117 802 117 802 132 802 c 2,104,-1
 655 802 l 2,105,106
 656 802 656 802 658 802 c 0,107,108
 665 805 665 805 673 805 c 0,109,110
 677 805 677 805 682 804 c 2,111,-1
 699 801 l 2,112,113
 711 799 711 799 718 788.5 c 128,-1,114
 725 778 725 778 722 767 c 0,115,116
 700 665 700 665 673 563 c 0,117,118
 672 560 672 560 673.5 558 c 128,-1,119
 675 556 675 556 678 556 c 2,120,-1
 866 556 l 2,121,122
 867 556 867 556 869 556 c 0,33,34
EndSplineSet
EndChar

StartChar: cid12340
Encoding: 21488 21488 24
Width: 1024
Flags: W
LayerCount: 2
Fore
SplineSet
756 276 m 2,0,1
 756 284 756 284 748 284 c 2,2,-1
 273 284 l 2,3,4
 265 284 265 284 265 276 c 2,5,-1
 265 47 l 2,6,7
 265 40 265 40 273 40 c 2,8,-1
 748 40 l 2,9,10
 756 40 756 40 756 47 c 2,11,-1
 756 276 l 2,0,1
227 -78 m 128,-1,13
 211 -78 211 -78 199.5 -66.5 c 128,-1,14
 188 -55 188 -55 188 -39 c 2,15,-1
 188 296 l 2,16,17
 188 321 188 321 205.5 338 c 128,-1,18
 223 355 223 355 247 355 c 2,19,-1
 778 355 l 2,20,21
 802 355 802 355 819.5 338 c 128,-1,22
 837 321 837 321 837 296 c 2,23,-1
 837 -35 l 2,24,25
 837 -52 837 -52 825 -64 c 128,-1,26
 813 -76 813 -76 796 -76 c 2,27,-1
 794 -76 l 2,28,29
 778 -76 778 -76 767 -64.5 c 128,-1,30
 756 -53 756 -53 756 -38 c 0,31,32
 756 -33 756 -33 751 -33 c 2,33,-1
 270 -33 l 2,34,35
 265 -33 265 -33 265 -38 c 2,36,-1
 265 -39 l 2,37,38
 265 -55 265 -55 254 -66.5 c 128,-1,12
 243 -78 243 -78 227 -78 c 128,-1,13
665 672 m 0,39,40
 654 682 654 682 654.5 696 c 128,-1,41
 655 710 655 710 667 718 c 0,42,43
 680 727 680 727 696 727 c 128,-1,44
 712 727 712 727 725 716 c 0,45,46
 868 597 868 597 949 488 c 0,47,48
 957 477 957 477 957 464 c 0,49,50
 957 460 957 460 957 456 c 0,51,52
 954 439 954 439 940 429 c 0,53,54
 930 421 930 421 917 421 c 0,55,56
 914 421 914 421 910 421 c 0,57,58
 894 424 894 424 884 438 c 0,59,60
 866 464 866 464 839 496 c 0,61,62
 835 502 835 502 827 501 c 0,63,64
 702 494 702 494 112 470 c 0,65,66
 96 469 96 469 84 479 c 0,67,68
 71 491 71 491 71 509 c 0,69,70
 71 522 71 522 81 533 c 256,71,72
 91 544 91 544 107 545 c 0,73,74
 131 546 131 546 215 549 c 0,75,76
 222 549 222 549 226 555 c 0,77,78
 311 684 311 684 374 820 c 0,79,80
 382 837 382 837 399 844 c 0,81,82
 409 849 409 849 419 849 c 0,83,84
 426 849 426 849 434 846 c 0,85,86
 451 840 451 840 457 824 c 0,87,88
 460 817 460 817 460 810 c 0,89,90
 460 801 460 801 455 792 c 0,91,92
 386 664 386 664 315 559 c 0,93,94
 313 557 313 557 314 555 c 128,-1,95
 315 553 315 553 318 553 c 0,96,97
 466 559 466 559 763 572 c 0,98,99
 765 572 765 572 765.5 574 c 128,-1,100
 766 576 766 576 765 578 c 0,101,102
 715 628 715 628 665 672 c 0,39,40
EndSplineSet
EndChar

StartChar: cid12373
Encoding: 21512 21512 25
Width: 1024
Flags: W
LayerCount: 2
Fore
SplineSet
748 253 m 2,0,1
 748 260 748 260 740 260 c 2,2,-1
 285 260 l 2,3,4
 278 260 278 260 278 253 c 2,5,-1
 278 39 l 2,6,7
 278 32 278 32 285 32 c 2,8,-1
 740 32 l 2,9,10
 748 32 748 32 748 39 c 2,11,-1
 748 253 l 2,0,1
214 -68 m 128,-1,13
 203 -57 203 -57 203 -41 c 2,14,-1
 203 270 l 2,15,16
 203 294 203 294 220 311.5 c 128,-1,17
 237 329 237 329 262 329 c 2,18,-1
 766 329 l 2,19,20
 791 329 791 329 808 311.5 c 128,-1,21
 825 294 825 294 825 270 c 2,22,-1
 825 -40 l 2,23,24
 825 -56 825 -56 814 -67.5 c 128,-1,25
 803 -79 803 -79 786 -79 c 2,26,-1
 785 -79 l 2,27,28
 769 -79 769 -79 758.5 -68 c 128,-1,29
 748 -57 748 -57 748 -42 c 0,30,31
 748 -37 748 -37 743 -37 c 2,32,-1
 282 -37 l 2,33,34
 278 -37 278 -37 278 -42 c 0,35,36
 278 -57 278 -57 267 -68 c 128,-1,37
 256 -79 256 -79 240.5 -79 c 128,-1,12
 225 -79 225 -79 214 -68 c 128,-1,13
256 490 m 128,-1,39
 256 504 256 504 266 514 c 128,-1,40
 276 524 276 524 290 524 c 2,41,-1
 735 524 l 2,42,43
 749 524 749 524 759 514 c 128,-1,44
 769 504 769 504 769 490 c 128,-1,45
 769 476 769 476 759 466.5 c 128,-1,46
 749 457 749 457 735 457 c 2,47,-1
 290 457 l 2,48,49
 276 457 276 457 266 466.5 c 128,-1,38
 256 476 256 476 256 490 c 128,-1,39
446 822 m 0,50,51
 468 854 468 854 505 854 c 0,52,53
 543 854 543 854 567 823 c 0,54,55
 641 729 641 729 745.5 644.5 c 128,-1,56
 850 560 850 560 956 506 c 0,57,58
 969 500 969 500 973 484 c 0,59,60
 973 481 973 481 973 477 c 0,61,62
 973 466 973 466 966 457 c 0,63,64
 956 443 956 443 939 439 c 0,65,66
 933 437 933 437 928 437 c 0,67,68
 917 437 917 437 907 443 c 0,69,70
 794 507 794 507 687 596.5 c 128,-1,71
 580 686 580 686 514 774 c 0,72,73
 510 780 510 780 506 774 c 0,74,75
 445 686 445 686 341 594.5 c 128,-1,76
 237 503 237 503 119 435 c 0,77,78
 109 430 109 430 99 430 c 0,79,80
 94 430 94 430 89 432 c 0,81,82
 74 436 74 436 64 449 c 0,83,84
 56 457 56 457 56 468 c 0,85,86
 56 471 56 471 57 474 c 0,87,88
 59 488 59 488 72 495 c 0,89,90
 183 557 183 557 283.5 645.5 c 128,-1,91
 384 734 384 734 446 822 c 0,50,51
EndSplineSet
EndChar

StartChar: cid12663
Encoding: 21697 21697 26
Width: 1024
Flags: W
LayerCount: 2
Fore
SplineSet
709 547 m 2,0,1
 717 547 717 547 717 554 c 2,2,-1
 717 733 l 2,3,4
 717 740 717 740 709 740 c 2,5,-1
 318 740 l 2,6,7
 310 740 310 740 310 733 c 2,8,-1
 310 554 l 2,9,10
 310 547 310 547 318 547 c 2,11,-1
 709 547 l 2,0,1
735 813 m 2,12,13
 759 813 759 813 776.5 795.5 c 128,-1,14
 794 778 794 778 794 754 c 2,15,-1
 794 533 l 2,16,17
 794 509 794 509 776.5 491.5 c 128,-1,18
 759 474 759 474 735 474 c 2,19,-1
 296 474 l 2,20,21
 271 474 271 474 254 491.5 c 128,-1,22
 237 509 237 509 237 533 c 2,23,-1
 237 754 l 2,24,25
 237 778 237 778 254 795.5 c 128,-1,26
 271 813 271 813 296 813 c 2,27,-1
 735 813 l 2,12,13
375 285 m 2,28,29
 375 293 375 293 367 293 c 2,30,-1
 168 293 l 2,31,32
 161 293 161 293 161 285 c 2,33,-1
 161 58 l 2,34,35
 161 50 161 50 168 50 c 2,36,-1
 367 50 l 2,37,38
 375 50 375 50 375 58 c 2,39,-1
 375 285 l 2,28,29
124 -79 m 128,-1,41
 109 -79 109 -79 98.5 -68.5 c 128,-1,42
 88 -58 88 -58 88 -42 c 2,43,-1
 88 308 l 2,44,45
 88 332 88 332 105.5 349.5 c 128,-1,46
 123 367 123 367 147 367 c 2,47,-1
 391 367 l 2,48,49
 415 367 415 367 432.5 349.5 c 128,-1,50
 450 332 450 332 450 308 c 2,51,-1
 450 -32 l 2,52,53
 450 -48 450 -48 439 -59 c 128,-1,54
 428 -70 428 -70 412.5 -70 c 128,-1,55
 397 -70 397 -70 386 -59 c 128,-1,56
 375 -48 375 -48 375 -32 c 2,57,-1
 375 -29 l 2,58,59
 375 -24 375 -24 370 -24 c 2,60,-1
 167 -24 l 2,61,62
 161 -24 161 -24 161 -30 c 2,63,-1
 161 -42 l 2,64,65
 161 -58 161 -58 150 -68.5 c 128,-1,40
 139 -79 139 -79 124 -79 c 128,-1,41
635 58 m 2,66,67
 635 50 635 50 642 50 c 2,68,-1
 860 50 l 2,69,70
 867 50 867 50 867 58 c 2,71,-1
 867 285 l 2,72,73
 867 293 867 293 860 293 c 2,74,-1
 642 293 l 2,75,76
 635 293 635 293 635 285 c 2,77,-1
 635 58 l 2,66,67
561 308 m 2,78,79
 561 332 561 332 578.5 349.5 c 128,-1,80
 596 367 596 367 620 367 c 2,81,-1
 883 367 l 2,82,83
 908 367 908 367 925 349.5 c 128,-1,84
 942 332 942 332 942 308 c 2,85,-1
 942 -34 l 2,86,87
 942 -50 942 -50 931 -61 c 128,-1,88
 920 -72 920 -72 904.5 -72 c 128,-1,89
 889 -72 889 -72 878 -61 c 128,-1,90
 867 -50 867 -50 867 -34 c 2,91,-1
 867 -29 l 2,92,93
 867 -24 867 -24 862 -24 c 2,94,-1
 641 -24 l 2,95,96
 635 -24 635 -24 635 -30 c 2,97,-1
 635 -42 l 2,98,99
 635 -57 635 -57 624 -68 c 128,-1,100
 613 -79 613 -79 598 -79 c 128,-1,101
 583 -79 583 -79 572 -68 c 128,-1,102
 561 -57 561 -57 561 -42 c 2,103,-1
 561 308 l 2,78,79
EndSplineSet
EndChar

StartChar: cid13660
Encoding: 22283 22283 27
Width: 1024
Flags: W
LayerCount: 2
Fore
SplineSet
765 675 m 0,0,1
 774 668 774 668 774.5 657 c 128,-1,2
 775 646 775 646 767 637 c 0,3,4
 759 629 759 629 748 628.5 c 128,-1,5
 737 628 737 628 728 635 c 0,6,7
 698 659 698 659 662 678 c 0,8,9
 654 682 654 682 652 691.5 c 128,-1,10
 650 701 650 701 657 708 c 0,11,12
 668 720 668 720 681 720 c 0,13,14
 690 720 690 720 698 716 c 0,15,16
 737 695 737 695 765 675 c 0,0,1
486 239 m 0,17,18
 496 241 496 241 504.5 234.5 c 128,-1,19
 513 228 513 228 514 217 c 0,20,21
 514 206 514 206 507 197 c 128,-1,22
 500 188 500 188 489 185 c 0,23,24
 270 143 270 143 245 138 c 0,25,26
 233 136 233 136 223 143 c 128,-1,27
 213 150 213 150 211 162 c 128,-1,28
 209 174 209 174 216 183.5 c 128,-1,29
 223 193 223 193 235 195 c 0,30,31
 302 206 302 206 486 239 c 0,17,18
415 334 m 2,32,33
 423 334 423 334 423 341 c 2,34,-1
 423 429 l 2,35,36
 423 436 423 436 415 436 c 2,37,-1
 313 436 l 2,38,39
 305 436 305 436 305 429 c 2,40,-1
 305 341 l 2,41,42
 305 334 305 334 313 334 c 2,43,-1
 415 334 l 2,32,33
252 425 m 2,44,45
 252 450 252 450 269 467 c 128,-1,46
 286 484 286 484 311 484 c 2,47,-1
 419 484 l 2,48,49
 444 484 444 484 461 467 c 128,-1,50
 478 450 478 450 478 425 c 2,51,-1
 478 345 l 2,52,53
 478 320 478 320 461 303 c 128,-1,54
 444 286 444 286 419 286 c 2,55,-1
 311 286 l 2,56,57
 286 286 286 286 269 303 c 128,-1,58
 252 320 252 320 252 345 c 2,59,-1
 252 425 l 2,44,45
698 471 m 0,60,61
 702 484 702 484 713.5 491 c 128,-1,62
 725 498 725 498 738 495 c 256,63,64
 751 492 751 492 757.5 481 c 128,-1,65
 764 470 764 470 760 458 c 0,66,67
 724 339 724 339 660 244 c 0,68,69
 655 237 655 237 658 231 c 0,70,71
 692 150 692 150 738 143 c 0,72,73
 739 143 739 143 740 143 c 0,74,75
 756 143 756 143 766 219 c 0,76,77
 768 228 768 228 776.5 232 c 128,-1,78
 785 236 785 236 793 230 c 0,79,80
 816 215 816 215 816 193 c 0,81,82
 816 189 816 189 815 185 c 0,83,84
 796 78 796 78 743 78 c 0,85,86
 731 78 731 78 718 83 c 0,87,88
 658 95 658 95 615 176 c 0,89,90
 611 182 611 182 606 177 c 0,91,92
 560 124 560 124 503 83 c 0,93,94
 492 75 492 75 478 77 c 128,-1,95
 464 79 464 79 455 89 c 256,96,97
 446 99 446 99 447.5 111 c 128,-1,98
 449 123 449 123 459 130 c 0,99,100
 528 175 528 175 581 241 c 0,101,102
 586 247 586 247 583 254 c 0,103,104
 550 354 550 354 530 541 c 0,105,106
 529 549 529 549 522 549 c 2,107,-1
 245 549 l 2,108,109
 233 549 233 549 224.5 557.5 c 128,-1,110
 216 566 216 566 216 577.5 c 128,-1,111
 216 589 216 589 224.5 597.5 c 128,-1,112
 233 606 233 606 245 606 c 2,113,-1
 517 606 l 2,114,115
 524 606 524 606 524 614 c 0,116,117
 520 657 520 657 518 682 c 0,118,119
 517 695 517 695 526.5 705 c 128,-1,120
 536 715 536 715 549 715 c 0,121,122
 563 715 563 715 573 705.5 c 128,-1,123
 583 696 583 696 583 682 c 0,124,125
 585 658 585 658 587 614 c 0,126,127
 588 606 588 606 595 606 c 2,128,-1
 782 606 l 2,129,130
 794 606 794 606 802.5 597.5 c 128,-1,131
 811 589 811 589 811 577.5 c 128,-1,132
 811 566 811 566 802.5 557.5 c 128,-1,133
 794 549 794 549 782 549 c 2,134,-1
 600 549 l 2,135,136
 593 549 593 549 594 541 c 0,137,138
 606 409 606 409 629 321 c 0,139,140
 629 319 629 319 631.5 318.5 c 128,-1,141
 634 318 634 318 635 320 c 0,142,143
 674 388 674 388 698 471 c 0,60,61
160 42 m 2,144,145
 160 35 160 35 167 35 c 2,146,-1
 855 35 l 2,147,148
 862 35 862 35 862 42 c 2,149,-1
 862 733 l 2,150,151
 862 740 862 740 855 740 c 2,152,-1
 167 740 l 2,153,154
 160 740 160 740 160 733 c 2,155,-1
 160 42 l 2,144,145
87 751 m 2,156,157
 87 775 87 775 104.5 792.5 c 128,-1,158
 122 810 122 810 146 810 c 2,159,-1
 878 810 l 2,160,161
 902 810 902 810 919.5 792.5 c 128,-1,162
 937 775 937 775 937 751 c 2,163,-1
 937 -44 l 2,164,165
 937 -59 937 -59 926 -70 c 128,-1,166
 915 -81 915 -81 899.5 -81 c 128,-1,167
 884 -81 884 -81 873 -70 c 128,-1,168
 862 -59 862 -59 862 -44 c 2,169,-1
 862 -39 l 2,170,171
 862 -34 862 -34 857 -34 c 2,172,-1
 165 -34 l 2,173,174
 160 -34 160 -34 160 -39 c 2,175,-1
 160 -45 l 2,176,177
 160 -60 160 -60 149 -70.5 c 128,-1,178
 138 -81 138 -81 123 -81 c 128,-1,179
 108 -81 108 -81 97.5 -70.5 c 128,-1,180
 87 -60 87 -60 87 -45 c 2,181,-1
 87 751 l 2,156,157
EndSplineSet
EndChar

StartChar: uni5716
Encoding: 22294 22294 28
Width: 1024
Flags: W
LayerCount: 2
Fore
SplineSet
456 274 m 2,0,1
 449 274 449 274 449 267 c 2,2,-1
 449 223 l 2,3,4
 449 215 449 215 456 215 c 2,5,-1
 562 215 l 2,6,7
 569 215 569 215 569 223 c 2,8,-1
 569 267 l 2,9,10
 569 274 569 274 562 274 c 2,11,-1
 456 274 l 2,0,1
460 175 m 2,12,13
 436 175 436 175 418.5 192.5 c 128,-1,14
 401 210 401 210 401 234 c 2,15,-1
 401 255 l 2,16,17
 401 280 401 280 418.5 297 c 128,-1,18
 436 314 436 314 460 314 c 2,19,-1
 559 314 l 2,20,21
 584 314 584 314 601 297 c 128,-1,22
 618 280 618 280 618 255 c 2,23,-1
 618 234 l 2,24,25
 618 210 618 210 601 192.5 c 128,-1,26
 584 175 584 175 559 175 c 2,27,-1
 460 175 l 2,12,13
343 358 m 2,28,29
 336 358 336 358 336 351 c 2,30,-1
 336 139 l 2,31,32
 336 131 336 131 343 131 c 2,33,-1
 677 131 l 2,34,35
 684 131 684 131 684 139 c 2,36,-1
 684 351 l 2,37,38
 684 358 684 358 677 358 c 2,39,-1
 343 358 l 2,28,29
335 83 m 2,40,41
 311 83 311 83 293.5 100.5 c 128,-1,42
 276 118 276 118 276 142 c 2,43,-1
 276 347 l 2,44,45
 276 371 276 371 293.5 388.5 c 128,-1,46
 311 406 311 406 335 406 c 2,47,-1
 687 406 l 2,48,49
 712 406 712 406 729 388.5 c 128,-1,50
 746 371 746 371 746 347 c 2,51,-1
 746 142 l 2,52,53
 746 118 746 118 729 100.5 c 128,-1,54
 712 83 712 83 687 83 c 2,55,-1
 335 83 l 2,40,41
380 657 m 2,56,57
 373 657 373 657 373 650 c 2,58,-1
 373 597 l 2,59,60
 373 590 373 590 380 590 c 2,61,-1
 641 590 l 2,62,63
 648 590 648 590 648 597 c 2,64,-1
 648 650 l 2,65,66
 648 657 648 657 641 657 c 2,67,-1
 380 657 l 2,56,57
541 505 m 2,68,69
 541 498 541 498 548 498 c 2,70,-1
 796 498 l 2,71,72
 806 498 806 498 813 491 c 128,-1,73
 820 484 820 484 820 474 c 128,-1,74
 820 464 820 464 813 457 c 128,-1,75
 806 450 806 450 796 450 c 2,76,-1
 231 450 l 2,77,78
 221 450 221 450 214 457 c 128,-1,79
 207 464 207 464 207 474 c 128,-1,80
 207 484 207 484 214 491 c 128,-1,81
 221 498 221 498 231 498 c 2,82,-1
 469 498 l 2,83,84
 476 498 476 498 476 505 c 2,85,-1
 476 536 l 2,86,87
 476 544 476 544 469 544 c 2,88,-1
 368 544 l 2,89,90
 344 544 344 544 326.5 561 c 128,-1,91
 309 578 309 578 309 603 c 2,92,-1
 309 643 l 2,93,94
 309 668 309 668 326.5 685 c 128,-1,95
 344 702 344 702 368 702 c 2,96,-1
 655 702 l 2,97,98
 679 702 679 702 696.5 685 c 128,-1,99
 714 668 714 668 714 643 c 2,100,-1
 714 603 l 2,101,102
 714 578 714 578 696.5 561 c 128,-1,103
 679 544 679 544 655 544 c 2,104,-1
 548 544 l 2,105,106
 541 544 541 544 541 536 c 2,107,-1
 541 505 l 2,68,69
159 36 m 2,108,109
 159 29 159 29 166 29 c 2,110,-1
 858 29 l 2,111,112
 865 29 865 29 865 36 c 2,113,-1
 865 743 l 2,114,115
 865 751 865 751 858 751 c 2,116,-1
 166 751 l 2,117,118
 159 751 159 751 159 743 c 2,119,-1
 159 36 l 2,108,109
88 756 m 2,120,121
 88 781 88 781 105.5 798 c 128,-1,122
 123 815 123 815 147 815 c 2,123,-1
 879 815 l 2,124,125
 903 815 903 815 920.5 798 c 128,-1,126
 938 781 938 781 938 756 c 2,127,-1
 938 -40 l 2,128,129
 938 -56 938 -56 927.5 -66.5 c 128,-1,130
 917 -77 917 -77 902 -77 c 2,131,-1
 901 -77 l 2,132,133
 886 -77 886 -77 875.5 -66.5 c 128,-1,134
 865 -56 865 -56 865 -41 c 0,135,136
 865 -37 865 -37 861 -37 c 2,137,-1
 163 -37 l 2,138,139
 159 -37 159 -37 159 -41 c 0,140,141
 159 -56 159 -56 148.5 -66.5 c 128,-1,142
 138 -77 138 -77 123.5 -77 c 128,-1,143
 109 -77 109 -77 98.5 -66.5 c 128,-1,144
 88 -56 88 -56 88 -41 c 2,145,-1
 88 756 l 2,120,121
EndSplineSet
EndChar

StartChar: cid13704
Encoding: 22312 22312 29
Width: 1024
Flags: W
LayerCount: 2
Fore
SplineSet
695 305 m 2,0,1
 687 305 687 305 687 298 c 2,2,-1
 687 25 l 2,3,4
 687 17 687 17 695 17 c 2,5,-1
 922 17 l 2,6,7
 936 17 936 17 946.5 6.5 c 128,-1,8
 957 -4 957 -4 957 -18.5 c 128,-1,9
 957 -33 957 -33 946.5 -43.5 c 128,-1,10
 936 -54 936 -54 922 -54 c 2,11,-1
 378 -54 l 2,12,13
 363 -54 363 -54 352.5 -43.5 c 128,-1,14
 342 -33 342 -33 342 -18.5 c 128,-1,15
 342 -4 342 -4 352.5 6.5 c 128,-1,16
 363 17 363 17 378 17 c 2,17,-1
 604 17 l 2,18,19
 611 17 611 17 611 25 c 2,20,-1
 611 298 l 2,21,22
 611 305 611 305 604 305 c 2,23,-1
 418 305 l 2,24,25
 403 305 403 305 392.5 315.5 c 128,-1,26
 382 326 382 326 382 341 c 128,-1,27
 382 356 382 356 392.5 366.5 c 128,-1,28
 403 377 403 377 418 377 c 2,29,-1
 604 377 l 2,30,31
 611 377 611 377 611 384 c 2,32,-1
 611 535 l 2,33,34
 611 550 611 550 622.5 561 c 128,-1,35
 634 572 634 572 649.5 572 c 128,-1,36
 665 572 665 572 676 561 c 128,-1,37
 687 550 687 550 687 535 c 2,38,-1
 687 384 l 2,39,40
 687 377 687 377 695 377 c 2,41,-1
 882 377 l 2,42,43
 897 377 897 377 907.5 366.5 c 128,-1,44
 918 356 918 356 918 341 c 128,-1,45
 918 326 918 326 907.5 315.5 c 128,-1,46
 897 305 897 305 882 305 c 2,47,-1
 695 305 l 2,0,1
433 705 m 0,48,49
 432 703 432 703 433.5 700.5 c 128,-1,50
 435 698 435 698 438 698 c 2,51,-1
 921 698 l 2,52,53
 936 698 936 698 946.5 687.5 c 128,-1,54
 957 677 957 677 957 662 c 128,-1,55
 957 647 957 647 946.5 636.5 c 128,-1,56
 936 626 936 626 921 626 c 2,57,-1
 407 626 l 2,58,59
 399 626 399 626 396 619 c 0,60,61
 342 508 342 508 280 423 c 0,62,63
 275 417 275 417 275 409 c 2,64,-1
 275 -37 l 2,65,66
 275 -53 275 -53 264.5 -64 c 128,-1,67
 254 -75 254 -75 238.5 -75 c 128,-1,68
 223 -75 223 -75 212 -64 c 128,-1,69
 201 -53 201 -53 201 -37 c 2,70,-1
 201 319 l 2,71,72
 201 321 201 321 199 322 c 128,-1,73
 197 323 197 323 196 321 c 0,74,75
 159 283 159 283 114 247 c 0,76,77
 101 238 101 238 86.5 241.5 c 128,-1,78
 72 245 72 245 65 259 c 0,79,80
 58 269 58 269 58 281 c 0,81,82
 58 285 58 285 59 289 c 0,83,84
 62 305 62 305 74 316 c 0,85,86
 216 429 216 429 310 619 c 0,87,88
 311 621 311 621 309.5 623.5 c 128,-1,89
 308 626 308 626 306 626 c 2,90,-1
 104 626 l 2,91,92
 89 626 89 626 78.5 636.5 c 128,-1,93
 68 647 68 647 68 662 c 128,-1,94
 68 677 68 677 78.5 687.5 c 128,-1,95
 89 698 89 698 104 698 c 2,96,-1
 340 698 l 2,97,98
 347 698 347 698 350 705 c 0,99,100
 372 761 372 761 390 819 c 0,101,102
 395 835 395 835 410 843 c 0,103,104
 419 849 419 849 430 849 c 0,105,106
 435 849 435 849 440 847 c 0,107,108
 456 843 456 843 464 829 c 128,-1,109
 472 815 472 815 467 799 c 0,110,111
 454 757 454 757 433 705 c 0,48,49
EndSplineSet
EndChar

StartChar: cid13713
Encoding: 22320 22320 30
Width: 1024
Flags: W
LayerCount: 2
Fore
SplineSet
256 540 m 2,0,1
 249 540 249 540 249 532 c 2,2,-1
 249 251 l 2,3,4
 249 249 249 249 251 247.5 c 128,-1,5
 253 246 253 246 256 247 c 0,6,7
 315 273 315 273 333 280 c 0,8,9
 346 285 346 285 358 278.5 c 128,-1,10
 370 272 370 272 373 259 c 0,11,12
 377 244 377 244 370 230.5 c 128,-1,13
 363 217 363 217 350 211 c 0,14,15
 274 176 274 176 104 100 c 0,16,17
 89 94 89 94 73.5 100 c 128,-1,18
 58 106 58 106 52 121.5 c 128,-1,19
 46 137 46 137 52.5 152.5 c 128,-1,20
 59 168 59 168 75 174 c 0,21,22
 118 190 118 190 170 212 c 0,23,24
 177 215 177 215 177 223 c 2,25,-1
 177 532 l 2,26,27
 177 540 177 540 170 540 c 2,28,-1
 82 540 l 2,29,30
 67 540 67 540 56.5 550.5 c 128,-1,31
 46 561 46 561 46 576 c 128,-1,32
 46 591 46 591 56.5 601.5 c 128,-1,33
 67 612 67 612 82 612 c 2,34,-1
 170 612 l 2,35,36
 177 612 177 612 177 620 c 2,37,-1
 177 809 l 2,38,39
 177 824 177 824 187.5 834.5 c 128,-1,40
 198 845 198 845 213 845 c 128,-1,41
 228 845 228 845 238.5 834.5 c 128,-1,42
 249 824 249 824 249 809 c 2,43,-1
 249 620 l 2,44,45
 249 612 249 612 256 612 c 2,46,-1
 332 612 l 2,47,48
 347 612 347 612 358 601.5 c 128,-1,49
 369 591 369 591 369 576 c 128,-1,50
 369 561 369 561 358 550.5 c 128,-1,51
 347 540 347 540 332 540 c 2,52,-1
 256 540 l 2,0,1
592 13 m 2,53,-1
 839 13 l 2,54,55
 878 13 878 13 892.5 34.5 c 128,-1,56
 907 56 907 56 913 121 c 0,57,58
 914 134 914 134 925 140 c 128,-1,59
 936 146 936 146 948 141 c 0,60,61
 964 134 964 134 973 120 c 0,62,63
 980 109 980 109 980 97 c 0,64,65
 980 94 980 94 980 92 c 0,66,67
 970 7 970 7 941 -24 c 128,-1,68
 912 -55 912 -55 841 -55 c 2,69,-1
 590 -55 l 2,70,71
 502 -55 502 -55 470.5 -27 c 128,-1,72
 439 1 439 1 439 82 c 2,73,-1
 439 397 l 2,74,75
 439 400 439 400 437 401.5 c 128,-1,76
 435 403 435 403 432 402 c 2,77,-1
 392 385 l 2,78,79
 378 379 378 379 364 384.5 c 128,-1,80
 350 390 350 390 344 403 c 0,81,82
 340 411 340 411 340 418 c 0,83,84
 340 424 340 424 343 431 c 0,85,86
 348 445 348 445 362 450 c 2,87,-1
 432 480 l 2,88,89
 439 483 439 483 439 491 c 2,90,-1
 439 726 l 2,91,92
 439 741 439 741 450 751.5 c 128,-1,93
 461 762 461 762 476 762 c 128,-1,94
 491 762 491 762 501.5 751.5 c 128,-1,95
 512 741 512 741 512 726 c 2,96,-1
 512 522 l 2,97,98
 512 519 512 519 514 517.5 c 128,-1,99
 516 516 516 516 519 517 c 2,100,-1
 642 569 l 2,101,102
 649 572 649 572 649 580 c 2,103,-1
 649 821 l 2,104,105
 649 836 649 836 660 846.5 c 128,-1,106
 671 857 671 857 686 857 c 128,-1,107
 701 857 701 857 711.5 846.5 c 128,-1,108
 722 836 722 836 722 821 c 2,109,-1
 722 610 l 2,110,111
 722 607 722 607 724 605.5 c 128,-1,112
 726 604 726 604 729 605 c 2,113,-1
 853 658 l 2,114,115
 857 659 857 659 860 662 c 2,116,-1
 866 667 l 2,117,118
 879 679 879 679 895 679 c 0,119,120
 904 679 904 679 914 675 c 2,121,-1
 929 669 l 2,122,123
 941 665 941 665 937 652 c 0,124,125
 937 650 937 650 937 649 c 0,126,127
 937 316 937 316 927 267 c 0,128,129
 920 212 920 212 872 200 c 0,130,131
 850 194 850 194 810 193 c 0,132,133
 796 192 796 192 784.5 201.5 c 128,-1,134
 773 211 773 211 769 226 c 0,135,136
 766 238 766 238 773 247.5 c 128,-1,137
 780 257 780 257 792 257 c 0,138,139
 807 257 807 257 826 257 c 0,140,141
 839 257 839 257 846 262.5 c 128,-1,142
 853 268 853 268 857 284 c 0,143,144
 864 318 864 318 864 577 c 0,145,146
 864 580 864 580 862 581.5 c 128,-1,147
 860 583 860 583 857 582 c 2,148,-1
 729 527 l 2,149,150
 722 524 722 524 722 517 c 2,151,-1
 722 185 l 2,152,153
 722 170 722 170 711.5 159 c 128,-1,154
 701 148 701 148 686 148 c 128,-1,155
 671 148 671 148 660 159 c 128,-1,156
 649 170 649 170 649 185 c 2,157,-1
 649 486 l 2,158,159
 649 489 649 489 647 490.5 c 128,-1,160
 645 492 645 492 642 491 c 2,161,-1
 519 438 l 2,162,163
 512 435 512 435 512 428 c 2,164,-1
 512 81 l 2,165,166
 512 40 512 40 527 26.5 c 128,-1,167
 542 13 542 13 592 13 c 2,53,-1
EndSplineSet
EndChar

StartChar: cid13847
Encoding: 22411 22411 31
Width: 1024
Flags: W
LayerCount: 2
Fore
SplineSet
875 850 m 128,-1,1
 890 850 890 850 900.5 839.5 c 128,-1,2
 911 829 911 829 911 814 c 2,3,-1
 911 394 l 2,4,5
 911 362 911 362 903 346 c 128,-1,6
 895 330 895 330 872 321 c 0,7,8
 842 309 842 309 757 308 c 0,9,10
 741 308 741 308 728.5 318 c 128,-1,11
 716 328 716 328 710 344 c 0,12,13
 705 356 705 356 712 366.5 c 128,-1,14
 719 377 719 377 732 377 c 0,15,16
 757 376 757 376 775 376 c 0,17,18
 807 376 807 376 819 378 c 0,19,20
 831 378 831 378 835 381.5 c 128,-1,21
 839 385 839 385 839 396 c 2,22,-1
 839 814 l 2,23,24
 839 829 839 829 849.5 839.5 c 128,-1,0
 860 850 860 850 875 850 c 128,-1,1
684.5 799 m 128,-1,26
 699 799 699 799 709.5 788.5 c 128,-1,27
 720 778 720 778 720 763 c 2,28,-1
 720 493 l 2,29,30
 720 478 720 478 709.5 468 c 128,-1,31
 699 458 699 458 684.5 458 c 128,-1,32
 670 458 670 458 659.5 468 c 128,-1,33
 649 478 649 478 649 493 c 2,34,-1
 649 763 l 2,35,36
 649 778 649 778 659.5 788.5 c 128,-1,25
 670 799 670 799 684.5 799 c 128,-1,26
272 615 m 2,37,38
 272 607 272 607 280 607 c 2,39,-1
 391 607 l 2,40,41
 398 607 398 607 398 615 c 2,42,-1
 398 740 l 2,43,44
 398 748 398 748 391 748 c 2,45,-1
 280 748 l 2,46,47
 272 748 272 748 272 740 c 2,48,-1
 272 615 l 2,37,38
398 532 m 2,49,50
 398 540 398 540 391 540 c 2,51,-1
 275 540 l 2,52,53
 267 540 267 540 266 532 c 0,54,55
 245 395 245 395 144 316 c 0,56,57
 131 307 131 307 116 309 c 128,-1,58
 101 311 101 311 90 323 c 0,59,60
 81 333 81 333 82 346.5 c 128,-1,61
 83 360 83 360 94 369 c 0,62,63
 175 431 175 431 195 532 c 0,64,65
 197 540 197 540 189 540 c 2,66,-1
 106 540 l 2,67,68
 92 540 92 540 82.5 549.5 c 128,-1,69
 73 559 73 559 73 573 c 128,-1,70
 73 587 73 587 82.5 597 c 128,-1,71
 92 607 92 607 106 607 c 2,72,-1
 194 607 l 2,73,74
 202 607 202 607 202 615 c 2,75,-1
 202 740 l 2,76,77
 202 748 202 748 194 748 c 2,78,-1
 140 748 l 2,79,80
 126 748 126 748 116 757.5 c 128,-1,81
 106 767 106 767 106 781 c 128,-1,82
 106 795 106 795 116 805 c 128,-1,83
 126 815 126 815 140 815 c 2,84,-1
 531 815 l 2,85,86
 545 815 545 815 555 805 c 128,-1,87
 565 795 565 795 565 781 c 128,-1,88
 565 767 565 767 555 757.5 c 128,-1,89
 545 748 545 748 531 748 c 2,90,-1
 478 748 l 2,91,92
 470 748 470 748 470 740 c 2,93,-1
 470 615 l 2,94,95
 470 607 470 607 478 607 c 2,96,-1
 552 607 l 2,97,98
 566 607 566 607 576 597 c 128,-1,99
 586 587 586 587 586 573 c 128,-1,100
 586 559 586 559 576 549.5 c 128,-1,101
 566 540 566 540 552 540 c 2,102,-1
 478 540 l 2,103,104
 470 540 470 540 470 532 c 2,105,-1
 470 356 l 2,106,107
 470 342 470 342 459.5 331.5 c 128,-1,108
 449 321 449 321 434 321 c 128,-1,109
 419 321 419 321 408.5 331.5 c 128,-1,110
 398 342 398 342 398 356 c 2,111,-1
 398 532 l 2,49,50
556 35 m 2,112,113
 556 28 556 28 564 28 c 2,114,-1
 936 28 l 2,115,116
 951 28 951 28 961.5 17.5 c 128,-1,117
 972 7 972 7 972 -8 c 128,-1,118
 972 -23 972 -23 961.5 -33.5 c 128,-1,119
 951 -44 951 -44 936 -44 c 2,120,-1
 88 -44 l 2,121,122
 73 -44 73 -44 62.5 -33.5 c 128,-1,123
 52 -23 52 -23 52 -8 c 128,-1,124
 52 7 52 7 62.5 17.5 c 128,-1,125
 73 28 73 28 88 28 c 2,126,-1
 472 28 l 2,127,128
 479 28 479 28 479 35 c 2,129,-1
 479 149 l 2,130,131
 479 157 479 157 472 157 c 2,132,-1
 193 157 l 2,133,134
 178 157 178 157 168 167 c 128,-1,135
 158 177 158 177 158 191.5 c 128,-1,136
 158 206 158 206 168 216 c 128,-1,137
 178 226 178 226 193 226 c 2,138,-1
 472 226 l 2,139,140
 479 226 479 226 479 234 c 2,141,-1
 479 303 l 2,142,143
 479 318 479 318 490.5 329.5 c 128,-1,144
 502 341 502 341 518 341 c 128,-1,145
 534 341 534 341 545 329.5 c 128,-1,146
 556 318 556 318 556 303 c 2,147,-1
 556 234 l 2,148,149
 556 226 556 226 564 226 c 2,150,-1
 830 226 l 2,151,152
 845 226 845 226 855 216 c 128,-1,153
 865 206 865 206 865 191.5 c 128,-1,154
 865 177 865 177 855 167 c 128,-1,155
 845 157 845 157 830 157 c 2,156,-1
 564 157 l 2,157,158
 556 157 556 157 556 149 c 2,159,-1
 556 35 l 2,112,113
EndSplineSet
EndChar

StartChar: cid14254
Encoding: 22659 22659 32
Width: 1024
Flags: W
LayerCount: 2
Fore
SplineSet
784 708 m 0,0,1
 785 710 785 710 783.5 712.5 c 128,-1,2
 782 715 782 715 779 715 c 2,3,-1
 557 715 l 2,4,5
 555 715 555 715 553.5 712.5 c 128,-1,6
 552 710 552 710 554 708 c 0,7,8
 570 680 570 680 583 645 c 0,9,10
 588 630 588 630 580 616 c 128,-1,11
 572 602 572 602 557 598 c 0,12,13
 556 598 556 598 556.5 597.5 c 128,-1,14
 557 597 557 597 557 597 c 1,15,-1
 765 597 l 2,16,17
 766 597 766 597 766 597.5 c 128,-1,18
 766 598 766 598 765 598 c 0,19,20
 755 601 755 601 750 611 c 128,-1,21
 745 621 745 621 750 631 c 0,22,23
 770 673 770 673 784 708 c 0,0,1
334 288 m 0,24,25
 346 294 346 294 358.5 288 c 128,-1,26
 371 282 371 282 374 269 c 0,27,28
 377 254 377 254 370.5 240 c 128,-1,29
 364 226 364 226 350 219 c 2,30,-1
 102 101 l 2,31,32
 87 94 87 94 72 100.5 c 128,-1,33
 57 107 57 107 52 122 c 0,34,35
 49 129 49 129 49 136 c 0,36,37
 49 144 49 144 53 153 c 0,38,39
 60 168 60 168 75 174 c 0,40,41
 103 186 103 186 169 214 c 0,42,43
 176 217 176 217 176 225 c 2,44,-1
 176 529 l 2,45,46
 176 537 176 537 169 537 c 2,47,-1
 93 537 l 2,48,49
 78 537 78 537 67.5 547.5 c 128,-1,50
 57 558 57 558 57 572.5 c 128,-1,51
 57 587 57 587 67.5 597.5 c 128,-1,52
 78 608 78 608 93 608 c 2,53,-1
 169 608 l 2,54,55
 176 608 176 608 176 616 c 2,56,-1
 176 810 l 2,57,58
 176 825 176 825 186.5 835.5 c 128,-1,59
 197 846 197 846 211.5 846 c 128,-1,60
 226 846 226 846 236.5 835.5 c 128,-1,61
 247 825 247 825 247 810 c 2,62,-1
 247 616 l 2,63,64
 247 608 247 608 254 608 c 2,65,-1
 344 608 l 2,66,67
 354 608 354 608 354 598 c 0,68,69
 354 597 354 597 356 597 c 2,70,-1
 517 597 l 2,71,72
 520 597 520 597 521.5 599 c 128,-1,73
 523 601 523 601 522 604 c 0,74,75
 516 631 516 631 503 662 c 0,76,77
 500 670 500 670 500 677 c 0,78,79
 500 686 500 686 503 694 c 0,80,81
 511 709 511 709 527 713 c 1,82,83
 527 713 527 713 527 714 c 128,-1,84
 527 715 527 715 527 715 c 1,85,-1
 417 715 l 2,86,87
 404 715 404 715 395 724 c 128,-1,88
 386 733 386 733 386 746 c 128,-1,89
 386 759 386 759 395 768 c 128,-1,90
 404 777 404 777 417 777 c 2,91,-1
 619 777 l 2,92,93
 627 777 627 777 627 785 c 2,94,-1
 627 818 l 2,95,96
 627 833 627 833 637.5 844 c 128,-1,97
 648 855 648 855 663.5 855 c 128,-1,98
 679 855 679 855 689.5 844 c 128,-1,99
 700 833 700 833 700 818 c 2,100,-1
 700 785 l 2,101,102
 700 777 700 777 708 777 c 2,103,-1
 924 777 l 2,104,105
 937 777 937 777 946 768 c 128,-1,106
 955 759 955 759 955 746 c 128,-1,107
 955 733 955 733 946 724 c 128,-1,108
 937 715 937 715 924 715 c 2,109,-1
 811 715 l 1,110,111
 811 715 811 715 811 714 c 128,-1,112
 811 713 811 713 811 713 c 1,113,114
 830 709 830 709 838 691 c 0,115,116
 842 682 842 682 842 674 c 0,117,118
 842 665 842 665 838 656 c 0,119,120
 820 621 820 621 810 603 c 0,121,122
 808 601 808 601 809.5 599 c 128,-1,123
 811 597 811 597 813 597 c 2,124,-1
 947 597 l 2,125,126
 960 597 960 597 969.5 587.5 c 128,-1,127
 979 578 979 578 979 565 c 128,-1,128
 979 552 979 552 969.5 543 c 128,-1,129
 960 534 960 534 947 534 c 2,130,-1
 355 534 l 2,131,132
 352 534 352 534 352 536 c 2,133,-1
 352 537 l 1,134,-1
 254 537 l 2,135,136
 247 537 247 537 247 529 c 2,137,-1
 247 256 l 2,138,139
 247 254 247 254 249 252.5 c 128,-1,140
 251 251 251 251 254 252 c 0,141,142
 286 266 286 266 334 288 c 0,24,25
504 302 m 2,143,144
 497 302 497 302 497 295 c 2,145,-1
 497 234 l 2,146,147
 497 226 497 226 504 226 c 2,148,-1
 839 226 l 2,149,150
 847 226 847 226 847 234 c 2,151,-1
 847 295 l 2,152,153
 847 302 847 302 839 302 c 2,154,-1
 504 302 l 2,143,144
504 428 m 2,155,156
 497 428 497 428 497 421 c 2,157,-1
 497 360 l 2,158,159
 497 352 497 352 504 352 c 2,160,-1
 839 352 l 2,161,162
 847 352 847 352 847 360 c 2,163,-1
 847 421 l 2,164,165
 847 428 847 428 839 428 c 2,166,-1
 504 428 l 2,155,156
810 -6 m 2,167,-1
 892 -6 l 2,168,169
 908 -6 908 -6 913.5 6.5 c 128,-1,170
 919 19 919 19 921 61 c 0,171,172
 922 73 922 73 932.5 79 c 128,-1,173
 943 85 943 85 954 80 c 0,174,175
 968 74 968 74 977 62 c 0,176,177
 984 51 984 51 984 39 c 0,178,179
 984 -19 984 -19 959 -49 c 0,180,181
 941 -71 941 -71 900 -71 c 2,182,-1
 801 -71 l 2,183,184
 745 -71 745 -71 727 -52.5 c 128,-1,185
 709 -34 709 -34 709 19 c 2,186,-1
 709 166 l 2,187,188
 709 173 709 173 701 173 c 2,189,-1
 610 173 l 2,190,191
 602 173 602 173 601 166 c 0,192,193
 581 76 581 76 527.5 20 c 128,-1,194
 474 -36 474 -36 364 -69 c 0,195,196
 357 -71 357 -71 351 -71 c 0,197,198
 342 -71 342 -71 333 -67 c 0,199,200
 317 -60 317 -60 308 -45 c 0,201,202
 303 -39 303 -39 303 -31 c 0,203,204
 303 -27 303 -27 305 -22 c 0,205,206
 309 -10 309 -10 321 -7 c 0,207,208
 417 18 417 18 462.5 59 c 128,-1,209
 508 100 508 100 526 166 c 0,210,211
 526 168 526 168 524.5 170.5 c 128,-1,212
 523 173 523 173 520 173 c 2,213,-1
 484 173 l 2,214,215
 460 173 460 173 442.5 190.5 c 128,-1,216
 425 208 425 208 425 232 c 2,217,-1
 425 422 l 2,218,219
 425 447 425 447 442.5 464 c 128,-1,220
 460 481 460 481 484 481 c 2,221,-1
 863 481 l 2,222,223
 887 481 887 481 904.5 464 c 128,-1,224
 922 447 922 447 922 422 c 2,225,-1
 922 232 l 2,226,227
 922 208 922 208 904.5 190.5 c 128,-1,228
 887 173 887 173 863 173 c 2,229,-1
 789 173 l 2,230,231
 781 173 781 173 781 166 c 2,232,-1
 781 20 l 2,233,234
 781 4 781 4 786.5 -1 c 128,-1,235
 792 -6 792 -6 810 -6 c 2,167,-1
EndSplineSet
EndChar

StartChar: uni5927
Encoding: 22823 22823 33
Width: 1024
Flags: W
LayerCount: 2
Fore
SplineSet
962 548 m 128,-1,1
 962 532 962 532 950.5 520.5 c 128,-1,2
 939 509 939 509 923 509 c 2,3,-1
 582 509 l 2,4,5
 580 509 580 509 578 506.5 c 128,-1,6
 576 504 576 504 577 502 c 0,7,8
 633 330 633 330 733 205 c 0,9,10
 820 96 820 96 936 37 c 0,11,12
 951 30 951 30 954 13.5 c 128,-1,13
 957 -3 957 -3 947 -16 c 0,14,15
 934 -32 934 -32 916 -37 c 0,16,17
 909 -39 909 -39 903 -39 c 0,18,19
 891 -39 891 -39 880 -33 c 0,20,21
 637 104 637 104 515 446 c 0,22,23
 515 447 515 447 513.5 447 c 128,-1,24
 512 447 512 447 511 446 c 0,25,26
 426 113 426 113 143 -35 c 0,27,28
 132 -40 132 -40 122 -40 c 0,29,30
 116 -40 116 -40 109 -38 c 0,31,32
 92 -33 92 -33 79 -19 c 0,33,34
 70 -8 70 -8 71.5 6.5 c 128,-1,35
 73 21 73 21 86 27 c 0,36,37
 369 170 369 170 443 502 c 0,38,39
 445 509 445 509 438 509 c 2,40,-1
 107 509 l 2,41,42
 91 509 91 509 79.5 520.5 c 128,-1,43
 68 532 68 532 68 548 c 128,-1,44
 68 564 68 564 79.5 575.5 c 128,-1,45
 91 587 91 587 107 587 c 2,46,-1
 450 587 l 2,47,48
 458 587 458 587 459 594 c 0,49,50
 470 675 470 675 472 837 c 0,51,52
 473 854 473 854 485 866 c 128,-1,53
 497 878 497 878 514 878 c 128,-1,54
 531 878 531 878 543 866 c 0,55,56
 554 854 554 854 554 838 c 0,57,58
 554 710 554 710 540 594 c 0,59,60
 539 587 539 587 546 587 c 2,61,-1
 923 587 l 2,62,63
 939 587 939 587 950.5 575.5 c 128,-1,0
 962 564 962 564 962 548 c 128,-1,1
EndSplineSet
EndChar

StartChar: cid15955
Encoding: 23460 23460 34
Width: 1024
Flags: W
LayerCount: 2
Fore
SplineSet
156 710 m 2,0,1
 148 710 148 710 148 702 c 2,2,-1
 148 628 l 2,3,4
 148 613 148 613 137.5 602.5 c 128,-1,5
 127 592 127 592 112 592 c 128,-1,6
 97 592 97 592 86.5 602.5 c 128,-1,7
 76 613 76 613 76 628 c 2,8,-1
 76 721 l 2,9,10
 76 746 76 746 93 763 c 128,-1,11
 110 780 110 780 135 780 c 2,12,-1
 464 780 l 2,13,14
 471 780 471 780 471 788 c 2,15,-1
 471 818 l 2,16,17
 471 834 471 834 482.5 845 c 128,-1,18
 494 856 494 856 509.5 856 c 128,-1,19
 525 856 525 856 536.5 845 c 128,-1,20
 548 834 548 834 548 818 c 2,21,-1
 548 788 l 2,22,23
 548 780 548 780 555 780 c 2,24,-1
 892 780 l 2,25,26
 917 780 917 780 934 763 c 128,-1,27
 951 746 951 746 951 721 c 2,28,-1
 951 630 l 2,29,30
 951 614 951 614 940 603 c 128,-1,31
 929 592 929 592 913.5 592 c 128,-1,32
 898 592 898 592 887 603 c 128,-1,33
 876 614 876 614 876 630 c 2,34,-1
 876 702 l 2,35,36
 876 710 876 710 868 710 c 2,37,-1
 156 710 l 2,0,1
548 27 m 2,38,39
 548 19 548 19 555 19 c 2,40,-1
 930 19 l 2,41,42
 945 19 945 19 955 9 c 128,-1,43
 965 -1 965 -1 965 -15 c 128,-1,44
 965 -29 965 -29 955 -39 c 128,-1,45
 945 -49 945 -49 930 -49 c 2,46,-1
 98 -49 l 2,47,48
 84 -49 84 -49 73.5 -39 c 128,-1,49
 63 -29 63 -29 63 -15 c 128,-1,50
 63 -1 63 -1 73.5 9 c 128,-1,51
 84 19 84 19 98 19 c 2,52,-1
 464 19 l 2,53,54
 471 19 471 19 471 27 c 2,55,-1
 471 140 l 2,56,57
 471 147 471 147 464 147 c 2,58,-1
 190 147 l 2,59,60
 176 147 176 147 166.5 157 c 128,-1,61
 157 167 157 167 157 181 c 128,-1,62
 157 195 157 195 166.5 205 c 128,-1,63
 176 215 176 215 190 215 c 2,64,-1
 464 215 l 2,65,66
 471 215 471 215 471 223 c 2,67,-1
 471 322 l 2,68,69
 471 330 471 330 464 329 c 0,70,71
 405 328 405 328 308 325 c 128,-1,72
 211 322 211 322 177 321 c 0,73,74
 163 320 163 320 152 330 c 128,-1,75
 141 340 141 340 140 354 c 0,76,77
 139 369 139 369 149 379.5 c 128,-1,78
 159 390 159 390 173 390 c 0,79,80
 181 390 181 390 216.5 390.5 c 128,-1,81
 252 391 252 391 273 391 c 0,82,83
 281 391 281 391 285 397 c 0,84,85
 327 461 327 461 364 533 c 0,86,87
 365 535 365 535 364 537.5 c 128,-1,88
 363 540 363 540 360 540 c 2,89,-1
 213 540 l 2,90,91
 199 540 199 540 189 549.5 c 128,-1,92
 179 559 179 559 179 573 c 128,-1,93
 179 587 179 587 189 597 c 128,-1,94
 199 607 199 607 213 607 c 2,95,-1
 818 607 l 2,96,97
 832 607 832 607 842 597 c 128,-1,98
 852 587 852 587 852 573 c 128,-1,99
 852 559 852 559 842 549.5 c 128,-1,100
 832 540 832 540 818 540 c 2,101,-1
 462 540 l 2,102,103
 455 540 455 540 451 533 c 0,104,105
 406 459 406 459 365 399 c 0,106,107
 363 397 363 397 364.5 395 c 128,-1,108
 366 393 366 393 368 393 c 0,109,110
 666 401 666 401 725 403 c 0,111,112
 727 403 727 403 727.5 405 c 128,-1,113
 728 407 728 407 726 408 c 0,114,115
 693 435 693 435 657 461 c 0,116,117
 647 468 647 468 647 480 c 128,-1,118
 647 492 647 492 657 499 c 0,119,120
 671 509 671 509 685 509 c 0,121,122
 698 509 698 509 712 500 c 0,123,124
 825 424 825 424 898 348 c 0,125,126
 908 338 908 338 906.5 323.5 c 128,-1,127
 905 309 905 309 893 300 c 256,128,129
 881 291 881 291 866 292.5 c 128,-1,130
 851 294 851 294 840 305 c 0,131,132
 826 321 826 321 809 336 c 0,133,134
 804 341 804 341 796 341 c 0,135,136
 642 335 642 335 555 333 c 0,137,138
 548 333 548 333 548 325 c 2,139,-1
 548 223 l 2,140,141
 548 215 548 215 555 215 c 2,142,-1
 842 215 l 2,143,144
 856 215 856 215 866 205 c 128,-1,145
 876 195 876 195 876 181 c 128,-1,146
 876 167 876 167 866 157 c 128,-1,147
 856 147 856 147 842 147 c 2,148,-1
 555 147 l 2,149,150
 548 147 548 147 548 140 c 2,151,-1
 548 27 l 2,38,39
EndSplineSet
EndChar

StartChar: cid15994
Encoding: 23478 23478 35
Width: 1024
Flags: W
LayerCount: 2
Fore
SplineSet
174 695 m 2,0,1
 167 695 167 695 167 688 c 2,2,-1
 167 602 l 2,3,4
 167 586 167 586 156 575 c 128,-1,5
 145 564 145 564 129.5 564 c 128,-1,6
 114 564 114 564 103 575 c 128,-1,7
 92 586 92 586 92 602 c 2,8,-1
 92 707 l 2,9,10
 92 731 92 731 109.5 748.5 c 128,-1,11
 127 766 127 766 151 766 c 2,12,-1
 466 766 l 2,13,14
 473 766 473 766 473 773 c 2,15,-1
 473 818 l 2,16,17
 473 834 473 834 484 845 c 128,-1,18
 495 856 495 856 511 856 c 128,-1,19
 527 856 527 856 538 845 c 128,-1,20
 549 834 549 834 549 818 c 2,21,-1
 549 773 l 2,22,23
 549 766 549 766 556 766 c 2,24,-1
 879 766 l 2,25,26
 903 766 903 766 920.5 748.5 c 128,-1,27
 938 731 938 731 938 707 c 2,28,-1
 938 603 l 2,29,30
 938 587 938 587 926.5 575.5 c 128,-1,31
 915 564 915 564 899 564 c 128,-1,32
 883 564 883 564 871.5 575.5 c 128,-1,33
 860 587 860 587 860 603 c 2,34,-1
 860 688 l 2,35,36
 860 695 860 695 853 695 c 2,37,-1
 174 695 l 2,0,1
837 468 m 0,38,39
 850 478 850 478 866.5 478 c 128,-1,40
 883 478 883 478 895 467 c 0,41,42
 907 458 907 458 907 443 c 128,-1,43
 907 428 907 428 895 418 c 0,44,45
 820 361 820 361 719 302 c 0,46,47
 713 298 713 298 717 292 c 0,48,49
 807 149 807 149 937 85 c 0,50,51
 951 78 951 78 954 63 c 0,52,53
 955 59 955 59 955 56 c 0,54,55
 955 45 955 45 948 36 c 0,56,57
 936 22 936 22 919 17 c 0,58,59
 913 16 913 16 907 16 c 0,60,61
 896 16 896 16 886 21 c 0,62,63
 646 154 646 154 548 526 c 0,64,65
 548 527 548 527 547 527 c 128,-1,66
 546 527 546 527 545 527 c 0,67,68
 501 491 501 491 448 459 c 0,69,70
 441 456 441 456 447 451 c 0,71,72
 515 390 515 390 555 312 c 128,-1,73
 595 234 595 234 602 164 c 0,74,75
 604 144 604 144 604 124 c 0,76,77
 604 78 604 78 592 37 c 0,78,79
 576 -20 576 -20 539 -46 c 0,80,81
 514 -65 514 -65 490 -72.5 c 128,-1,82
 466 -80 466 -80 430 -80 c 0,83,84
 420 -80 420 -80 409 -80 c 0,85,86
 395 -80 395 -80 379 -79.5 c 128,-1,87
 363 -79 363 -79 351 -68 c 128,-1,88
 339 -57 339 -57 334 -40 c 0,89,90
 331 -28 331 -28 338 -18 c 128,-1,91
 345 -8 345 -8 358 -8 c 0,92,93
 387 -10 387 -10 415 -10 c 0,94,95
 462 -10 462 -10 485 9 c 0,96,97
 513 30 513 30 523 79 c 0,98,99
 528 101 528 101 528 126 c 0,100,101
 528 156 528 156 521 191 c 0,102,103
 520 194 520 194 517.5 195 c 128,-1,104
 515 196 515 196 513 194 c 0,105,106
 438 133 438 133 335 76 c 128,-1,107
 232 19 232 19 133 -18 c 0,108,109
 118 -24 118 -24 103 -18 c 128,-1,110
 88 -12 88 -12 79 2 c 0,111,112
 75 9 75 9 75 17 c 0,113,114
 75 22 75 22 76 26 c 0,115,116
 81 39 81 39 93 43 c 0,117,118
 202 78 202 78 312 137.5 c 128,-1,119
 422 197 422 197 491 260 c 0,120,121
 497 265 497 265 494 272 c 0,122,123
 483 297 483 297 465 324 c 0,124,125
 461 331 461 331 455 326 c 0,126,127
 334 239 334 239 168 173 c 0,128,129
 153 167 153 167 138.5 172 c 128,-1,130
 124 177 124 177 115 191 c 0,131,132
 108 201 108 201 112 213.5 c 128,-1,133
 116 226 116 226 128 230 c 0,134,135
 205 255 205 255 286 294 c 128,-1,136
 367 333 367 333 420 372 c 0,137,138
 426 377 426 377 421 382 c 0,139,140
 403 402 403 402 384 418 c 0,141,142
 379 423 379 423 372 420 c 0,143,144
 279 374 279 374 163 336 c 0,145,146
 148 332 148 332 133 337.5 c 128,-1,147
 118 343 118 343 108 356 c 0,148,149
 101 367 101 367 105 379 c 128,-1,150
 109 391 109 391 121 394 c 0,151,152
 313 446 313 446 435 523 c 0,153,154
 436 524 436 524 435.5 525.5 c 128,-1,155
 435 527 435 527 434 527 c 2,156,-1
 256 527 l 2,157,158
 242 527 242 527 232.5 537 c 128,-1,159
 223 547 223 547 223 560.5 c 128,-1,160
 223 574 223 574 232.5 583.5 c 128,-1,161
 242 593 242 593 256 593 c 2,162,-1
 763 593 l 2,163,164
 776 593 776 593 786 583.5 c 128,-1,165
 796 574 796 574 796 560.5 c 128,-1,166
 796 547 796 547 786 537 c 128,-1,167
 776 527 776 527 763 527 c 2,168,-1
 623 527 l 2,169,170
 620 527 620 527 618.5 525 c 128,-1,171
 617 523 617 523 617 520 c 0,172,173
 640 440 640 440 678 363 c 0,174,175
 681 356 681 356 687 360 c 0,176,177
 770 413 770 413 837 468 c 0,38,39
EndSplineSet
EndChar

StartChar: cid16247
Encoding: 23616 23616 36
Width: 1024
Flags: W
LayerCount: 2
Fore
SplineSet
635 236 m 2,0,1
 635 244 635 244 627 244 c 2,2,-1
 395 244 l 2,3,4
 387 244 387 244 387 236 c 2,5,-1
 387 113 l 2,6,7
 387 105 387 105 395 105 c 2,8,-1
 627 105 l 2,9,10
 635 105 635 105 635 113 c 2,11,-1
 635 236 l 2,0,1
706 102 m 2,12,13
 706 78 706 78 688.5 60.5 c 128,-1,14
 671 43 671 43 647 43 c 2,15,-1
 394 43 l 2,16,17
 387 43 387 43 387 36 c 2,18,-1
 387 18 l 2,19,20
 387 4 387 4 377 -6 c 128,-1,21
 367 -16 367 -16 352.5 -16 c 128,-1,22
 338 -16 338 -16 327.5 -6 c 128,-1,23
 317 4 317 4 317 18 c 2,24,-1
 317 247 l 2,25,26
 317 272 317 272 334.5 289 c 128,-1,27
 352 306 352 306 376 306 c 2,28,-1
 647 306 l 2,29,30
 671 306 671 306 688.5 289 c 128,-1,31
 706 272 706 272 706 247 c 2,32,-1
 706 102 l 2,12,13
785 730 m 2,33,34
 785 737 785 737 778 737 c 2,35,-1
 242 737 l 2,36,37
 234 737 234 737 234 730 c 2,38,-1
 234 616 l 2,39,40
 234 608 234 608 242 608 c 2,41,-1
 778 608 l 2,42,43
 785 608 785 608 785 616 c 2,44,-1
 785 730 l 2,33,34
232 461 m 0,45,46
 231 454 231 454 239 454 c 2,47,-1
 873 454 l 2,48,49
 897 454 897 454 914 436 c 0,50,51
 930 420 930 420 930 397 c 0,52,53
 930 327 930 327 916 157 c 0,54,55
 909 71 909 71 899.5 23.5 c 128,-1,56
 890 -24 890 -24 874 -42 c 0,57,58
 861 -59 861 -59 845.5 -65.5 c 128,-1,59
 830 -72 830 -72 805 -75 c 0,60,61
 784 -77 784 -77 753 -77 c 0,62,63
 732 -77 732 -77 706 -76 c 0,64,65
 690 -75 690 -75 678.5 -64 c 128,-1,66
 667 -53 667 -53 662 -37 c 0,67,68
 658 -25 658 -25 665 -15 c 128,-1,69
 672 -5 672 -5 684 -6 c 0,70,71
 732 -9 732 -9 771 -9 c 0,72,73
 796 -9 796 -9 808 5 c 0,74,75
 825 23 825 23 834.5 105 c 128,-1,76
 844 187 844 187 853 378 c 0,77,78
 853 386 853 386 845 386 c 2,79,-1
 235 386 l 2,80,81
 227 386 227 386 227 379 c 0,82,83
 203 131 203 131 114 -20 c 0,84,85
 107 -32 107 -32 92 -33.5 c 128,-1,86
 77 -35 77 -35 65 -26 c 0,87,88
 52 -16 52 -16 49 0 c 0,89,90
 48 4 48 4 48 9 c 0,91,92
 48 19 48 19 54 29 c 0,93,94
 87 86 87 86 109.5 156 c 128,-1,95
 132 226 132 226 142 300 c 128,-1,96
 152 374 152 374 155.5 432.5 c 128,-1,97
 159 491 159 491 159 561 c 2,98,-1
 159 744 l 2,99,100
 159 768 159 768 176 785.5 c 128,-1,101
 193 803 193 803 218 803 c 2,102,-1
 801 803 l 2,103,104
 826 803 826 803 843 785.5 c 128,-1,105
 860 768 860 768 860 744 c 2,106,-1
 860 601 l 2,107,108
 860 576 860 576 843 559 c 128,-1,109
 826 542 826 542 801 542 c 2,110,-1
 242 542 l 2,111,112
 235 542 235 542 234 534 c 0,113,114
 234 499 234 499 232 461 c 0,45,46
EndSplineSet
EndChar

StartChar: cid17357
Encoding: 24220 24220 37
Width: 1024
Flags: W
LayerCount: 2
Fore
SplineSet
390 615 m 0,0,1
 397 630 397 630 411.5 637.5 c 128,-1,2
 426 645 426 645 442 641 c 0,3,4
 457 637 457 637 464 623 c 128,-1,5
 471 609 471 609 464 595 c 0,6,7
 438 538 438 538 403 482 c 0,8,9
 399 475 399 475 399 468 c 2,10,-1
 399 -40 l 2,11,12
 399 -55 399 -55 388.5 -65.5 c 128,-1,13
 378 -76 378 -76 363.5 -76 c 128,-1,14
 349 -76 349 -76 338.5 -65.5 c 128,-1,15
 328 -55 328 -55 328 -40 c 2,16,-1
 328 366 l 2,17,18
 328 368 328 368 326 368.5 c 128,-1,19
 324 369 324 369 323 368 c 0,20,21
 294 332 294 332 260 300 c 0,22,23
 247 288 247 288 230 288 c 0,24,25
 228 288 228 288 226 289 c 0,26,27
 206 291 206 291 193 306 c 0,28,29
 191 307 191 307 189.5 306.5 c 128,-1,30
 188 306 188 306 188 304 c 0,31,32
 174 87 174 87 114 -46 c 0,33,34
 108 -60 108 -60 93.5 -63 c 128,-1,35
 79 -66 79 -66 67 -57 c 0,36,37
 54 -48 54 -48 49 -33 c 0,38,39
 47 -27 47 -27 47 -21 c 0,40,41
 47 -12 47 -12 51 -3 c 0,42,43
 93 91 93 91 106.5 208 c 128,-1,44
 120 325 120 325 120 461 c 2,45,-1
 120 683 l 2,46,47
 120 708 120 708 137 725 c 128,-1,48
 154 742 154 742 179 742 c 2,49,-1
 495 742 l 2,50,51
 503 742 503 742 503 750 c 2,52,-1
 503 817 l 2,53,54
 503 833 503 833 514.5 844.5 c 128,-1,55
 526 856 526 856 542 856 c 128,-1,56
 558 856 558 856 569.5 844.5 c 128,-1,57
 581 833 581 833 581 817 c 2,58,-1
 581 750 l 2,59,60
 581 742 581 742 588 742 c 2,61,-1
 934 742 l 2,62,63
 949 742 949 742 959.5 732 c 128,-1,64
 970 722 970 722 970 707 c 128,-1,65
 970 692 970 692 959.5 682 c 128,-1,66
 949 672 949 672 934 672 c 2,67,-1
 200 672 l 2,68,69
 193 672 193 672 193 664 c 2,70,-1
 193 461 l 2,71,72
 193 406 193 406 190 343 c 0,73,74
 190 341 190 341 192 340 c 128,-1,75
 194 339 194 339 195 341 c 0,76,77
 255 393 255 393 306.5 466 c 128,-1,78
 358 539 358 539 390 615 c 0,0,1
938 495 m 2,79,80
 952 495 952 495 962.5 484.5 c 128,-1,81
 973 474 973 474 973 459.5 c 128,-1,82
 973 445 973 445 962.5 435 c 128,-1,83
 952 425 952 425 938 425 c 2,84,-1
 860 425 l 2,85,86
 853 425 853 425 853 417 c 2,87,-1
 853 13 l 2,88,89
 853 -22 853 -22 843.5 -40 c 128,-1,90
 834 -58 834 -58 810 -67 c 0,91,92
 775 -80 775 -80 676 -80 c 0,93,94
 660 -80 660 -80 647 -69.5 c 128,-1,95
 634 -59 634 -59 629 -43 c 0,96,97
 624 -31 624 -31 631.5 -20 c 128,-1,98
 639 -9 639 -9 652 -9 c 0,99,100
 660 -9 660 -9 756 -9 c 0,101,102
 770 -8 770 -8 775 -3.5 c 128,-1,103
 780 1 780 1 780 14 c 2,104,-1
 780 417 l 2,105,106
 780 425 780 425 773 425 c 2,107,-1
 510 425 l 2,108,109
 496 425 496 425 485.5 435 c 128,-1,110
 475 445 475 445 475 459.5 c 128,-1,111
 475 474 475 474 485.5 484.5 c 128,-1,112
 496 495 496 495 510 495 c 2,113,-1
 773 495 l 2,114,115
 780 495 780 495 780 502 c 2,116,-1
 780 607 l 2,117,118
 780 622 780 622 791 632.5 c 128,-1,119
 802 643 802 643 817 643 c 128,-1,120
 832 643 832 643 842.5 632.5 c 128,-1,121
 853 622 853 622 853 607 c 2,122,-1
 853 502 l 2,123,124
 853 495 853 495 860 495 c 2,125,-1
 938 495 l 2,79,80
666 185 m 0,126,127
 670 178 670 178 670 170 c 0,128,129
 670 164 670 164 667 158 c 0,130,131
 662 144 662 144 648 137 c 0,132,133
 641 134 641 134 634 134 c 0,134,135
 628 134 628 134 621 136 c 0,136,137
 608 142 608 142 602 155 c 0,138,139
 570 225 570 225 519 300 c 0,140,141
 514 307 514 307 514 315 c 0,142,143
 514 318 514 318 515 322 c 0,144,145
 518 335 518 335 530 339 c 0,146,147
 538 343 538 343 546 343 c 0,148,149
 552 343 552 343 557 341 c 0,150,151
 571 338 571 338 580 326 c 0,152,153
 632 255 632 255 666 185 c 0,126,127
EndSplineSet
EndChar

StartChar: cid17493
Encoding: 24288 24288 38
Width: 1024
Flags: W
LayerCount: 2
Fore
SplineSet
971 738.5 m 128,-1,1
 971 725 971 725 961.5 715.5 c 128,-1,2
 952 706 952 706 938 706 c 2,3,-1
 189 706 l 2,4,5
 181 706 181 706 181 698 c 2,6,-1
 181 453 l 2,7,8
 181 130 181 130 110 -47 c 0,9,10
 105 -59 105 -59 91.5 -61.5 c 128,-1,11
 78 -64 78 -64 68 -56 c 0,12,13
 55 -47 55 -47 50 -32 c 0,14,15
 48 -26 48 -26 48 -19 c 0,16,17
 48 -11 48 -11 51 -3 c 0,18,19
 111 149 111 149 111 453 c 2,20,-1
 111 712 l 2,21,22
 111 737 111 737 128 754 c 128,-1,23
 145 771 145 771 170 771 c 2,24,-1
 495 771 l 2,25,26
 503 771 503 771 503 779 c 2,27,-1
 503 817 l 2,28,29
 503 833 503 833 514.5 844.5 c 128,-1,30
 526 856 526 856 542 856 c 128,-1,31
 558 856 558 856 569.5 844.5 c 128,-1,32
 581 833 581 833 581 817 c 2,33,-1
 581 779 l 2,34,35
 581 771 581 771 588 771 c 2,36,-1
 938 771 l 2,37,38
 952 771 952 771 961.5 761.5 c 128,-1,0
 971 752 971 752 971 738.5 c 128,-1,1
557 505 m 0,39,40
 552 494 552 494 541 489.5 c 128,-1,41
 530 485 530 485 519 489 c 256,42,43
 508 493 508 493 504 503.5 c 128,-1,44
 500 514 500 514 504 524 c 0,45,46
 524 569 524 569 540 619 c 0,47,48
 545 633 545 633 557 639.5 c 128,-1,49
 569 646 569 646 582 642 c 0,50,51
 594 638 594 638 600 625.5 c 128,-1,52
 606 613 606 613 600 601 c 0,53,54
 573 537 573 537 557 505 c 0,39,40
326 528 m 0,55,56
 330 515 330 515 323 503.5 c 128,-1,57
 316 492 316 492 304 488 c 0,58,59
 292 485 292 485 281.5 491 c 128,-1,60
 271 497 271 497 268 509 c 0,61,62
 257 554 257 554 234 603 c 0,63,64
 229 613 229 613 233.5 623.5 c 128,-1,65
 238 634 238 634 249 637 c 0,66,67
 261 641 261 641 273 636 c 128,-1,68
 285 631 285 631 290 620 c 0,69,70
 314 572 314 572 326 528 c 0,55,56
446 266 m 2,71,72
 446 273 446 273 439 273 c 2,73,-1
 378 273 l 2,74,75
 371 273 371 273 371 266 c 2,76,-1
 371 150 l 2,77,78
 371 142 371 142 378 142 c 2,79,-1
 439 142 l 2,80,81
 446 142 446 142 446 150 c 2,82,-1
 446 266 l 2,71,72
486 149 m 2,83,84
 486 125 486 125 469 107.5 c 128,-1,85
 452 90 452 90 427 90 c 2,86,-1
 375 90 l 2,87,88
 371 90 371 90 371 86 c 2,89,-1
 371 74 l 2,90,91
 371 65 371 65 365 59 c 128,-1,92
 359 53 359 53 350.5 53 c 128,-1,93
 342 53 342 53 336 59 c 128,-1,94
 330 65 330 65 330 74 c 2,95,-1
 330 267 l 2,96,97
 330 291 330 291 347 308.5 c 128,-1,98
 364 326 364 326 389 326 c 2,99,-1
 427 326 l 2,100,101
 452 326 452 326 469 308.5 c 128,-1,102
 486 291 486 291 486 267 c 2,103,-1
 486 149 l 2,83,84
600 326 m 0,104,105
 599 327 599 327 597 326 c 128,-1,106
 595 325 595 325 595 323 c 2,107,-1
 595 -5 l 2,108,109
 595 -16 595 -16 595 -21 c 0,110,111
 595 -23 595 -23 596.5 -24.5 c 128,-1,112
 598 -26 598 -26 600 -25 c 0,113,114
 697 34 697 34 757 133 c 0,115,116
 761 139 761 139 758 146 c 0,117,118
 715 239 715 239 687 367 c 0,119,120
 686 369 686 369 684.5 369.5 c 128,-1,121
 683 370 683 370 682 368 c 0,122,123
 674 352 674 352 665 336 c 0,124,125
 655 319 655 319 635 316 c 0,126,127
 632 316 632 316 628 316 c 0,128,129
 613 316 613 316 600 326 c 0,104,105
861 456 m 0,130,131
 862 464 862 464 855 464 c 2,132,-1
 730 464 l 2,133,134
 723 464 723 464 724 456 c 0,135,136
 748 316 748 316 793 213 c 0,137,138
 793 211 793 211 795.5 211 c 128,-1,139
 798 211 798 211 799 213 c 0,140,141
 843 317 843 317 861 456 c 0,130,131
974 496 m 128,-1,143
 974 483 974 483 964.5 473.5 c 128,-1,144
 955 464 955 464 942 464 c 2,145,-1
 935 464 l 2,146,147
 930 464 930 464 929 459 c 0,148,149
 900 267 900 267 835 141 c 0,150,151
 831 134 831 134 835 128 c 0,152,153
 887 43 887 43 959 -5 c 0,154,155
 970 -13 970 -13 971.5 -26 c 128,-1,156
 973 -39 973 -39 965 -50 c 0,157,158
 955 -62 955 -62 941 -64.5 c 128,-1,159
 927 -67 927 -67 915 -59 c 0,160,161
 849 -10 849 -10 800 68 c 0,162,163
 798 71 798 71 795.5 71 c 128,-1,164
 793 71 793 71 791 69 c 0,165,166
 742 -1 742 -1 676 -50 c 0,167,168
 662 -60 662 -60 646 -60 c 0,169,170
 641 -60 641 -60 635 -59 c 0,171,172
 614 -54 614 -54 598 -37 c 0,173,174
 596 -35 596 -35 594 -35.5 c 128,-1,175
 592 -36 592 -36 591 -39 c 0,176,177
 585 -58 585 -58 565 -67 c 0,178,179
 540 -76 540 -76 472 -77 c 0,180,181
 459 -77 459 -77 449 -68.5 c 128,-1,182
 439 -60 439 -60 434 -47 c 0,183,184
 431 -36 431 -36 437 -27.5 c 128,-1,185
 443 -19 443 -19 454 -19 c 0,186,187
 486 -19 486 -19 521 -19 c 0,188,189
 531 -19 531 -19 534 -16.5 c 128,-1,190
 537 -14 537 -14 537 -5 c 2,191,-1
 537 390 l 2,192,193
 537 397 537 397 529 397 c 2,194,-1
 288 397 l 2,195,196
 281 397 281 397 281 390 c 2,197,-1
 281 -49 l 2,198,199
 281 -60 281 -60 272.5 -68.5 c 128,-1,200
 264 -77 264 -77 252.5 -77 c 128,-1,201
 241 -77 241 -77 232.5 -68.5 c 128,-1,202
 224 -60 224 -60 224 -49 c 2,203,-1
 224 397 l 2,204,205
 224 421 224 421 241.5 438.5 c 128,-1,206
 259 456 259 456 283 456 c 2,207,-1
 371 456 l 2,208,209
 379 456 379 456 379 463 c 2,210,-1
 379 645 l 2,211,212
 379 658 379 658 388.5 667.5 c 128,-1,213
 398 677 398 677 411 677 c 128,-1,214
 424 677 424 677 433.5 667.5 c 128,-1,215
 443 658 443 658 443 645 c 2,216,-1
 443 463 l 2,217,218
 443 456 443 456 451 456 c 2,219,-1
 536 456 l 2,220,221
 560 456 560 456 577.5 438.5 c 128,-1,222
 595 421 595 421 595 397 c 2,223,-1
 595 359 l 2,224,225
 595 357 595 357 596.5 356.5 c 128,-1,226
 598 356 598 356 599 357 c 0,227,228
 667 465 667 465 703 645 c 0,229,230
 706 659 706 659 718 667 c 128,-1,231
 730 675 730 675 743.5 672 c 128,-1,232
 757 669 757 669 765 657.5 c 128,-1,233
 773 646 773 646 770 632 c 0,234,235
 759 582 759 582 746 536 c 0,236,237
 745 533 745 533 746.5 530.5 c 128,-1,238
 748 528 748 528 751 528 c 2,239,-1
 942 528 l 2,240,241
 955 528 955 528 964.5 518.5 c 128,-1,142
 974 509 974 509 974 496 c 128,-1,143
EndSplineSet
EndChar

StartChar: uni5FB7
Encoding: 24503 24503 39
Width: 1024
Flags: W
LayerCount: 2
Fore
SplineSet
949 316 m 2,0,1
 962 316 962 316 971 307 c 128,-1,2
 980 298 980 298 980 285 c 128,-1,3
 980 272 980 272 971 263 c 128,-1,4
 962 254 962 254 949 254 c 2,5,-1
 589 254 l 2,6,7
 588 254 588 254 588 253 c 128,-1,8
 588 252 588 252 589 251 c 0,9,10
 663 221 663 221 722 182 c 0,11,12
 733 175 733 175 735 161.5 c 128,-1,13
 737 148 737 148 728 137 c 0,14,15
 720 127 720 127 706.5 125.5 c 128,-1,16
 693 124 693 124 682 132 c 0,17,18
 642 159 642 159 580 190 c 0,19,20
 564 198 564 198 560 216 c 0,21,22
 558 221 558 221 558 226 c 0,23,24
 558 238 558 238 567 249 c 0,25,26
 568 250 568 250 567.5 252 c 128,-1,27
 567 254 567 254 565 254 c 2,28,-1
 364 254 l 2,29,30
 351 254 351 254 342 263 c 128,-1,31
 333 272 333 272 333 285 c 128,-1,32
 333 298 333 298 342 307 c 128,-1,33
 351 316 351 316 364 316 c 2,34,-1
 949 316 l 2,0,1
700 440 m 2,35,36
 708 440 708 440 708 448 c 2,37,-1
 708 572 l 2,38,39
 708 580 708 580 700 580 c 2,40,-1
 609 580 l 2,41,42
 601 580 601 580 601 572 c 2,43,-1
 601 448 l 2,44,45
 601 440 601 440 609 440 c 2,46,-1
 700 440 l 2,35,36
771 580 m 2,47,48
 764 580 764 580 764 572 c 2,49,-1
 764 448 l 2,50,51
 764 440 764 440 771 440 c 2,52,-1
 866 440 l 2,53,54
 873 440 873 440 873 448 c 2,55,-1
 873 572 l 2,56,57
 873 580 873 580 866 580 c 2,58,-1
 771 580 l 2,47,48
537 440 m 2,59,60
 545 440 545 440 545 448 c 2,61,-1
 545 572 l 2,62,63
 545 580 545 580 537 580 c 2,64,-1
 449 580 l 2,65,66
 441 580 441 580 441 572 c 2,67,-1
 441 448 l 2,68,69
 441 440 441 440 449 440 c 2,70,-1
 537 440 l 2,59,60
381 577 m 2,71,72
 381 601 381 601 398 618.5 c 128,-1,73
 415 636 415 636 440 636 c 2,74,-1
 592 636 l 2,75,76
 599 636 599 636 600 643 c 0,77,78
 603 667 603 667 607 703 c 0,79,80
 608 711 608 711 601 711 c 2,81,-1
 367 711 l 2,82,83
 354 711 354 711 345 720 c 128,-1,84
 336 729 336 729 336 742 c 128,-1,85
 336 755 336 755 345 764 c 128,-1,86
 354 773 354 773 367 773 c 2,87,-1
 607 773 l 2,88,89
 614 773 614 773 615 781 c 0,90,91
 617 806 617 806 617 821 c 0,92,93
 618 837 618 837 631 848 c 0,94,95
 642 858 642 858 657 858 c 0,96,97
 658 858 658 858 659 858 c 0,98,99
 675 857 675 857 685 845 c 128,-1,100
 695 833 695 833 694 817 c 2,101,-1
 689 781 l 2,102,103
 688 773 688 773 696 773 c 2,104,-1
 944 773 l 2,105,106
 957 773 957 773 966 764 c 128,-1,107
 975 755 975 755 975 742 c 128,-1,108
 975 729 975 729 966 720 c 128,-1,109
 957 711 957 711 944 711 c 2,110,-1
 688 711 l 2,111,112
 681 711 681 711 680 703.5 c 128,-1,113
 679 696 679 696 672 643 c 0,114,115
 671 636 671 636 678 636 c 2,116,-1
 879 636 l 2,117,118
 903 636 903 636 920.5 618.5 c 128,-1,119
 938 601 938 601 938 577 c 2,120,-1
 938 443 l 2,121,122
 938 419 938 419 920.5 401.5 c 128,-1,123
 903 384 903 384 879 384 c 2,124,-1
 440 384 l 2,125,126
 415 384 415 384 398 401.5 c 128,-1,127
 381 419 381 419 381 443 c 2,128,-1
 381 577 l 2,71,72
229 826 m 0,129,130
 239 839 239 839 255 844 c 0,131,132
 261 846 261 846 268 846 c 0,133,134
 277 846 277 846 285 843 c 0,135,136
 298 838 298 838 301.5 824.5 c 128,-1,137
 305 811 305 811 297 801 c 0,138,139
 212 697 212 697 110 609 c 0,140,141
 99 600 99 600 85.5 602 c 128,-1,142
 72 604 72 604 63 615.5 c 128,-1,143
 54 627 54 627 55.5 641 c 128,-1,144
 57 655 57 655 67 664 c 0,145,146
 164 744 164 744 229 826 c 0,129,130
254 604 m 0,147,148
 261 617 261 617 275 623 c 0,149,150
 283 626 283 626 291 626 c 0,151,152
 297 626 297 626 304 624 c 0,153,154
 317 619 317 619 322 606 c 128,-1,155
 327 593 327 593 321 581 c 0,156,157
 294 529 294 529 258 474 c 0,158,159
 254 468 254 468 254 460 c 2,160,-1
 254 -42 l 2,161,162
 254 -57 254 -57 243.5 -67.5 c 128,-1,163
 233 -78 233 -78 218.5 -78 c 128,-1,164
 204 -78 204 -78 193.5 -67.5 c 128,-1,165
 183 -57 183 -57 183 -42 c 2,166,-1
 183 359 l 2,167,168
 183 361 183 361 181.5 361.5 c 128,-1,169
 180 362 180 362 179 361 c 0,170,171
 144 316 144 316 110 278 c 0,172,173
 100 266 100 266 84.5 268 c 128,-1,174
 69 270 69 270 60 282 c 0,175,176
 51 295 51 295 51 310 c 0,177,178
 51 330 51 330 64 344 c 0,179,180
 174 455 174 455 254 604 c 0,147,148
376 -37 m 0,181,182
 367 -49 367 -49 351.5 -50 c 128,-1,183
 336 -51 336 -51 324 -42 c 0,184,185
 313 -34 313 -34 313 -19 c 0,186,187
 313 -6 313 -6 321 3 c 0,188,189
 361 50 361 50 382 124 c 0,190,191
 385 137 385 137 396.5 143.5 c 128,-1,192
 408 150 408 150 420 146 c 0,193,194
 434 143 434 143 440.5 131 c 128,-1,195
 447 119 447 119 444 106 c 0,196,197
 419 15 419 15 376 -37 c 0,181,182
609 -3 m 2,198,-1
 720 -3 l 2,199,200
 737 -3 737 -3 744 6.5 c 128,-1,201
 751 16 751 16 754 48 c 0,202,203
 755 60 755 60 765 65 c 128,-1,204
 775 70 775 70 785 66 c 0,205,206
 799 61 799 61 807.5 49 c 128,-1,207
 816 37 816 37 814 23 c 0,208,209
 807 -28 807 -28 788.5 -47 c 128,-1,210
 770 -66 770 -66 729 -66 c 2,211,-1
 600 -66 l 2,212,213
 540 -66 540 -66 520.5 -48 c 128,-1,214
 501 -30 501 -30 501 22 c 2,215,-1
 501 125 l 2,216,217
 501 140 501 140 511 150.5 c 128,-1,218
 521 161 521 161 536 161 c 128,-1,219
 551 161 551 161 561 150.5 c 128,-1,220
 571 140 571 140 571 125 c 2,221,-1
 571 23 l 2,222,223
 571 6 571 6 578 1.5 c 128,-1,224
 585 -3 585 -3 609 -3 c 2,198,-1
813 118 m 0,225,226
 806 125 806 125 806 134 c 0,227,228
 806 149 806 149 820 156 c 0,229,230
 829 160 829 160 839 160 c 0,231,232
 842 160 842 160 846 160 c 0,233,234
 860 157 860 157 869 147 c 0,235,236
 933 76 933 76 970 8 c 0,237,238
 974 0 974 0 974 -8 c 0,239,240
 974 -13 974 -13 972 -18 c 0,241,242
 968 -32 968 -32 955 -39 c 0,243,244
 948 -43 948 -43 940 -43 c 0,245,246
 935 -43 935 -43 930 -41 c 0,247,248
 917 -37 917 -37 910 -24 c 0,249,250
 874 46 874 46 813 118 c 0,225,226
EndSplineSet
EndChar

StartChar: cid18925
Encoding: 25104 25104 40
Width: 1024
Flags: W
LayerCount: 2
Fore
SplineSet
714 790 m 0,0,1
 704 796 704 796 702 808 c 128,-1,2
 700 820 700 820 709 829 c 0,3,4
 719 839 719 839 733 841.5 c 128,-1,5
 747 844 747 844 760 837 c 0,6,7
 834 797 834 797 887 757 c 0,8,9
 899 749 899 749 900 734.5 c 128,-1,10
 901 720 901 720 891 709 c 128,-1,11
 881 698 881 698 866.5 697.5 c 128,-1,12
 852 697 852 697 840 706 c 0,13,14
 786 748 786 748 714 790 c 0,0,1
819 492 m 0,15,16
 825 508 825 508 839.5 516 c 128,-1,17
 854 524 854 524 870 520 c 0,18,19
 885 516 885 516 893 502 c 128,-1,20
 901 488 901 488 895 473 c 0,21,22
 832 300 832 300 733 170 c 0,23,24
 728 164 728 164 731 157 c 0,25,26
 790 5 790 5 865 5 c 0,27,28
 884 5 884 5 894.5 40 c 128,-1,29
 905 75 905 75 911 156 c 0,30,31
 912 167 912 167 923 172 c 128,-1,32
 934 177 934 177 944 171 c 0,33,34
 976 150 976 150 976 121 c 0,35,36
 976 118 976 118 975 115 c 0,37,38
 964 9 964 9 938.5 -31 c 128,-1,39
 913 -71 913 -71 859 -71 c 0,40,41
 749 -71 749 -71 675 90 c 0,42,43
 672 97 672 97 667 92 c 0,44,45
 589 9 589 9 496 -51 c 0,46,47
 484 -58 484 -58 472 -58 c 0,48,49
 468 -58 468 -58 464 -57 c 0,50,51
 447 -54 447 -54 435 -41 c 0,52,53
 424 -30 424 -30 426 -15 c 128,-1,54
 428 0 428 0 441 8 c 0,55,56
 552 75 552 75 636 172 c 0,57,58
 641 177 641 177 639 184 c 0,59,60
 588 348 588 348 567 601 c 0,61,62
 566 608 566 608 559 608 c 2,63,-1
 220 608 l 2,64,65
 213 608 213 608 213 601 c 2,66,-1
 213 483 l 2,67,68
 213 475 213 475 220 475 c 2,69,-1
 415 475 l 2,70,71
 440 475 440 475 457 458 c 256,72,73
 474 441 474 441 474 418 c 0,74,75
 474 294 474 294 463 187 c 0,76,77
 456 119 456 119 441 100 c 0,78,79
 421 75 421 75 380 71 c 0,80,81
 360 69 360 69 329 69 c 0,82,83
 314 69 314 69 296 69 c 0,84,85
 280 70 280 70 268 81 c 128,-1,86
 256 92 256 92 252 108 c 0,87,88
 248 120 248 120 255 130 c 128,-1,89
 262 140 262 140 274 140 c 0,90,91
 315 137 315 137 345 137 c 0,92,93
 368 137 368 137 376 148 c 0,94,95
 386 160 386 160 391 213.5 c 128,-1,96
 396 267 396 267 399 397 c 0,97,98
 399 404 399 404 392 404 c 2,99,-1
 220 404 l 2,100,101
 213 404 213 404 213 397 c 2,102,-1
 213 396 l 2,103,104
 213 104 213 104 127 -51 c 0,105,106
 119 -65 119 -65 103.5 -66.5 c 128,-1,107
 88 -68 88 -68 75 -58 c 256,108,109
 62 -48 62 -48 59 -31 c 0,110,111
 58 -26 58 -26 58 -21 c 0,112,113
 58 -10 58 -10 63 0 c 0,114,115
 135 136 135 136 135 397 c 2,116,-1
 135 624 l 2,117,118
 135 648 135 648 152.5 665.5 c 128,-1,119
 170 683 170 683 194 683 c 2,120,-1
 555 683 l 2,121,122
 562 683 562 683 562 690 c 0,123,124
 558 740 558 740 557 816 c 0,125,126
 556 832 556 832 567.5 843.5 c 128,-1,127
 579 855 579 855 595.5 855 c 128,-1,128
 612 855 612 855 623.5 843.5 c 128,-1,129
 635 832 635 832 635 816 c 0,130,131
 636 747 636 747 639 691 c 0,132,133
 639 683 639 683 646 683 c 2,134,-1
 932 683 l 2,135,136
 948 683 948 683 959 672 c 128,-1,137
 970 661 970 661 970 645.5 c 128,-1,138
 970 630 970 630 959 619 c 128,-1,139
 948 608 948 608 932 608 c 2,140,-1
 652 608 l 2,141,142
 644 608 644 608 645 601 c 0,143,144
 660 398 660 398 698 260 c 0,145,146
 699 258 699 258 701 257.5 c 128,-1,147
 703 257 703 257 705 259 c 0,148,149
 775 364 775 364 819 492 c 0,15,16
EndSplineSet
EndChar

StartChar: cid19542
Encoding: 25490 25490 41
Width: 1024
Flags: W
LayerCount: 2
Fore
SplineSet
351 391 m 0,0,1
 353 375 353 375 345 362 c 128,-1,2
 337 349 337 349 322 344 c 2,3,-1
 252 321 l 2,4,5
 245 318 245 318 245 311 c 2,6,-1
 245 10 l 2,7,8
 245 -21 245 -21 237 -38 c 128,-1,9
 229 -55 229 -55 210 -65 c 0,10,11
 183 -77 183 -77 120 -78 c 0,12,13
 119 -78 119 -78 119 -78 c 2,14,15
 104 -78 104 -78 91 -68 c 0,16,17
 79 -58 79 -58 74 -42 c 0,18,19
 70 -30 70 -30 77 -19.5 c 128,-1,20
 84 -9 84 -9 97 -9 c 0,21,22
 111 -9 111 -9 122 -9 c 0,23,24
 147 -9 147 -9 157 -8 c 0,25,26
 166 -8 166 -8 170 -4.5 c 128,-1,27
 174 -1 174 -1 174 10 c 2,28,-1
 174 288 l 2,29,30
 174 291 174 291 172 292.5 c 128,-1,31
 170 294 170 294 167 294 c 2,32,-1
 88 268 l 2,33,34
 74 263 74 263 60 270.5 c 128,-1,35
 46 278 46 278 42 293 c 0,36,37
 41 298 41 298 41 303 c 0,38,39
 41 313 41 313 46 322 c 0,40,41
 54 336 54 336 69 340 c 0,42,43
 95 347 95 347 167 369 c 0,44,45
 174 372 174 372 174 379 c 2,46,-1
 174 574 l 2,47,48
 174 582 174 582 167 582 c 2,49,-1
 81 582 l 2,50,51
 66 582 66 582 56 592 c 128,-1,52
 46 602 46 602 46 616.5 c 128,-1,53
 46 631 46 631 56 641 c 128,-1,54
 66 651 66 651 81 651 c 2,55,-1
 167 651 l 2,56,57
 174 651 174 651 174 659 c 2,58,-1
 174 821 l 2,59,60
 174 835 174 835 184.5 845.5 c 128,-1,61
 195 856 195 856 209.5 856 c 128,-1,62
 224 856 224 856 234.5 845.5 c 128,-1,63
 245 835 245 835 245 821 c 2,64,-1
 245 659 l 2,65,66
 245 651 245 651 252 651 c 2,67,-1
 319 651 l 2,68,69
 334 651 334 651 344 641 c 128,-1,70
 354 631 354 631 354 616.5 c 128,-1,71
 354 602 354 602 344 592 c 128,-1,72
 334 582 334 582 319 582 c 2,73,-1
 252 582 l 2,74,75
 245 582 245 582 245 574 c 2,76,-1
 245 401 l 2,77,78
 245 398 245 398 247 396.5 c 128,-1,79
 249 395 249 395 252 395 c 0,80,81
 277 403 277 403 312 415 c 0,82,83
 326 419 326 419 337.5 411.5 c 128,-1,84
 349 404 349 404 351 391 c 0,0,1
529 683 m 2,85,86
 537 683 537 683 537 691 c 2,87,-1
 537 823 l 2,88,89
 537 837 537 837 546.5 847 c 128,-1,90
 556 857 556 857 570 857 c 128,-1,91
 584 857 584 857 594 847 c 128,-1,92
 604 837 604 837 604 823 c 2,93,-1
 604 428 l 2,94,95
 604 364 604 364 601 315 c 128,-1,96
 598 266 598 266 587 210 c 128,-1,97
 576 154 576 154 557 110.5 c 128,-1,98
 538 67 538 67 505 22.5 c 128,-1,99
 472 -22 472 -22 426 -57 c 0,100,101
 413 -67 413 -67 398 -65 c 128,-1,102
 383 -63 383 -63 371 -52 c 0,103,104
 361 -42 361 -42 361.5 -28.5 c 128,-1,105
 362 -15 362 -15 373 -6 c 0,106,107
 473 71 473 71 511 192 c 0,108,109
 512 195 512 195 510 196.5 c 128,-1,110
 508 198 508 198 506 197 c 0,111,112
 473 184 473 184 382 152 c 0,113,114
 368 146 368 146 354 152.5 c 128,-1,115
 340 159 340 159 333 173 c 0,116,117
 330 179 330 179 330 185 c 0,118,119
 330 192 330 192 334 198 c 0,120,121
 340 211 340 211 354 215 c 0,122,123
 416 233 416 233 520 267 c 0,124,125
 527 269 527 269 528 277 c 0,126,127
 535 323 535 323 536 394 c 0,128,129
 537 401 537 401 529 401 c 2,130,-1
 410 401 l 2,131,132
 396 401 396 401 386 411.5 c 128,-1,133
 376 422 376 422 376 436 c 128,-1,134
 376 450 376 450 386 460 c 128,-1,135
 396 470 396 470 410 470 c 2,136,-1
 529 470 l 2,137,138
 537 470 537 470 537 478 c 2,139,-1
 537 606 l 2,140,141
 537 613 537 613 529 613 c 2,142,-1
 403 613 l 2,143,144
 389 613 389 613 379 623.5 c 128,-1,145
 369 634 369 634 369 648.5 c 128,-1,146
 369 663 369 663 379 673 c 128,-1,147
 389 683 389 683 403 683 c 2,148,-1
 529 683 l 2,85,86
944 249 m 2,149,150
 959 249 959 249 969 238.5 c 128,-1,151
 979 228 979 228 979 214 c 128,-1,152
 979 200 979 200 969 189.5 c 128,-1,153
 959 179 959 179 944 179 c 2,154,-1
 791 179 l 2,155,156
 783 179 783 179 783 172 c 2,157,-1
 783 -40 l 2,158,159
 783 -56 783 -56 772.5 -66.5 c 128,-1,160
 762 -77 762 -77 747 -77 c 128,-1,161
 732 -77 732 -77 721.5 -66.5 c 128,-1,162
 711 -56 711 -56 711 -40 c 2,163,-1
 711 821 l 2,164,165
 711 836 711 836 721.5 846.5 c 128,-1,166
 732 857 732 857 747 857 c 128,-1,167
 762 857 762 857 772.5 846.5 c 128,-1,168
 783 836 783 836 783 821 c 2,169,-1
 783 691 l 2,170,171
 783 683 783 683 791 683 c 2,172,-1
 927 683 l 2,173,174
 941 683 941 683 951.5 673 c 128,-1,175
 962 663 962 663 962 648.5 c 128,-1,176
 962 634 962 634 951.5 623.5 c 128,-1,177
 941 613 941 613 927 613 c 2,178,-1
 791 613 l 2,179,180
 783 613 783 613 783 606 c 2,181,-1
 783 478 l 2,182,183
 783 470 783 470 791 470 c 2,184,-1
 917 470 l 2,185,186
 931 470 931 470 941 460 c 128,-1,187
 951 450 951 450 951 436 c 128,-1,188
 951 422 951 422 941 411.5 c 128,-1,189
 931 401 931 401 917 401 c 2,190,-1
 791 401 l 2,191,192
 783 401 783 401 783 394 c 2,193,-1
 783 256 l 2,194,195
 783 249 783 249 791 249 c 2,196,-1
 944 249 l 2,149,150
EndSplineSet
EndChar

StartChar: uni63ED
Encoding: 25581 25581 42
Width: 1024
Flags: W
LayerCount: 2
Fore
SplineSet
363 374 m 0,0,1
 365 359 365 359 357 346.5 c 128,-1,2
 349 334 349 334 335 330 c 2,3,-1
 267 308 l 2,4,5
 260 306 260 306 260 299 c 2,6,-1
 260 14 l 2,7,8
 260 -18 260 -18 252 -36 c 128,-1,9
 244 -54 244 -54 225 -63 c 0,10,11
 196 -77 196 -77 128 -77 c 0,12,13
 112 -77 112 -77 99 -66.5 c 128,-1,14
 86 -56 86 -56 81 -40 c 0,15,16
 77 -27 77 -27 84.5 -16 c 128,-1,17
 92 -5 92 -5 106 -5 c 0,18,19
 126 -6 126 -6 141 -6 c 0,20,21
 159 -6 159 -6 169 -5 c 0,22,23
 179 -5 179 -5 183 -1 c 128,-1,24
 187 3 187 3 187 14 c 2,25,-1
 187 277 l 2,26,27
 187 280 187 280 185 281.5 c 128,-1,28
 183 283 183 283 180 282 c 2,29,-1
 85 253 l 2,30,31
 71 248 71 248 57.5 256 c 128,-1,32
 44 264 44 264 40 279 c 0,33,34
 39 283 39 283 39 288 c 0,35,36
 39 298 39 298 45 307 c 0,37,38
 53 321 53 321 68 325 c 0,39,40
 107 335 107 335 180 356 c 0,41,42
 187 358 187 358 187 366 c 2,43,-1
 187 574 l 2,44,45
 187 582 187 582 180 582 c 2,46,-1
 84 582 l 2,47,48
 70 582 70 582 59.5 592 c 128,-1,49
 49 602 49 602 49 616.5 c 128,-1,50
 49 631 49 631 59.5 641 c 128,-1,51
 70 651 70 651 84 651 c 2,52,-1
 180 651 l 2,53,54
 187 651 187 651 187 659 c 2,55,-1
 187 820 l 2,56,57
 187 835 187 835 198 845.5 c 128,-1,58
 209 856 209 856 224 856 c 128,-1,59
 239 856 239 856 249.5 845.5 c 128,-1,60
 260 835 260 835 260 820 c 2,61,-1
 260 659 l 2,62,63
 260 651 260 651 268 651 c 2,64,-1
 328 651 l 2,65,66
 342 651 342 651 352 641 c 128,-1,67
 362 631 362 631 362 616.5 c 128,-1,68
 362 602 362 602 352 592 c 128,-1,69
 342 582 342 582 328 582 c 2,70,-1
 268 582 l 2,71,72
 260 582 260 582 260 574 c 2,73,-1
 260 387 l 2,74,75
 260 385 260 385 262.5 383 c 128,-1,76
 265 381 265 381 267 382 c 2,77,-1
 325 399 l 2,78,79
 338 403 338 403 349.5 395.5 c 128,-1,80
 361 388 361 388 363 374 c 0,0,1
498 622 m 2,81,82
 490 622 490 622 490 614 c 2,83,-1
 490 541 l 2,84,85
 490 534 490 534 498 534 c 2,86,-1
 830 534 l 2,87,88
 838 534 838 534 838 541 c 2,89,-1
 838 614 l 2,90,91
 838 622 838 622 830 622 c 2,92,-1
 498 622 l 2,81,82
498 764 m 2,93,94
 490 764 490 764 490 756 c 2,95,-1
 490 684 l 2,96,97
 490 677 490 677 498 677 c 2,98,-1
 830 677 l 2,99,100
 838 677 838 677 838 684 c 2,101,-1
 838 756 l 2,102,103
 838 764 838 764 830 764 c 2,104,-1
 498 764 l 2,93,94
543 404 m 0,105,106
 542 402 542 402 543.5 399.5 c 128,-1,107
 545 397 545 397 547 397 c 2,108,-1
 899 397 l 2,109,110
 923 397 923 397 940 380 c 0,111,112
 955 364 955 364 955 342 c 0,113,114
 955 215 955 215 932 63 c 0,115,116
 919 -21 919 -21 897 -46 c 0,117,118
 875 -73 875 -73 829 -76 c 0,119,120
 809 -77 809 -77 785 -77 c 0,121,122
 762 -77 762 -77 735 -76 c 0,123,124
 721 -75 721 -75 710 -65 c 128,-1,125
 699 -55 699 -55 695 -41 c 0,126,127
 691 -30 691 -30 697.5 -21 c 128,-1,128
 704 -12 704 -12 715 -13 c 0,129,130
 753 -15 753 -15 799 -15 c 0,131,132
 826 -15 826 -15 837 -3 c 0,133,134
 853 14 853 14 864 89 c 128,-1,135
 875 164 875 164 884 326 c 0,136,137
 885 334 885 334 877 334 c 2,138,-1
 505 334 l 2,139,140
 498 334 498 334 493 328 c 0,141,142
 476 304 476 304 465 291 c 0,143,144
 464 290 464 290 464.5 289.5 c 128,-1,145
 465 289 465 289 466 289 c 0,146,147
 474 289 474 289 480 283 c 128,-1,148
 486 277 486 277 486 268 c 2,149,-1
 486 87 l 2,150,151
 486 80 486 80 494 80 c 2,152,-1
 771 80 l 2,153,154
 783 80 783 80 792 71 c 128,-1,155
 801 62 801 62 801 50 c 128,-1,156
 801 38 801 38 792 29 c 128,-1,157
 783 20 783 20 771 20 c 2,158,-1
 493 20 l 2,159,160
 486 20 486 20 486 14 c 2,161,-1
 486 -5 l 2,162,163
 486 -19 486 -19 476.5 -28.5 c 128,-1,164
 467 -38 467 -38 453.5 -38 c 128,-1,165
 440 -38 440 -38 430.5 -28.5 c 128,-1,166
 421 -19 421 -19 421 -5 c 2,167,-1
 421 235 l 2,168,169
 421 237 421 237 419 238 c 128,-1,170
 417 239 417 239 416 237 c 0,171,172
 402 224 402 224 389 212 c 0,173,174
 377 202 377 202 361.5 203 c 128,-1,175
 346 204 346 204 335 215 c 0,176,177
 325 224 325 224 325 238 c 256,178,179
 325 252 325 252 336 261 c 0,180,181
 441 345 441 345 500 468 c 0,182,183
 501 471 501 471 499.5 473 c 128,-1,184
 498 475 498 475 495 475 c 2,185,-1
 480 475 l 2,186,187
 455 475 455 475 438 492.5 c 128,-1,188
 421 510 421 510 421 534 c 2,189,-1
 421 762 l 2,190,191
 421 787 421 787 438 804 c 128,-1,192
 455 821 455 821 480 821 c 2,193,-1
 851 821 l 2,194,195
 876 821 876 821 893 804 c 128,-1,196
 910 787 910 787 910 762 c 2,197,-1
 910 534 l 2,198,199
 910 510 910 510 893 492.5 c 128,-1,200
 876 475 876 475 851 475 c 2,201,-1
 586 475 l 2,202,203
 579 475 579 475 576 468 c 0,204,205
 563 439 563 439 543 404 c 0,105,106
626 291 m 0,206,207
 629 303 629 303 639 311 c 128,-1,208
 649 319 649 319 661 319 c 256,209,210
 673 319 673 319 680.5 310.5 c 128,-1,211
 688 302 688 302 685 291 c 0,212,213
 680 268 680 268 672 245 c 0,214,215
 670 238 670 238 676 234 c 0,216,217
 737 195 737 195 779 160 c 0,218,219
 789 152 789 152 789 139 c 0,220,221
 789 128 789 128 780 119 c 0,222,223
 772 111 772 111 760 111 c 128,-1,224
 748 111 748 111 739 119 c 0,225,226
 709 146 709 146 652 186 c 0,227,228
 646 190 646 190 642 184 c 0,229,230
 610 137 610 137 558 107 c 0,231,232
 550 103 550 103 543 103 c 0,233,234
 539 103 539 103 534 104 c 0,235,236
 522 107 522 107 514 117 c 0,237,238
 508 123 508 123 508 131 c 0,239,240
 508 144 508 144 519 150 c 0,241,242
 602 196 602 196 626 291 c 0,206,207
EndSplineSet
EndChar

StartChar: cid20317
Encoding: 25918 25918 43
Width: 1024
Flags: W
LayerCount: 2
Fore
SplineSet
241 492 m 2,0,1
 241 484 241 484 248 484 c 2,2,-1
 396 484 l 2,3,4
 420 484 420 484 437 467 c 0,5,6
 453 450 453 450 453 427 c 0,7,8
 453 335 453 335 445 167 c 0,9,10
 441 77 441 77 433.5 27 c 128,-1,11
 426 -23 426 -23 414 -40 c 0,12,13
 393 -68 393 -68 352 -73 c 0,14,15
 334 -74 334 -74 306 -74 c 0,16,17
 293 -74 293 -74 278 -74 c 256,18,19
 263 -74 263 -74 251.5 -63.5 c 128,-1,20
 240 -53 240 -53 236 -37 c 0,21,22
 232 -25 232 -25 239 -15.5 c 128,-1,23
 246 -6 246 -6 258 -6 c 0,24,25
 285 -7 285 -7 318 -7 c 0,26,27
 320 -7 320 -7 322 -7 c 0,28,29
 339 -7 339 -7 349 6 c 0,30,31
 363 24 363 24 369.5 110.5 c 128,-1,32
 376 197 376 197 381 408 c 0,33,34
 381 416 381 416 373 416 c 2,35,-1
 248 416 l 2,36,37
 241 416 241 416 241 408 c 0,38,39
 241 342 241 342 236 288 c 128,-1,40
 231 234 231 234 218 173.5 c 128,-1,41
 205 113 205 113 178 56.5 c 128,-1,42
 151 0 151 0 110 -49 c 0,43,44
 100 -60 100 -60 85 -60.5 c 128,-1,45
 70 -61 70 -61 59 -51 c 0,46,47
 46 -40 46 -40 46 -22 c 0,48,49
 46 -10 46 -10 54 0 c 0,50,51
 91 45 91 45 115 96.5 c 128,-1,52
 139 148 139 148 150 203 c 128,-1,53
 161 258 161 258 165 305 c 128,-1,54
 169 352 169 352 169 410 c 2,55,-1
 169 614 l 2,56,57
 169 622 169 622 161 622 c 2,58,-1
 83 622 l 2,59,60
 69 622 69 622 58.5 632 c 128,-1,61
 48 642 48 642 48 656.5 c 128,-1,62
 48 671 48 671 58.5 681 c 128,-1,63
 69 691 69 691 83 691 c 2,64,-1
 228 691 l 2,65,66
 236 691 236 691 236 699 c 2,67,-1
 236 818 l 2,68,69
 236 833 236 833 246.5 844 c 128,-1,70
 257 855 257 855 272.5 855 c 128,-1,71
 288 855 288 855 298.5 844 c 128,-1,72
 309 833 309 833 309 818 c 2,73,-1
 309 699 l 2,74,75
 309 691 309 691 317 691 c 2,76,-1
 465 691 l 2,77,78
 479 691 479 691 489.5 681 c 128,-1,79
 500 671 500 671 500 656.5 c 128,-1,80
 500 642 500 642 489.5 632 c 128,-1,81
 479 622 479 622 465 622 c 2,82,-1
 248 622 l 2,83,84
 241 622 241 622 241 614 c 2,85,-1
 241 492 l 2,0,1
830 589 m 0,86,87
 832 596 832 596 824 596 c 2,88,-1
 642 596 l 2,89,90
 635 596 635 596 632 589 c 0,91,92
 630 582 630 582 631 574 c 0,93,94
 664 400 664 400 726 269 c 0,95,96
 727 267 727 267 729.5 267 c 128,-1,97
 732 267 732 267 733 269 c 0,98,99
 798 394 798 394 830 589 c 0,86,87
982 631.5 m 128,-1,101
 982 617 982 617 971.5 606.5 c 128,-1,102
 961 596 961 596 947 596 c 2,103,-1
 914 596 l 2,104,105
 906 596 906 596 905 589 c 0,106,107
 863 345 863 345 775 194 c 0,108,109
 771 187 771 187 775 181 c 0,110,111
 849 68 849 68 951 8 c 0,112,113
 964 1 964 1 966.5 -14.5 c 128,-1,114
 969 -30 969 -30 959 -41 c 0,115,116
 948 -55 948 -55 931 -60 c 0,117,118
 926 -61 926 -61 921 -61 c 0,119,120
 910 -61 910 -61 900 -55 c 0,121,122
 802 6 802 6 729 115 c 0,123,124
 725 121 725 121 720 115 c 0,125,126
 638 10 638 10 510 -61 c 0,127,128
 501 -66 501 -66 491 -66 c 0,129,130
 486 -66 486 -66 480 -65 c 0,131,132
 464 -60 464 -60 455 -46 c 0,133,134
 449 -37 449 -37 449 -27 c 0,135,136
 449 -23 449 -23 450 -19 c 0,137,138
 453 -4 453 -4 467 3 c 0,139,140
 599 71 599 71 681 183 c 0,141,142
 685 189 685 189 682 196 c 0,143,144
 626 305 626 305 587 461 c 0,145,146
 586 462 586 462 584 462.5 c 128,-1,147
 582 463 582 463 582 461 c 0,148,149
 563 421 563 421 544 389 c 0,150,151
 535 375 535 375 518.5 372.5 c 128,-1,152
 502 370 502 370 489 381 c 0,153,154
 476 391 476 391 473 407 c 0,155,156
 472 412 472 412 472 415 c 0,157,158
 472 428 472 428 479 439 c 0,159,160
 565 576 565 576 612 818 c 0,161,162
 615 835 615 835 628 844 c 0,163,164
 639 852 639 852 651 852 c 0,165,166
 654 852 654 852 657 851 c 0,167,168
 673 849 673 849 682.5 836 c 128,-1,169
 692 823 692 823 689 807 c 0,170,171
 674 735 674 735 657 674 c 0,172,173
 657 671 657 671 658.5 669 c 128,-1,174
 660 667 660 667 663 667 c 2,175,-1
 947 667 l 2,176,177
 961 667 961 667 971.5 656.5 c 128,-1,100
 982 646 982 646 982 631.5 c 128,-1,101
EndSplineSet
EndChar

StartChar: cid20319
Encoding: 25919 25919 44
Width: 1024
Flags: W
LayerCount: 2
Fore
SplineSet
643 596 m 2,0,1
 636 596 636 596 633 589 c 2,2,-1
 632 585 l 2,3,4
 629 579 629 579 630 571 c 0,5,6
 667 385 667 385 729 259 c 0,7,8
 730 257 730 257 732.5 256.5 c 128,-1,9
 735 256 735 256 736 259 c 0,10,11
 801 388 801 388 832 589 c 0,12,13
 834 596 834 596 826 596 c 2,14,-1
 643 596 l 2,0,1
979 632 m 128,-1,16
 979 617 979 617 968.5 606.5 c 128,-1,17
 958 596 958 596 943 596 c 2,18,-1
 918 596 l 2,19,20
 910 596 910 596 909 589 c 0,21,22
 867 335 867 335 779 184 c 0,23,24
 775 177 775 177 779 171 c 0,25,26
 851 63 851 63 951 5 c 0,27,28
 965 -3 965 -3 967.5 -18 c 128,-1,29
 970 -33 970 -33 960 -45 c 0,30,31
 949 -59 949 -59 932 -63 c 0,32,33
 927 -64 927 -64 922 -64 c 0,34,35
 911 -64 911 -64 900 -58 c 0,36,37
 805 2 805 2 734 103 c 0,38,39
 730 109 730 109 726 104 c 0,40,41
 649 6 649 6 535 -62 c 0,42,43
 525 -67 525 -67 516 -67 c 0,44,45
 510 -67 510 -67 505 -65 c 0,46,47
 489 -60 489 -60 479 -46 c 0,48,49
 471 -34 471 -34 474.5 -18.5 c 128,-1,50
 478 -3 478 -3 491 4 c 0,51,52
 609 69 609 69 684 173 c 0,53,54
 688 179 688 179 685 186 c 0,55,56
 625 299 625 299 584 463 c 0,57,58
 584 465 584 465 582 465 c 128,-1,59
 580 465 580 465 579 463 c 0,60,61
 560 425 560 425 538 391 c 0,62,63
 530 378 530 378 514.5 376.5 c 128,-1,64
 499 375 499 375 487 385 c 0,65,66
 474 396 474 396 462 404 c 0,67,68
 456 409 456 409 460 415 c 0,69,70
 460 416 460 416 460 416 c 1,71,-1
 354 416 l 2,72,73
 346 416 346 416 346 408 c 2,74,-1
 346 163 l 2,75,76
 346 156 346 156 353 157 c 2,77,-1
 488 188 l 2,78,79
 501 191 501 191 512 183 c 128,-1,80
 523 175 523 175 525 161 c 0,81,82
 526 147 526 147 517.5 134.5 c 128,-1,83
 509 122 509 122 495 119 c 0,84,85
 262 62 262 62 90 23 c 0,86,87
 74 19 74 19 61 28 c 128,-1,88
 48 37 48 37 45 52 c 0,89,90
 44 56 44 56 44 60 c 0,91,92
 44 71 44 71 51 81 c 0,93,94
 60 95 60 95 76 98 c 2,95,-1
 91 101 l 2,96,97
 98 102 98 102 98 109 c 2,98,-1
 98 522 l 2,99,100
 98 537 98 537 108.5 547 c 128,-1,101
 119 557 119 557 133.5 557 c 128,-1,102
 148 557 148 557 158 547 c 128,-1,103
 168 537 168 537 168 522 c 2,104,-1
 168 125 l 2,105,106
 168 118 168 118 175 119 c 2,107,-1
 265 139 l 2,108,109
 272 140 272 140 272 148 c 2,110,-1
 272 703 l 2,111,112
 272 711 272 711 265 711 c 2,113,-1
 92 711 l 2,114,115
 77 711 77 711 66 721.5 c 128,-1,116
 55 732 55 732 55 747.5 c 128,-1,117
 55 763 55 763 66 773.5 c 128,-1,118
 77 784 77 784 92 784 c 2,119,-1
 486 784 l 2,120,121
 502 784 502 784 512.5 773.5 c 128,-1,122
 523 763 523 763 523 747.5 c 128,-1,123
 523 732 523 732 512.5 721.5 c 128,-1,124
 502 711 502 711 486 711 c 2,125,-1
 354 711 l 2,126,127
 346 711 346 711 346 703 c 2,128,-1
 346 495 l 2,129,130
 346 487 346 487 354 487 c 2,131,-1
 454 487 l 2,132,133
 467 487 467 487 476 478 c 128,-1,134
 485 469 485 469 485 456 c 0,135,136
 485 455 485 455 486 455 c 128,-1,137
 487 455 487 455 488 455 c 0,138,139
 575 592 575 592 620 819 c 0,140,141
 624 835 624 835 637 844 c 0,142,143
 647 851 647 851 658 851 c 0,144,145
 662 851 662 851 666 850 c 0,146,147
 681 848 681 848 690 835 c 128,-1,148
 699 822 699 822 695 806 c 0,149,150
 681 740 681 740 662 675 c 0,151,152
 661 672 661 672 662.5 670 c 128,-1,153
 664 668 664 668 667 668 c 2,154,-1
 943 668 l 2,155,156
 958 668 958 668 968.5 657.5 c 128,-1,15
 979 647 979 647 979 632 c 128,-1,16
EndSplineSet
EndChar

StartChar: cid20759
Encoding: 26178 26178 45
Width: 1024
Flags: W
LayerCount: 2
Fore
SplineSet
300 713 m 2,0,1
 300 721 300 721 293 721 c 2,2,-1
 159 721 l 2,3,4
 152 721 152 721 152 713 c 2,5,-1
 152 501 l 2,6,7
 152 494 152 494 159 494 c 2,8,-1
 293 494 l 2,9,10
 300 494 300 494 300 501 c 2,11,-1
 300 713 l 2,0,1
152 198 m 2,12,13
 152 190 152 190 159 190 c 2,14,-1
 293 190 l 2,15,16
 300 190 300 190 300 198 c 2,17,-1
 300 420 l 2,18,19
 300 427 300 427 293 427 c 2,20,-1
 159 427 l 2,21,22
 152 427 152 427 152 420 c 2,23,-1
 152 198 l 2,12,13
313 790 m 2,24,25
 337 790 337 790 354.5 772.5 c 128,-1,26
 372 755 372 755 372 731 c 2,27,-1
 372 181 l 2,28,29
 372 156 372 156 354.5 139 c 128,-1,30
 337 122 337 122 313 122 c 2,31,-1
 159 122 l 2,32,33
 152 122 152 122 152 114 c 2,34,-1
 152 74 l 2,35,36
 152 59 152 59 141.5 49 c 128,-1,37
 131 39 131 39 116.5 39 c 128,-1,38
 102 39 102 39 92 49 c 128,-1,39
 82 59 82 59 82 74 c 2,40,-1
 82 731 l 2,41,42
 82 755 82 755 99 772.5 c 128,-1,43
 116 790 116 790 141 790 c 2,44,-1
 313 790 l 2,24,25
479 190 m 0,45,46
 471 200 471 200 473 213.5 c 128,-1,47
 475 227 475 227 486 233 c 0,48,49
 500 241 500 241 515.5 239 c 128,-1,50
 531 237 531 237 542 226 c 0,51,52
 597 166 597 166 632 110 c 0,53,54
 640 96 640 96 636 80.5 c 128,-1,55
 632 65 632 65 618 56 c 0,56,57
 605 48 605 48 590.5 52 c 128,-1,58
 576 56 576 56 568 69 c 0,59,60
 532 130 532 130 479 190 c 0,45,46
984 504 m 128,-1,62
 984 490 984 490 974 480 c 128,-1,63
 964 470 964 470 950 470 c 2,64,-1
 862 470 l 2,65,66
 854 470 854 470 854 463 c 2,67,-1
 854 362 l 2,68,69
 854 354 854 354 862 354 c 2,70,-1
 939 354 l 2,71,72
 953 354 953 354 963 344.5 c 128,-1,73
 973 335 973 335 973 321 c 128,-1,74
 973 307 973 307 963 297 c 128,-1,75
 953 287 953 287 939 287 c 2,76,-1
 862 287 l 2,77,78
 854 287 854 287 854 279 c 2,79,-1
 854 12 l 2,80,81
 854 -20 854 -20 844.5 -38 c 128,-1,82
 835 -56 835 -56 812 -65 c 0,83,84
 778 -77 778 -77 683 -77 c 0,85,86
 668 -77 668 -77 655 -66.5 c 128,-1,87
 642 -56 642 -56 637 -40 c 0,88,89
 632 -28 632 -28 639 -17.5 c 128,-1,90
 646 -7 646 -7 659 -7 c 0,91,92
 696 -8 696 -8 721 -8 c 0,93,94
 745 -8 745 -8 758 -7 c 256,95,96
 771 -6 771 -6 775.5 -2 c 128,-1,97
 780 2 780 2 780 13 c 2,98,-1
 780 279 l 2,99,100
 780 287 780 287 773 287 c 2,101,-1
 427 287 l 2,102,103
 413 287 413 287 403 297 c 128,-1,104
 393 307 393 307 393 321 c 128,-1,105
 393 335 393 335 403 344.5 c 128,-1,106
 413 354 413 354 427 354 c 2,107,-1
 773 354 l 2,108,109
 780 354 780 354 780 362 c 2,110,-1
 780 463 l 2,111,112
 780 470 780 470 773 470 c 2,113,-1
 422 470 l 2,114,115
 408 470 408 470 398 480 c 128,-1,116
 388 490 388 490 388 504 c 128,-1,117
 388 518 388 518 398 528 c 128,-1,118
 408 538 408 538 422 538 c 2,119,-1
 638 538 l 2,120,121
 645 538 645 538 645 545 c 2,122,-1
 645 660 l 2,123,124
 645 668 645 668 638 668 c 2,125,-1
 466 668 l 2,126,127
 452 668 452 668 442 677.5 c 128,-1,128
 432 687 432 687 432 701 c 128,-1,129
 432 715 432 715 442 725 c 128,-1,130
 452 735 452 735 466 735 c 2,131,-1
 638 735 l 2,132,133
 645 735 645 735 645 743 c 2,134,-1
 645 820 l 2,135,136
 645 835 645 835 656 846 c 128,-1,137
 667 857 667 857 682.5 857 c 128,-1,138
 698 857 698 857 709 846 c 128,-1,139
 720 835 720 835 720 820 c 2,140,-1
 720 743 l 2,141,142
 720 735 720 735 727 735 c 2,143,-1
 906 735 l 2,144,145
 920 735 920 735 930 725 c 128,-1,146
 940 715 940 715 940 701 c 128,-1,147
 940 687 940 687 930 677.5 c 128,-1,148
 920 668 920 668 906 668 c 2,149,-1
 727 668 l 2,150,151
 720 668 720 668 720 660 c 2,152,-1
 720 545 l 2,153,154
 720 538 720 538 727 538 c 2,155,-1
 950 538 l 2,156,157
 964 538 964 538 974 528 c 128,-1,61
 984 518 984 518 984 504 c 128,-1,62
EndSplineSet
EndChar

StartChar: cid21608
Encoding: 26696 26696 46
Width: 1024
Flags: W
LayerCount: 2
Fore
SplineSet
164 716 m 2,0,1
 157 716 157 716 157 708 c 2,2,-1
 157 670 l 2,3,4
 157 655 157 655 146.5 644.5 c 128,-1,5
 136 634 136 634 121 634 c 128,-1,6
 106 634 106 634 95.5 644.5 c 128,-1,7
 85 655 85 655 85 670 c 2,8,-1
 85 721 l 2,9,10
 85 746 85 746 102.5 763 c 128,-1,11
 120 780 120 780 144 780 c 2,12,-1
 466 780 l 2,13,14
 473 780 473 780 473 788 c 2,15,-1
 473 819 l 2,16,17
 473 834 473 834 484 845 c 128,-1,18
 495 856 495 856 510.5 856 c 128,-1,19
 526 856 526 856 537 845 c 128,-1,20
 548 834 548 834 548 819 c 2,21,-1
 548 788 l 2,22,23
 548 780 548 780 555 780 c 2,24,-1
 884 780 l 2,25,26
 909 780 909 780 926 763 c 128,-1,27
 943 746 943 746 943 721 c 2,28,-1
 943 670 l 2,29,30
 943 655 943 655 932.5 644.5 c 128,-1,31
 922 634 922 634 907 634 c 128,-1,32
 892 634 892 634 881 644.5 c 128,-1,33
 870 655 870 655 870 670 c 2,34,-1
 870 708 l 2,35,36
 870 716 870 716 863 716 c 2,37,-1
 164 716 l 2,0,1
671 540 m 0,38,39
 672 542 672 542 671 544.5 c 128,-1,40
 670 547 670 547 667 547 c 2,41,-1
 396 547 l 2,42,43
 388 547 388 547 384 541 c 0,44,45
 356 506 356 506 342 487 c 0,46,47
 340 485 340 485 341 482.5 c 128,-1,48
 342 480 342 480 344 480 c 0,49,50
 452 459 452 459 551 435 c 0,51,52
 558 433 558 433 565 437 c 0,53,54
 634 475 634 475 671 540 c 0,38,39
295 430 m 0,55,56
 282 416 282 416 266 416 c 0,57,58
 259 416 259 416 252 418 c 2,59,-1
 242 421 l 2,60,61
 230 425 230 425 226.5 437.5 c 128,-1,62
 223 450 223 450 231 460 c 0,63,64
 252 484 252 484 297 541 c 0,65,66
 299 543 299 543 298 545 c 128,-1,67
 297 547 297 547 295 547 c 2,68,-1
 105 547 l 2,69,70
 92 547 92 547 83 556 c 128,-1,71
 74 565 74 565 74 578 c 128,-1,72
 74 591 74 591 83 600 c 128,-1,73
 92 609 92 609 105 609 c 2,74,-1
 343 609 l 2,75,76
 350 609 350 609 355 615 c 0,77,78
 375 641 375 641 398 674 c 0,79,80
 408 687 408 687 424 692 c 0,81,82
 432 695 432 695 441 695 c 0,83,84
 448 695 448 695 455 693 c 0,85,86
 468 689 468 689 472.5 676.5 c 128,-1,87
 477 664 477 664 469 653 c 0,88,89
 457 637 457 637 441 615 c 0,90,91
 439 613 439 613 440 611 c 128,-1,92
 441 609 441 609 444 609 c 2,93,-1
 923 609 l 2,94,95
 936 609 936 609 945 600 c 128,-1,96
 954 591 954 591 954 578 c 128,-1,97
 954 565 954 565 945 556 c 128,-1,98
 936 547 936 547 923 547 c 2,99,-1
 765 547 l 2,100,101
 758 547 758 547 754 540 c 0,102,103
 717 465 717 465 651 415 c 0,104,105
 649 414 649 414 649.5 411.5 c 128,-1,106
 650 409 650 409 652 409 c 0,107,108
 772 378 772 378 871 344 c 0,109,110
 884 339 884 339 887.5 326.5 c 128,-1,111
 891 314 891 314 882 304 c 0,112,113
 872 292 872 292 856.5 288 c 128,-1,114
 841 284 841 284 826 290 c 0,115,116
 732 325 732 325 577 367 c 0,117,118
 569 369 569 369 563 366 c 0,119,120
 426 307 426 307 159 285 c 0,121,122
 145 284 145 284 133 292 c 128,-1,123
 121 300 121 300 116 314 c 0,124,125
 111 324 111 324 117 334 c 128,-1,126
 123 344 123 344 134 345 c 0,127,128
 341 360 341 360 456 393 c 0,129,130
 457 394 457 394 457 395.5 c 128,-1,131
 457 397 457 397 456 397 c 0,132,133
 394 413 394 413 300 432 c 0,134,135
 297 433 297 433 295 430 c 0,55,56
969 205 m 128,-1,137
 969 192 969 192 959.5 182.5 c 128,-1,138
 950 173 950 173 937 173 c 2,139,-1
 619 173 l 2,140,141
 617 173 617 173 616.5 171 c 128,-1,142
 616 169 616 169 617 168 c 0,143,144
 679 117 679 117 768.5 74.5 c 128,-1,145
 858 32 858 32 952 7 c 0,146,147
 965 4 965 4 969 -9 c 0,148,149
 970 -13 970 -13 970 -17 c 0,150,151
 970 -25 970 -25 965 -32 c 0,152,153
 954 -47 954 -47 937 -53 c 0,154,155
 928 -56 928 -56 919 -56 c 0,156,157
 911 -56 911 -56 903 -54 c 0,158,159
 804 -22 804 -22 710.5 31 c 128,-1,160
 617 84 617 84 552 147 c 0,161,162
 551 149 551 149 549 148 c 128,-1,163
 547 147 547 147 547 145 c 2,164,-1
 547 -39 l 2,165,166
 547 -55 547 -55 536 -66 c 128,-1,167
 525 -77 525 -77 509.5 -77 c 128,-1,168
 494 -77 494 -77 483 -66 c 128,-1,169
 472 -55 472 -55 472 -39 c 2,170,-1
 472 141 l 2,171,172
 472 143 472 143 470 144 c 128,-1,173
 468 145 468 145 467 143 c 0,174,175
 403 81 403 81 311.5 29 c 128,-1,176
 220 -23 220 -23 124 -53 c 0,177,178
 116 -56 116 -56 109 -56 c 0,179,180
 100 -56 100 -56 91 -52 c 0,181,182
 75 -46 75 -46 64 -32 c 0,183,184
 56 -22 56 -22 60 -9.5 c 128,-1,185
 64 3 64 3 76 6 c 0,186,187
 169 32 169 32 257.5 75 c 128,-1,188
 346 118 346 118 407 168 c 0,189,190
 408 169 408 169 407.5 171 c 128,-1,191
 407 173 407 173 405 173 c 2,192,-1
 89 173 l 2,193,194
 76 173 76 173 66.5 182.5 c 128,-1,195
 57 192 57 192 57 205 c 128,-1,196
 57 218 57 218 66.5 227.5 c 128,-1,197
 76 237 76 237 89 237 c 2,198,-1
 465 237 l 2,199,200
 472 237 472 237 472 244 c 2,201,-1
 472 284 l 2,202,203
 472 300 472 300 483 311 c 128,-1,204
 494 322 494 322 509.5 322 c 128,-1,205
 525 322 525 322 536 311 c 128,-1,206
 547 300 547 300 547 284 c 2,207,-1
 547 244 l 2,208,209
 547 237 547 237 554 237 c 2,210,-1
 937 237 l 2,211,212
 950 237 950 237 959.5 227.5 c 128,-1,136
 969 218 969 218 969 205 c 128,-1,137
EndSplineSet
EndChar

StartChar: cid22563
Encoding: 27231 27231 47
Width: 1024
Flags: W
LayerCount: 2
Fore
SplineSet
708 456 m 0,0,1
 706 467 706 467 713 476 c 128,-1,2
 720 485 720 485 732 486 c 0,3,4
 735 486 735 486 738 489 c 0,5,6
 767 529 767 529 793 570 c 0,7,8
 797 577 797 577 792 582 c 0,9,10
 759 622 759 622 710 664 c 0,11,12
 701 671 701 671 699.5 681.5 c 128,-1,13
 698 692 698 692 705 701 c 128,-1,14
 712 710 712 710 722.5 711.5 c 128,-1,15
 733 713 733 713 742 706 c 0,16,17
 744 704 744 704 746 706 c 0,18,19
 775 763 775 763 796 817 c 0,20,21
 801 829 801 829 812.5 834.5 c 128,-1,22
 824 840 824 840 836.5 835 c 128,-1,23
 849 830 849 830 853.5 818 c 128,-1,24
 858 806 858 806 852 795 c 0,25,26
 817 729 817 729 786 678 c 0,27,28
 782 672 782 672 788 666 c 0,29,30
 815 639 815 639 822 631 c 0,31,32
 827 626 827 626 831 632 c 0,33,34
 858 678 858 678 878 718 c 0,35,36
 883 729 883 729 895 733.5 c 128,-1,37
 907 738 907 738 919 732 c 0,38,39
 930 727 930 727 933.5 715 c 128,-1,40
 937 703 937 703 930 692 c 0,41,42
 858 571 858 571 804 497 c 0,43,44
 803 495 803 495 804 493 c 128,-1,45
 805 491 805 491 807 491 c 2,46,-1
 901 497 l 2,47,48
 904 497 904 497 905 499.5 c 128,-1,49
 906 502 906 502 905 504 c 0,50,51
 898 520 898 520 891 534 c 0,52,53
 886 543 886 543 889.5 552.5 c 128,-1,54
 893 562 893 562 902 566 c 0,55,56
 912 570 912 570 922.5 566.5 c 128,-1,57
 933 563 933 563 938 553 c 0,58,59
 968 498 968 498 982 454 c 0,60,61
 986 443 986 443 981 432.5 c 128,-1,62
 976 422 976 422 965 416 c 0,63,64
 955 412 955 412 946 416.5 c 128,-1,65
 937 421 937 421 933 431 c 0,66,67
 932 436 932 436 930 442 c 0,68,69
 928 446 928 446 923 446 c 0,70,71
 905 444 905 444 743 430 c 0,72,73
 730 429 730 429 720 436.5 c 128,-1,74
 710 444 710 444 708 456 c 0,0,1
355 444 m 0,75,76
 353 456 353 456 360.5 465.5 c 128,-1,77
 368 475 368 475 380 476 c 2,78,-1
 381 476 l 2,79,80
 385 476 385 476 387 479 c 0,81,82
 412 513 412 513 450 569 c 0,83,84
 454 576 454 576 449 581 c 0,85,86
 415 621 415 621 365 663 c 0,87,88
 357 670 357 670 355.5 681 c 128,-1,89
 354 692 354 692 361 701 c 128,-1,90
 368 710 368 710 378.5 711.5 c 128,-1,91
 389 713 389 713 398 706 c 1,92,-1
 399 706 l 2,93,94
 401 703 401 703 403 707 c 0,95,96
 430 759 430 759 452 817 c 0,97,98
 457 829 457 829 468.5 834.5 c 128,-1,99
 480 840 480 840 493 835 c 0,100,101
 504 830 504 830 508.5 818 c 128,-1,102
 513 806 513 806 507 795 c 0,103,104
 462 709 462 709 443 677 c 0,105,106
 439 671 439 671 445 666 c 0,107,108
 465 647 465 647 479 631 c 0,109,110
 483 626 483 626 487 632 c 0,111,112
 514 678 514 678 534 718 c 0,113,114
 539 729 539 729 551 733.5 c 128,-1,115
 563 738 563 738 574 732 c 0,116,117
 586 727 586 727 589.5 715 c 128,-1,118
 593 703 593 703 587 692 c 0,119,120
 511 565 511 565 453 486 c 0,121,122
 452 484 452 484 453 482.5 c 128,-1,123
 454 481 454 481 456 481 c 2,124,-1
 541 486 l 2,125,126
 549 486 549 486 546 493 c 0,127,128
 540 511 540 511 532 527 c 0,129,130
 528 536 528 536 531.5 545.5 c 128,-1,131
 535 555 535 555 545 559 c 0,132,133
 555 562 555 562 565 558.5 c 128,-1,134
 575 555 575 555 580 545 c 0,135,136
 605 496 605 496 619 446 c 0,137,138
 623 435 623 435 617.5 424.5 c 128,-1,139
 612 414 612 414 601 409 c 0,140,141
 591 405 591 405 582 410 c 128,-1,142
 573 415 573 415 570 425 c 0,143,144
 569 427 569 427 569 429 c 0,145,146
 567 433 567 433 563 433 c 0,147,148
 501 428 501 428 391 417 c 0,149,150
 378 415 378 415 367.5 423 c 128,-1,151
 357 431 357 431 355 444 c 0,75,76
828 228 m 0,152,153
 835 241 835 241 848.5 246.5 c 128,-1,154
 862 252 862 252 876 247 c 0,155,156
 889 242 889 242 894 229 c 128,-1,157
 899 216 899 216 892 203 c 0,158,159
 854 135 854 135 795 75 c 0,160,161
 789 70 789 70 793 63 c 0,162,163
 836 -14 836 -14 891 -14 c 0,164,165
 911 -14 911 -14 920.5 4 c 128,-1,166
 930 22 930 22 935 71 c 0,167,168
 936 81 936 81 944.5 84.5 c 128,-1,169
 953 88 953 88 961 83 c 0,170,171
 986 68 986 68 986 44 c 0,172,173
 986 41 986 41 985 38 c 0,174,175
 975 -29 975 -29 954 -54.5 c 128,-1,176
 933 -80 933 -80 887 -80 c 0,177,178
 802 -80 802 -80 742 19 c 0,179,180
 738 26 738 26 732 21 c 0,181,182
 667 -29 667 -29 589 -64 c 0,183,184
 576 -70 576 -70 563 -66.5 c 128,-1,185
 550 -63 550 -63 540 -52 c 0,186,187
 533 -43 533 -43 535.5 -32 c 128,-1,188
 538 -21 538 -21 548 -16 c 0,189,190
 639 23 639 23 705 79 c 0,191,192
 711 84 711 84 708 91 c 0,193,194
 679 165 679 165 660 268 c 0,195,196
 658 275 658 275 651 275 c 2,197,-1
 506 275 l 2,198,199
 499 275 499 275 498 268 c 0,200,201
 498 261 498 261 493 223 c 0,202,203
 493 216 493 216 499 212 c 0,204,205
 562 173 562 173 608 137 c 0,206,207
 619 129 619 129 620 114.5 c 128,-1,208
 621 100 621 100 612 90 c 0,209,210
 604 79 604 79 590 78 c 128,-1,211
 576 77 576 77 566 86 c 0,212,213
 530 115 530 115 486 146 c 0,214,215
 480 151 480 151 479 143 c 0,216,217
 463 81 463 81 437.5 31.5 c 128,-1,218
 412 -18 412 -18 373 -54 c 0,219,220
 362 -63 362 -63 348.5 -61.5 c 128,-1,221
 335 -60 335 -60 325 -49 c 0,222,223
 316 -39 316 -39 316.5 -26 c 128,-1,224
 317 -13 317 -13 327 -4 c 0,225,226
 376 41 376 41 399 109 c 128,-1,227
 422 177 422 177 430 268 c 0,228,229
 431 275 431 275 424 275 c 2,230,-1
 409 275 l 2,231,232
 388 275 388 275 373 290 c 128,-1,233
 358 305 358 305 358 326 c 2,234,-1
 358 327 l 2,235,236
 358 328 358 328 357 328.5 c 128,-1,237
 356 329 356 329 355 328 c 0,238,239
 346 315 346 315 329.5 316.5 c 128,-1,240
 313 318 313 318 306 332 c 0,241,242
 286 375 286 375 258 428 c 0,243,244
 257 429 257 429 255.5 428.5 c 128,-1,245
 254 428 254 428 254 427 c 2,246,-1
 254 -42 l 2,247,248
 254 -57 254 -57 244 -67 c 128,-1,249
 234 -77 234 -77 219.5 -77 c 128,-1,250
 205 -77 205 -77 195 -67 c 128,-1,251
 185 -57 185 -57 185 -42 c 2,252,-1
 185 389 l 2,253,254
 185 390 185 390 184.5 390 c 128,-1,255
 184 390 184 390 183 389 c 0,256,257
 141 241 141 241 91 150 c 0,258,259
 86 139 86 139 74 139.5 c 128,-1,260
 62 140 62 140 55 150 c 0,261,262
 46 166 46 166 46 182 c 0,263,264
 46 197 46 197 54 213 c 0,265,266
 91 277 91 277 124.5 371.5 c 128,-1,267
 158 466 158 466 177 559 c 0,268,269
 178 566 178 566 171 566 c 2,270,-1
 91 566 l 2,271,272
 77 566 77 566 66.5 576.5 c 128,-1,273
 56 587 56 587 56 601.5 c 128,-1,274
 56 616 56 616 66.5 626 c 128,-1,275
 77 636 77 636 91 636 c 2,276,-1
 178 636 l 2,277,278
 185 636 185 636 185 643 c 2,279,-1
 185 823 l 2,280,281
 185 837 185 837 195 847 c 128,-1,282
 205 857 205 857 219.5 857 c 128,-1,283
 234 857 234 857 244 847 c 128,-1,284
 254 837 254 837 254 823 c 2,285,-1
 254 643 l 2,286,287
 254 636 254 636 261 636 c 2,288,-1
 330 636 l 2,289,290
 344 636 344 636 354.5 626 c 128,-1,291
 365 616 365 616 365 601.5 c 128,-1,292
 365 587 365 587 354.5 576.5 c 128,-1,293
 344 566 344 566 330 566 c 2,294,-1
 261 566 l 2,295,296
 254 566 254 566 254 559 c 2,297,-1
 254 528 l 2,298,299
 254 520 254 520 258 514 c 0,300,301
 315 433 315 433 362 349 c 0,302,303
 366 343 366 343 362 338 c 0,304,305
 362 337 362 337 362 337 c 1,306,-1
 641 337 l 2,307,308
 648 337 648 337 647 344 c 0,309,310
 619 536 619 536 616 822 c 0,311,312
 616 836 616 836 626 846 c 128,-1,313
 636 856 636 856 650 856 c 128,-1,314
 664 856 664 856 674 846 c 128,-1,315
 684 836 684 836 684 822 c 0,316,317
 684 816 684 816 684 809 c 0,318,319
 684 547 684 547 714 344 c 0,320,321
 715 337 715 337 722 337 c 2,322,-1
 847 337 l 2,323,324
 848 337 848 337 849 338.5 c 128,-1,325
 850 340 850 340 848 342 c 0,326,327
 819 365 819 365 790 383 c 0,328,329
 782 389 782 389 780.5 398.5 c 128,-1,330
 779 408 779 408 786 415 c 0,331,332
 797 426 797 426 809 426 c 0,333,334
 817 426 817 426 826 421 c 0,335,336
 864 399 864 399 892 378 c 0,337,338
 900 371 900 371 900.5 359.5 c 128,-1,339
 901 348 901 348 893 339 c 1,340,341
 893 339 893 339 893.5 338 c 128,-1,342
 894 337 894 337 894 337 c 1,343,-1
 944 337 l 2,344,345
 957 337 957 337 966 328 c 128,-1,346
 975 319 975 319 975 306 c 128,-1,347
 975 293 975 293 966 284 c 128,-1,348
 957 275 957 275 944 275 c 2,349,-1
 732 275 l 2,350,351
 725 275 725 275 726 268 c 0,352,353
 740 196 740 196 759 141 c 0,354,355
 760 139 760 139 762.5 138.5 c 128,-1,356
 765 138 765 138 767 140 c 0,357,358
 803 182 803 182 828 228 c 0,152,153
EndSplineSet
EndChar

StartChar: uni6C11
Encoding: 27665 27665 48
Width: 1024
Flags: W
LayerCount: 2
Fore
SplineSet
242 390 m 2,0,1
 242 383 242 383 250 383 c 2,2,-1
 524 383 l 2,3,4
 531 383 531 383 530 390 c 0,5,6
 518 449 518 449 514 515 c 0,7,8
 513 522 513 522 506 522 c 2,9,-1
 250 522 l 2,10,11
 242 522 242 522 242 515 c 2,12,-1
 242 390 l 2,0,1
811 748 m 2,13,14
 811 756 811 756 804 756 c 2,15,-1
 250 756 l 2,16,17
 242 756 242 756 242 748 c 2,18,-1
 242 600 l 2,19,20
 242 593 242 593 250 593 c 2,21,-1
 804 593 l 2,22,23
 811 593 811 593 811 600 c 2,24,-1
 811 748 l 2,13,14
963 347.5 m 128,-1,26
 963 333 963 333 952.5 322.5 c 128,-1,27
 942 312 942 312 928 312 c 2,28,-1
 636 312 l 2,29,30
 633 312 633 312 631 310 c 128,-1,31
 629 308 629 308 630 305 c 0,32,33
 669 178 669 178 733 100 c 0,34,35
 798 20 798 20 867 20 c 0,36,37
 868 20 868 20 869 20 c 0,38,39
 892 21 892 21 902 54 c 0,40,41
 910 80 910 80 914 133 c 0,42,43
 915 145 915 145 926 150.5 c 128,-1,44
 937 156 937 156 948 150 c 0,45,46
 964 142 964 142 973 128 c 0,47,48
 980 116 980 116 980 103 c 0,49,50
 980 101 980 101 980 98 c 0,51,52
 970 18 970 18 949 -14 c 0,53,54
 923 -54 923 -54 865 -54 c 0,55,56
 864 -54 864 -54 863 -54 c 0,57,58
 762 -54 762 -54 678 46 c 0,59,60
 595 146 595 146 550 305 c 0,61,62
 548 312 548 312 540 312 c 2,63,-1
 250 312 l 2,64,65
 242 312 242 312 242 304 c 2,66,-1
 242 68 l 2,67,68
 242 61 242 61 249 62 c 0,69,70
 305 69 305 69 410 84 c 0,71,72
 484 94 484 94 526 101 c 0,73,74
 541 103 541 103 552.5 93.5 c 128,-1,75
 564 84 564 84 564 69 c 0,76,77
 565 53 565 53 555 41 c 128,-1,78
 545 29 545 29 529 26 c 0,79,80
 311 -7 311 -7 116 -36 c 0,81,82
 113 -37 113 -37 109 -37 c 0,83,84
 96 -37 96 -37 85 -29 c 0,85,86
 71 -19 71 -19 67 -2 c 0,87,88
 66 2 66 2 66 6 c 0,89,90
 66 17 66 17 73 27 c 0,91,92
 82 40 82 40 98 42 c 2,93,-1
 158 50 l 2,94,95
 165 51 165 51 165 58 c 2,96,-1
 165 767 l 2,97,98
 165 791 165 791 182.5 808.5 c 128,-1,99
 200 826 200 826 224 826 c 2,100,-1
 829 826 l 2,101,102
 853 826 853 826 870.5 808.5 c 128,-1,103
 888 791 888 791 888 767 c 2,104,-1
 888 581 l 2,105,106
 888 557 888 557 870.5 539.5 c 128,-1,107
 853 522 853 522 829 522 c 2,108,-1
 598 522 l 2,109,110
 590 522 590 522 590 515 c 0,111,112
 595 455 595 455 608 390 c 0,113,114
 609 383 609 383 616 383 c 2,115,-1
 928 383 l 2,116,117
 942 383 942 383 952.5 372.5 c 128,-1,25
 963 362 963 362 963 347.5 c 128,-1,26
EndSplineSet
EndChar

StartChar: cid23411
Encoding: 27683 27683 49
Width: 1024
Flags: W
LayerCount: 2
Fore
SplineSet
940 732.5 m 128,-1,1
 940 720 940 720 931 711 c 128,-1,2
 922 702 922 702 910 702 c 2,3,-1
 288 702 l 2,4,5
 281 702 281 702 277 696 c 0,6,7
 218 602 218 602 146 529 c 0,8,9
 133 516 133 516 114 516 c 0,10,11
 113 515 113 515 111 515 c 0,12,13
 94 515 94 515 80 525 c 256,14,15
 66 535 66 535 66 552 c 0,16,17
 66 567 66 567 77 576 c 0,18,19
 189 676 189 676 255 821 c 0,20,21
 262 837 262 837 277 844 c 0,22,23
 287 849 287 849 298 849 c 0,24,25
 304 849 304 849 310 848 c 0,26,27
 326 844 326 844 333 829.5 c 128,-1,28
 340 815 340 815 333 800 c 0,29,30
 326 784 326 784 318 770 c 0,31,32
 317 767 317 767 318 765 c 128,-1,33
 319 763 319 763 322 763 c 2,34,-1
 910 763 l 2,35,36
 922 763 922 763 931 754 c 128,-1,0
 940 745 940 745 940 732.5 c 128,-1,1
863 608 m 128,-1,38
 863 596 863 596 854.5 588 c 128,-1,39
 846 580 846 580 835 580 c 2,40,-1
 284 580 l 2,41,42
 272 580 272 580 263.5 588 c 128,-1,43
 255 596 255 596 255 608 c 128,-1,44
 255 620 255 620 263.5 628.5 c 128,-1,45
 272 637 272 637 284 637 c 2,46,-1
 835 637 l 2,47,48
 846 637 846 637 854.5 628.5 c 128,-1,37
 863 620 863 620 863 608 c 128,-1,38
395 430 m 128,-1,50
 410 430 410 430 420.5 419.5 c 128,-1,51
 431 409 431 409 431 394 c 2,52,-1
 431 258 l 2,53,54
 431 251 431 251 439 251 c 2,55,-1
 668 251 l 2,56,57
 680 251 680 251 689 242 c 128,-1,58
 698 233 698 233 698 220 c 128,-1,59
 698 207 698 207 689 198 c 128,-1,60
 680 189 680 189 668 189 c 2,61,-1
 437 189 l 2,62,63
 431 189 431 189 431 184 c 2,64,-1
 431 179 l 1,65,-1
 431 178 l 2,66,67
 433 180 433 180 435 179 c 0,68,69
 568 106 568 106 660 36 c 0,70,71
 671 28 671 28 671.5 14 c 128,-1,72
 672 0 672 0 662 -10 c 256,73,74
 652 -20 652 -20 637 -20 c 128,-1,75
 622 -20 622 -20 611 -11 c 0,76,77
 543 44 543 44 437 108 c 0,78,79
 435 109 435 109 433 108 c 128,-1,80
 431 107 431 107 431 104 c 2,81,-1
 431 -40 l 2,82,83
 431 -56 431 -56 420.5 -66.5 c 128,-1,84
 410 -77 410 -77 395 -77 c 128,-1,85
 380 -77 380 -77 369 -66.5 c 128,-1,86
 358 -56 358 -56 358 -40 c 2,87,-1
 358 148 l 2,88,89
 358 150 358 150 356.5 150.5 c 128,-1,90
 355 151 355 151 354 150 c 0,91,92
 264 36 264 36 138 -39 c 0,93,94
 125 -47 125 -47 109.5 -44 c 128,-1,95
 94 -41 94 -41 84 -28 c 0,96,97
 77 -20 77 -20 77 -11 c 0,98,99
 77 -8 77 -8 77 -5 c 0,100,101
 80 8 80 8 91 14 c 0,102,103
 148 44 148 44 204.5 89.5 c 128,-1,104
 261 135 261 135 302 184 c 0,105,106
 304 185 304 185 303 187 c 128,-1,107
 302 189 302 189 300 189 c 2,108,-1
 116 189 l 2,109,110
 103 189 103 189 94 198 c 128,-1,111
 85 207 85 207 85 220 c 128,-1,112
 85 233 85 233 94 242 c 128,-1,113
 103 251 103 251 116 251 c 2,114,-1
 351 251 l 2,115,116
 358 251 358 251 358 258 c 2,117,-1
 358 394 l 2,118,119
 358 409 358 409 369 419.5 c 128,-1,49
 380 430 380 430 395 430 c 128,-1,50
174 362 m 0,120,121
 167 372 167 372 170 383.5 c 128,-1,122
 173 395 173 395 183 400 c 0,123,124
 196 406 196 406 209.5 402.5 c 128,-1,125
 223 399 223 399 232 388 c 0,126,127
 262 349 262 349 280 313 c 0,128,129
 286 301 286 301 281 288.5 c 128,-1,130
 276 276 276 276 263 270 c 0,131,132
 251 265 251 265 239 270 c 128,-1,133
 227 275 227 275 221 287 c 0,134,135
 203 324 203 324 174 362 c 0,120,121
562 387 m 0,136,137
 570 400 570 400 584.5 405 c 128,-1,138
 599 410 599 410 613 405 c 0,139,140
 625 400 625 400 629 387 c 128,-1,141
 633 374 633 374 625 364 c 0,142,143
 585 311 585 311 554 276 c 0,144,145
 542 263 542 263 528 263 c 0,146,147
 520 263 520 263 511 267 c 0,148,149
 502 272 502 272 499.5 282 c 128,-1,150
 497 292 497 292 503 300 c 0,151,152
 535 343 535 343 562 387 c 0,136,137
151 481.5 m 128,-1,154
 151 494 151 494 159.5 503 c 128,-1,155
 168 512 168 512 181 512 c 2,156,-1
 746 512 l 2,157,158
 770 512 770 512 787.5 495 c 128,-1,159
 805 478 805 478 806 453 c 0,160,161
 818 -3 818 -3 904 -3 c 0,162,163
 926 -3 926 -3 931 109 c 0,164,165
 931 119 931 119 940 122.5 c 128,-1,166
 949 126 949 126 956 119 c 0,167,168
 981 97 981 97 981 70 c 0,169,170
 981 -2 981 -2 958 -45 c 0,171,172
 940 -77 940 -77 899 -77 c 0,173,174
 867 -77 867 -77 842 -59.5 c 128,-1,175
 817 -42 817 -42 799.5 -7 c 128,-1,176
 782 28 782 28 769.5 71.5 c 128,-1,177
 757 115 757 115 749.5 177.5 c 128,-1,178
 742 240 742 240 738 301.5 c 128,-1,179
 734 363 734 363 731 444 c 0,180,181
 731 452 731 452 724 452 c 2,182,-1
 181 452 l 2,183,184
 168 452 168 452 159.5 460.5 c 128,-1,153
 151 469 151 469 151 481.5 c 128,-1,154
EndSplineSet
EndChar

StartChar: uni6C34
Encoding: 27700 27700 50
Width: 1024
Flags: W
LayerCount: 2
Fore
SplineSet
356 619 m 0,0,1
 370 622 370 622 384 617 c 2,2,-1
 395 612 l 2,3,4
 406 608 406 608 411.5 598 c 128,-1,5
 417 588 417 588 415 577 c 0,6,7
 377 398 377 398 298 265 c 0,8,9
 225 144 225 144 130 68 c 0,10,11
 118 59 118 59 104 59 c 0,12,13
 101 59 101 59 98 60 c 0,14,15
 80 62 80 62 67 76 c 0,16,17
 57 86 57 86 57 100 c 0,18,19
 57 118 57 118 70 128 c 0,20,21
 151 188 151 188 214 281 c 0,22,23
 288 391 288 391 324 536 c 0,24,25
 325 539 325 539 323 541 c 128,-1,26
 321 543 321 543 318 543 c 2,27,-1
 97 543 l 2,28,29
 81 543 81 543 70 554 c 128,-1,30
 59 565 59 565 59 581 c 128,-1,31
 59 597 59 597 70 608 c 128,-1,32
 81 619 81 619 97 619 c 2,33,-1
 352 619 l 2,34,35
 354 619 354 619 356 619 c 0,0,1
856 681 m 0,36,37
 867 695 867 695 885 697 c 0,38,39
 888 698 888 698 891 698 c 0,40,41
 905 698 905 698 916 690 c 0,42,43
 930 680 930 680 931.5 663 c 128,-1,44
 933 646 933 646 922 634 c 0,45,46
 793 497 793 497 677 405 c 0,47,48
 671 400 671 400 675 394 c 0,49,50
 789 197 789 197 950 111 c 0,51,52
 964 104 964 104 967 88 c 0,53,54
 967 85 967 85 967 82 c 0,55,56
 967 70 967 70 959 60 c 0,57,58
 946 45 946 45 929 40 c 0,59,60
 923 39 923 39 916 39 c 0,61,62
 905 39 905 39 894 44 c 0,63,64
 678 171 678 171 556 485 c 0,65,66
 555 486 555 486 554 486 c 128,-1,67
 553 486 553 486 553 484 c 2,68,-1
 553 53 l 2,69,70
 553 13 553 13 542 -8 c 128,-1,71
 531 -29 531 -29 505 -40 c 0,72,73
 470 -53 470 -53 361 -56 c 2,74,75
 361 -56 361 -56 360 -56 c 0,76,77
 342 -56 342 -56 328 -44 c 0,78,79
 313 -32 313 -32 306 -13 c 0,80,81
 303 -8 303 -8 303 -2 c 0,82,83
 303 6 303 6 308 13 c 0,84,85
 316 26 316 26 331 26 c 0,86,87
 377 25 377 25 446 25 c 0,88,89
 474 26 474 26 474 53 c 2,90,-1
 474 838 l 2,91,92
 474 854 474 854 485.5 865.5 c 128,-1,93
 497 877 497 877 513.5 877 c 128,-1,94
 530 877 530 877 541.5 865.5 c 128,-1,95
 553 854 553 854 553 838 c 2,96,-1
 553 700 l 2,97,98
 553 692 553 692 555 685 c 0,99,100
 588 565 588 565 636 467 c 0,101,102
 639 460 639 460 645 465 c 0,103,104
 774 579 774 579 856 681 c 0,36,37
EndSplineSet
EndChar

StartChar: cid23651
Encoding: 27841 27841 51
Width: 1024
Flags: W
LayerCount: 2
Fore
SplineSet
308 774 m 0,0,1
 322 765 322 765 325 749 c 128,-1,2
 328 733 328 733 318 719 c 0,3,4
 310 707 310 707 294.5 704.5 c 128,-1,5
 279 702 279 702 266 711 c 0,6,7
 214 747 214 747 141 780 c 0,8,9
 128 785 128 785 124.5 798 c 128,-1,10
 121 811 121 811 129 822 c 0,11,12
 138 834 138 834 153 839 c 0,13,14
 159 841 159 841 166 841 c 0,15,16
 174 841 174 841 182 838 c 0,17,18
 255 808 255 808 308 774 c 0,0,1
256 495 m 0,19,20
 270 488 270 488 273.5 472 c 128,-1,21
 277 456 277 456 268 442 c 0,22,23
 260 429 260 429 244.5 426 c 128,-1,24
 229 423 229 423 216 431 c 0,25,26
 156 466 156 466 76 498 c 0,27,28
 64 503 64 503 60 515 c 0,29,30
 58 520 58 520 58 524 c 0,31,32
 58 532 58 532 63 539 c 0,33,34
 72 552 72 552 87 557 c 128,-1,35
 102 562 102 562 116 557 c 0,36,37
 197 528 197 528 256 495 c 0,19,20
274 290 m 0,38,39
 280 302 280 302 294 304.5 c 128,-1,40
 308 307 308 307 318 298 c 0,41,42
 330 288 330 288 333 272.5 c 128,-1,43
 336 257 336 257 328 243 c 0,44,45
 247 90 247 90 168 -33 c 0,46,47
 160 -47 160 -47 144 -49.5 c 128,-1,48
 128 -52 128 -52 115 -42 c 0,49,50
 101 -32 101 -32 99 -15 c 0,51,52
 99 -12 99 -12 99 -8 c 0,53,54
 99 4 99 4 106 15 c 0,55,56
 194 143 194 143 274 290 c 0,38,39
474 739 m 2,57,58
 467 739 467 739 467 732 c 2,59,-1
 467 473 l 2,60,61
 467 466 467 466 474 466 c 2,62,-1
 837 466 l 2,63,64
 845 466 845 466 845 473 c 2,65,-1
 845 732 l 2,66,67
 845 739 845 739 837 739 c 2,68,-1
 474 739 l 2,57,58
801 -2 m 2,69,-1
 884 -2 l 2,70,71
 901 -2 901 -2 907.5 20.5 c 128,-1,72
 914 43 914 43 916 116 c 0,73,74
 917 128 917 128 927.5 133.5 c 128,-1,75
 938 139 938 139 949 134 c 0,76,77
 965 128 965 128 974 115 c 0,78,79
 982 103 982 103 982 90 c 0,80,81
 982 7 982 7 956 -36 c 0,82,83
 937 -69 937 -69 890 -69 c 2,84,-1
 790 -69 l 2,85,86
 733 -69 733 -69 714 -47.5 c 128,-1,87
 695 -26 695 -26 695 34 c 2,88,-1
 695 387 l 2,89,90
 695 394 695 394 688 394 c 2,91,-1
 584 394 l 2,92,93
 577 394 577 394 576 387 c 0,94,95
 573 316 573 316 566 264 c 128,-1,96
 559 212 559 212 544 159.5 c 128,-1,97
 529 107 529 107 505.5 68.5 c 128,-1,98
 482 30 482 30 445 -4 c 128,-1,99
 408 -38 408 -38 357 -63 c 0,100,101
 342 -70 342 -70 326.5 -65 c 128,-1,102
 311 -60 311 -60 301 -46 c 0,103,104
 295 -38 295 -38 295 -29 c 0,105,106
 295 -25 295 -25 296 -22 c 0,107,108
 299 -8 299 -8 311 -2 c 0,109,110
 357 19 357 19 389.5 48 c 128,-1,111
 422 77 422 77 442 110 c 128,-1,112
 462 143 462 143 474.5 189 c 128,-1,113
 487 235 487 235 492.5 279 c 128,-1,114
 498 323 498 323 501 387 c 0,115,116
 502 394 502 394 494 394 c 2,117,-1
 452 394 l 2,118,119
 428 394 428 394 410.5 411.5 c 128,-1,120
 393 429 393 429 393 453 c 2,121,-1
 393 751 l 2,122,123
 393 775 393 775 410.5 792.5 c 128,-1,124
 428 810 428 810 452 810 c 2,125,-1
 864 810 l 2,126,127
 888 810 888 810 905.5 792.5 c 128,-1,128
 923 775 923 775 923 751 c 2,129,-1
 923 453 l 2,130,131
 923 429 923 429 905.5 411.5 c 128,-1,132
 888 394 888 394 864 394 c 2,133,-1
 779 394 l 2,134,135
 771 394 771 394 771 387 c 2,136,-1
 771 35 l 2,137,138
 771 12 771 12 776.5 5 c 128,-1,139
 782 -2 782 -2 801 -2 c 2,69,-1
EndSplineSet
EndChar

StartChar: cid23821
Encoding: 27954 27954 52
Width: 1024
Flags: W
LayerCount: 2
Fore
SplineSet
334 320 m 0,0,1
 328 308 328 308 314.5 304.5 c 128,-1,2
 301 301 301 301 289 308 c 0,3,4
 277 314 277 314 273.5 327 c 128,-1,5
 270 340 270 340 277 352 c 0,6,7
 314 423 314 423 338 538 c 0,8,9
 340 550 340 550 350 556 c 128,-1,10
 360 562 360 562 371 559 c 0,11,12
 383 555 383 555 390 544 c 128,-1,13
 397 533 397 533 395 521 c 0,14,15
 372 395 372 395 334 320 c 0,0,1
268 763 m 0,16,17
 281 754 281 754 282.5 738 c 128,-1,18
 284 722 284 722 274 709 c 0,19,20
 265 697 265 697 249.5 695.5 c 128,-1,21
 234 694 234 694 222 704 c 0,22,23
 177 738 177 738 118 774 c 0,24,25
 106 781 106 781 103.5 794.5 c 128,-1,26
 101 808 101 808 110 819 c 0,27,28
 119 831 119 831 134.5 833.5 c 128,-1,29
 150 836 150 836 163 829 c 0,30,31
 224 794 224 794 268 763 c 0,16,17
227 496 m 0,32,33
 241 488 241 488 243.5 472.5 c 128,-1,34
 246 457 246 457 237 444 c 256,35,36
 228 431 228 431 212.5 428.5 c 128,-1,37
 197 426 197 426 184 435 c 0,38,39
 140 465 140 465 74 501 c 0,40,41
 62 507 62 507 59 521 c 0,42,43
 58 524 58 524 58 527 c 0,44,45
 58 537 58 537 65 545 c 0,46,47
 74 557 74 557 89 560.5 c 128,-1,48
 104 564 104 564 118 557 c 0,49,50
 180 526 180 526 227 496 c 0,32,33
149 -29 m 0,51,52
 142 -44 142 -44 127 -49 c 128,-1,53
 112 -54 112 -54 98 -46 c 0,54,55
 83 -37 83 -37 79 -21 c 0,56,57
 77 -15 77 -15 77 -9 c 0,58,59
 77 1 77 1 81 10 c 0,60,61
 140 130 140 130 192 266 c 0,62,63
 197 279 197 279 210 283 c 128,-1,64
 223 287 223 287 235 280 c 0,65,66
 248 271 248 271 253 255.5 c 128,-1,67
 258 240 258 240 253 225 c 0,68,69
 204 92 204 92 149 -29 c 0,51,52
424 478 m 2,70,-1
 424 798 l 2,71,72
 424 813 424 813 434.5 823.5 c 128,-1,73
 445 834 445 834 460 834 c 128,-1,74
 475 834 475 834 485.5 823.5 c 128,-1,75
 496 813 496 813 496 798 c 2,76,-1
 496 478 l 2,77,78
 496 398 496 398 491.5 336.5 c 128,-1,79
 487 275 487 275 475 204 c 128,-1,80
 463 133 463 133 437 70 c 128,-1,81
 411 7 411 7 371 -48 c 0,82,83
 362 -61 362 -61 346 -62.5 c 128,-1,84
 330 -64 330 -64 317 -54 c 0,85,86
 304 -46 304 -46 302 -31 c 0,87,88
 301 -27 301 -27 301 -24 c 0,89,90
 301 -13 301 -13 308 -3 c 0,91,92
 345 47 345 47 369.5 105 c 128,-1,93
 394 163 394 163 405 228 c 128,-1,94
 416 293 416 293 420 349 c 128,-1,95
 424 405 424 405 424 478 c 2,70,-1
511 506 m 0,96,97
 509 511 509 511 509 516 c 0,98,99
 509 522 509 522 511 528 c 0,100,101
 516 539 516 539 527 543 c 256,102,103
 538 547 538 547 549.5 542.5 c 128,-1,104
 561 538 561 538 566 526 c 0,105,106
 601 442 601 442 618 364 c 0,107,108
 621 350 621 350 614 338 c 128,-1,109
 607 326 607 326 594 322 c 0,110,111
 583 317 583 317 572.5 323 c 128,-1,112
 562 329 562 329 560 341 c 0,113,114
 543 422 543 422 511 506 c 0,96,97
860 798 m 2,115,116
 860 813 860 813 871 824 c 128,-1,117
 882 835 882 835 897 835 c 128,-1,118
 912 835 912 835 923 824 c 128,-1,119
 934 813 934 813 934 798 c 2,120,-1
 934 -41 l 2,121,122
 934 -56 934 -56 923 -67 c 128,-1,123
 912 -78 912 -78 897 -78 c 128,-1,124
 882 -78 882 -78 871 -67 c 128,-1,125
 860 -56 860 -56 860 -41 c 2,126,-1
 860 328 l 2,127,128
 860 330 860 330 858 331.5 c 128,-1,129
 856 333 856 333 854 332 c 0,130,131
 845 328 845 328 835 328 c 0,132,133
 826 328 826 328 817 332 c 0,134,135
 799 340 799 340 792 359 c 0,136,137
 762 445 762 445 713 530 c 0,138,139
 713 531 713 531 711.5 531 c 128,-1,140
 710 531 710 531 710 529 c 2,141,-1
 710 -19 l 2,142,143
 710 -34 710 -34 699.5 -44.5 c 128,-1,144
 689 -55 689 -55 674 -55 c 128,-1,145
 659 -55 659 -55 648.5 -44.5 c 128,-1,146
 638 -34 638 -34 638 -19 c 2,147,-1
 638 783 l 2,148,149
 638 798 638 798 648.5 808.5 c 128,-1,150
 659 819 659 819 674 819 c 128,-1,151
 689 819 689 819 699.5 808.5 c 128,-1,152
 710 798 710 798 710 783 c 2,153,-1
 710 556 l 2,154,155
 710 550 710 550 715 552 c 0,156,157
 726 557 726 557 737 557 c 0,158,159
 745 557 745 557 754 554 c 0,160,161
 774 547 774 547 784 529 c 0,162,163
 832 444 832 444 858 368 c 0,164,165
 858 367 858 367 859 367 c 128,-1,166
 860 367 860 367 860 368 c 2,167,-1
 860 798 l 2,115,116
EndSplineSet
EndChar

StartChar: cid23946
Encoding: 28040 28040 53
Width: 1024
Flags: W
LayerCount: 2
Fore
SplineSet
864 793 m 0,0,1
 872 807 872 807 887 813.5 c 128,-1,2
 902 820 902 820 917 814 c 256,3,4
 932 808 932 808 937 793 c 0,5,6
 939 787 939 787 939 781 c 0,7,8
 939 772 939 772 935 764 c 0,9,10
 895 691 895 691 858 636 c 0,11,12
 849 623 849 623 834 619 c 128,-1,13
 819 615 819 615 805 621 c 0,14,15
 792 626 792 626 788 639.5 c 128,-1,16
 784 653 784 653 792 664 c 0,17,18
 834 729 834 729 864 793 c 0,0,1
238 484 m 0,19,20
 251 474 251 474 252.5 458 c 128,-1,21
 254 442 254 442 245 430 c 256,22,23
 236 418 236 418 221 416.5 c 128,-1,24
 206 415 206 415 194 424 c 0,25,26
 143 465 143 465 73 506 c 0,27,28
 61 512 61 512 59 525 c 0,29,30
 58 528 58 528 58 531 c 0,31,32
 58 541 58 541 65 549 c 0,33,34
 74 561 74 561 88.5 564 c 128,-1,35
 103 567 103 567 116 560 c 0,36,37
 188 521 188 521 238 484 c 0,19,20
159 -32 m 0,38,39
 151 -46 151 -46 135.5 -49.5 c 128,-1,40
 120 -53 120 -53 106 -44 c 0,41,42
 93 -33 93 -33 89 -16 c 0,43,44
 88 -12 88 -12 88 -7 c 0,45,46
 88 5 88 5 95 15 c 0,47,48
 167 139 167 139 232 277 c 0,49,50
 237 290 237 290 250.5 293 c 128,-1,51
 264 296 264 296 275 287 c 0,52,53
 287 277 287 277 291 261.5 c 128,-1,54
 295 246 295 246 289 231 c 0,55,56
 229 97 229 97 159 -32 c 0,38,39
121 777 m 0,57,58
 109 784 109 784 107 797 c 0,59,60
 106 799 106 799 106 802 c 0,61,62
 106 812 106 812 113 820 c 0,63,64
 123 831 123 831 137.5 834 c 128,-1,65
 152 837 152 837 165 830 c 0,66,67
 232 794 232 794 283 754 c 0,68,69
 296 744 296 744 297.5 728 c 128,-1,70
 299 712 299 712 289 699 c 0,71,72
 279 688 279 688 264 687 c 128,-1,73
 249 686 249 686 238 695 c 0,74,75
 189 736 189 736 121 777 c 0,57,58
518 672 m 0,76,77
 524 657 524 657 518 641.5 c 128,-1,78
 512 626 512 626 497 619 c 0,79,80
 484 612 484 612 470 618 c 128,-1,81
 456 624 456 624 450 638 c 0,82,83
 424 699 424 699 381 764 c 0,84,85
 376 772 376 772 376 781 c 0,86,87
 376 785 376 785 377 789 c 0,88,89
 380 803 380 803 393 808 c 0,90,91
 407 815 407 815 422 811 c 128,-1,92
 437 807 437 807 446 795 c 0,93,94
 491 730 491 730 518 672 c 0,76,77
464 217 m 2,95,96
 464 210 464 210 471 210 c 2,97,-1
 832 210 l 2,98,99
 840 210 840 210 840 217 c 2,100,-1
 840 312 l 2,101,102
 840 319 840 319 832 319 c 2,103,-1
 471 319 l 2,104,105
 464 319 464 319 464 312 c 2,106,-1
 464 217 l 2,95,96
840 487 m 2,107,108
 840 495 840 495 832 495 c 2,109,-1
 471 495 l 2,110,111
 464 495 464 495 464 487 c 2,112,-1
 464 394 l 2,113,114
 464 386 464 386 471 386 c 2,115,-1
 832 386 l 2,116,117
 840 386 840 386 840 394 c 2,118,-1
 840 487 l 2,107,108
854 566 m 2,119,120
 879 566 879 566 896 549 c 128,-1,121
 913 532 913 532 913 507 c 2,122,-1
 913 17 l 2,123,124
 913 -15 913 -15 904.5 -33 c 128,-1,125
 896 -51 896 -51 874 -60 c 0,126,127
 843 -73 843 -73 753 -73 c 0,128,129
 737 -73 737 -73 723.5 -62.5 c 128,-1,130
 710 -52 710 -52 705 -36 c 0,131,132
 700 -23 700 -23 707.5 -12 c 128,-1,133
 715 -1 715 -1 729 -1 c 0,134,135
 771 -2 771 -2 818 -2 c 0,136,137
 830 -1 830 -1 835 3.5 c 128,-1,138
 840 8 840 8 840 18 c 2,139,-1
 840 137 l 2,140,141
 840 144 840 144 832 144 c 2,142,-1
 471 144 l 2,143,144
 464 144 464 144 464 137 c 2,145,-1
 464 -41 l 2,146,147
 464 -57 464 -57 453 -68 c 128,-1,148
 442 -79 442 -79 426.5 -79 c 128,-1,149
 411 -79 411 -79 400 -68 c 128,-1,150
 389 -57 389 -57 389 -41 c 2,151,-1
 389 507 l 2,152,153
 389 532 389 532 406.5 549 c 128,-1,154
 424 566 424 566 448 566 c 2,155,-1
 610 566 l 2,156,157
 617 566 617 566 617 574 c 2,158,-1
 617 820 l 2,159,160
 617 835 617 835 628 846 c 128,-1,161
 639 857 639 857 654.5 857 c 128,-1,162
 670 857 670 857 681 846 c 128,-1,163
 692 835 692 835 692 820 c 2,164,-1
 692 574 l 2,165,166
 692 566 692 566 700 566 c 2,167,-1
 854 566 l 2,119,120
EndSplineSet
EndChar

StartChar: cid24224
Encoding: 28204 28204 54
Width: 1024
Flags: W
LayerCount: 2
Fore
SplineSet
395 555 m 2,0,1
 387 555 387 555 387 548 c 2,2,-1
 387 437 l 2,3,4
 387 429 387 429 395 429 c 2,5,-1
 541 429 l 2,6,7
 549 429 549 429 549 437 c 2,8,-1
 549 548 l 2,9,10
 549 555 549 555 541 555 c 2,11,-1
 395 555 l 2,0,1
395 366 m 2,12,13
 387 366 387 366 387 358 c 2,14,-1
 387 245 l 2,15,16
 387 238 387 238 395 238 c 2,17,-1
 541 238 l 2,18,19
 549 238 549 238 549 245 c 2,20,-1
 549 358 l 2,21,22
 549 366 549 366 541 366 c 2,23,-1
 395 366 l 2,12,13
395 743 m 2,24,25
 387 743 387 743 387 736 c 2,26,-1
 387 626 l 2,27,28
 387 618 387 618 395 618 c 2,29,-1
 541 618 l 2,30,31
 549 618 549 618 549 626 c 2,32,-1
 549 736 l 2,33,34
 549 743 549 743 541 743 c 2,35,-1
 395 743 l 2,24,25
322 752 m 2,36,37
 322 776 322 776 339 793.5 c 128,-1,38
 356 811 356 811 381 811 c 2,39,-1
 558 811 l 2,40,41
 583 811 583 811 600 793.5 c 128,-1,42
 617 776 617 776 617 752 c 2,43,-1
 617 230 l 2,44,45
 617 206 617 206 600 188.5 c 128,-1,46
 583 171 583 171 558 171 c 2,47,-1
 381 171 l 2,48,49
 356 171 356 171 339 188.5 c 128,-1,50
 322 206 322 206 322 230 c 2,51,-1
 322 752 l 2,36,37
522 95 m 0,52,53
 514 105 514 105 516.5 118 c 128,-1,54
 519 131 519 131 530 137 c 0,55,56
 543 144 543 144 557 141.5 c 128,-1,57
 571 139 571 139 580 128 c 0,58,59
 625 74 625 74 657 26 c 0,60,61
 665 14 665 14 661.5 -0.5 c 128,-1,62
 658 -15 658 -15 646 -23 c 0,63,64
 633 -31 633 -31 619 -27.5 c 128,-1,65
 605 -24 605 -24 598 -11 c 0,66,67
 567 37 567 37 522 95 c 0,52,53
348 117 m 0,68,69
 355 131 355 131 369.5 137.5 c 128,-1,70
 384 144 384 144 399 140 c 0,71,72
 413 137 413 137 419 124 c 128,-1,73
 425 111 425 111 418 98 c 0,74,75
 374 13 374 13 312 -55 c 0,76,77
 302 -66 302 -66 286 -67 c 128,-1,78
 270 -68 270 -68 258 -59 c 0,79,80
 246 -51 246 -51 245 -37.5 c 128,-1,81
 244 -24 244 -24 254 -14 c 0,82,83
 310 44 310 44 348 117 c 0,68,69
872 822 m 2,84,85
 872 836 872 836 882.5 846 c 128,-1,86
 893 856 893 856 907 856 c 128,-1,87
 921 856 921 856 931 846 c 128,-1,88
 941 836 941 836 941 822 c 2,89,-1
 941 17 l 2,90,91
 941 -18 941 -18 932 -36 c 128,-1,92
 923 -54 923 -54 901 -63 c 0,93,94
 871 -77 871 -77 778 -78 c 2,95,96
 778 -78 778 -78 777 -78 c 0,97,98
 762 -78 762 -78 749 -68 c 0,99,100
 736 -57 736 -57 732 -41 c 0,101,102
 728 -29 728 -29 735.5 -18 c 128,-1,103
 743 -7 743 -7 756 -7 c 0,104,105
 777 -7 777 -7 795 -7 c 0,106,107
 829 -7 829 -7 848 -6 c 0,108,109
 861 -6 861 -6 866.5 -1 c 128,-1,110
 872 4 872 4 872 16 c 2,111,-1
 872 822 l 2,84,85
694 718 m 2,112,113
 694 732 694 732 704 742 c 128,-1,114
 714 752 714 752 728 752 c 128,-1,115
 742 752 742 752 752 742 c 128,-1,116
 762 732 762 732 762 718 c 2,117,-1
 762 204 l 2,118,119
 762 190 762 190 752 180 c 128,-1,120
 742 170 742 170 728 170 c 128,-1,121
 714 170 714 170 704 180 c 128,-1,122
 694 190 694 190 694 204 c 2,123,-1
 694 718 l 2,112,113
117 775 m 0,124,125
 105 782 105 782 102.5 795 c 128,-1,126
 100 808 100 808 108 819 c 0,127,128
 118 831 118 831 133 834 c 0,129,130
 138 835 138 835 142 835 c 0,131,132
 152 835 152 835 161 830 c 0,133,134
 220 800 220 800 263 767 c 0,135,136
 278 756 278 756 278 736 c 0,137,138
 278 723 278 723 269 712 c 0,139,140
 260 700 260 700 245 699 c 128,-1,141
 230 698 230 698 219 707 c 0,142,143
 175 742 175 742 117 775 c 0,124,125
74 503 m 0,144,145
 62 509 62 509 58 522 c 0,146,147
 58 526 58 526 58 529 c 0,148,149
 58 538 58 538 63 546 c 0,150,151
 73 558 73 558 88 562 c 0,152,153
 94 564 94 564 99 564 c 0,154,155
 109 564 109 564 117 560 c 0,156,157
 178 532 178 532 223 502 c 0,158,159
 236 493 236 493 238.5 477 c 128,-1,160
 241 461 241 461 231 448 c 0,161,162
 223 436 223 436 208 433.5 c 128,-1,163
 193 431 193 431 180 440 c 0,164,165
 134 473 134 473 74 503 c 0,144,145
149 -29 m 0,166,167
 142 -44 142 -44 127 -49 c 0,168,169
 121 -50 121 -50 116 -50 c 0,170,171
 107 -50 107 -50 98 -45 c 0,172,173
 83 -36 83 -36 79 -20 c 0,174,175
 77 -14 77 -14 77 -8 c 0,176,177
 77 2 77 2 81 11 c 0,178,179
 141 132 141 132 192 266 c 0,180,181
 197 279 197 279 210 283 c 0,182,183
 215 285 215 285 220 285 c 0,184,185
 228 285 228 285 235 280 c 0,186,187
 248 271 248 271 253 256 c 0,188,189
 256 249 256 249 256 242 c 0,190,191
 256 234 256 234 253 226 c 0,192,193
 204 94 204 94 149 -29 c 0,166,167
EndSplineSet
EndChar

StartChar: cid24385
Encoding: 28304 28304 55
Width: 1024
Flags: W
LayerCount: 2
Fore
SplineSet
278 761 m 0,0,1
 291 751 291 751 292 735 c 128,-1,2
 293 719 293 719 284 707 c 256,3,4
 275 695 275 695 260 693.5 c 128,-1,5
 245 692 245 692 233 702 c 0,6,7
 187 740 187 740 123 776 c 0,8,9
 111 783 111 783 108 796 c 128,-1,10
 105 809 105 809 114 820 c 0,11,12
 123 832 123 832 138 835 c 0,13,14
 143 836 143 836 147 836 c 0,15,16
 157 836 157 836 166 831 c 0,17,18
 234 796 234 796 278 761 c 0,0,1
228 495 m 0,19,20
 241 486 241 486 243.5 470 c 128,-1,21
 246 454 246 454 236 441 c 0,22,23
 227 429 227 429 212 427.5 c 128,-1,24
 197 426 197 426 185 435 c 0,25,26
 138 471 138 471 73 504 c 0,27,28
 61 510 61 510 58 523 c 0,29,30
 57 527 57 527 57 530 c 0,31,32
 57 539 57 539 63 547 c 0,33,34
 73 559 73 559 88 562.5 c 128,-1,35
 103 566 103 566 117 560 c 0,36,37
 183 528 183 528 228 495 c 0,19,20
205 273 m 0,38,39
 211 286 211 286 224.5 290 c 128,-1,40
 238 294 238 294 249 286 c 0,41,42
 263 277 263 277 267.5 261.5 c 128,-1,43
 272 246 272 246 266 231 c 0,44,45
 210 95 210 95 150 -27 c 0,46,47
 143 -42 143 -42 127.5 -46.5 c 128,-1,48
 112 -51 112 -51 98 -42 c 0,49,50
 83 -33 83 -33 79 -16 c 0,51,52
 78 -11 78 -11 78 -5 c 0,53,54
 78 5 78 5 83 15 c 0,55,56
 148 136 148 136 205 273 c 0,38,39
503 186 m 0,57,58
 510 200 510 200 523.5 206.5 c 128,-1,59
 537 213 537 213 551 210 c 256,60,61
 565 207 565 207 571.5 194.5 c 128,-1,62
 578 182 578 182 572 169 c 0,63,64
 530 76 530 76 476 8 c 0,65,66
 466 -4 466 -4 451 -5.5 c 128,-1,67
 436 -7 436 -7 423 1 c 0,68,69
 412 9 412 9 410 22.5 c 128,-1,70
 408 36 408 36 417 47 c 0,71,72
 467 107 467 107 503 186 c 0,57,58
556 424 m 2,73,74
 549 424 549 424 549 416 c 2,75,-1
 549 341 l 2,76,77
 549 334 549 334 556 334 c 2,78,-1
 853 334 l 2,79,80
 860 334 860 334 860 341 c 2,81,-1
 860 416 l 2,82,83
 860 424 860 424 853 424 c 2,84,-1
 556 424 l 2,73,74
556 568 m 2,85,86
 549 568 549 568 549 561 c 2,87,-1
 549 487 l 2,88,89
 549 479 549 479 556 479 c 2,90,-1
 853 479 l 2,91,92
 860 479 860 479 860 487 c 2,93,-1
 860 561 l 2,94,95
 860 568 860 568 853 568 c 2,96,-1
 556 568 l 2,85,86
931 334 m 2,97,98
 931 310 931 310 913.5 292.5 c 128,-1,99
 896 275 896 275 872 275 c 2,100,-1
 744 275 l 2,101,102
 736 275 736 275 736 268 c 2,103,-1
 736 1 l 2,104,105
 736 -28 736 -28 729 -43.5 c 128,-1,106
 722 -59 722 -59 701 -67 c 0,107,108
 675 -77 675 -77 602 -77 c 0,109,110
 599 -77 599 -77 596 -77 c 0,111,112
 582 -77 582 -77 570 -67.5 c 128,-1,113
 558 -58 558 -58 554 -44 c 0,114,115
 550 -33 550 -33 556.5 -23 c 128,-1,116
 563 -13 563 -13 575 -13 c 0,117,118
 576 -13 576 -13 646 -13 c 0,119,120
 656 -13 656 -13 660 -9.5 c 128,-1,121
 664 -6 664 -6 664 2 c 2,122,-1
 664 268 l 2,123,124
 664 275 664 275 656 275 c 2,125,-1
 540 275 l 2,126,127
 516 275 516 275 498.5 292.5 c 128,-1,128
 481 310 481 310 481 334 c 2,129,-1
 481 568 l 2,130,131
 481 592 481 592 498.5 609.5 c 128,-1,132
 516 627 516 627 540 627 c 2,133,-1
 637 627 l 2,134,135
 644 627 644 627 646 634 c 0,136,137
 657 683 657 683 664 730 c 0,138,139
 666 737 666 737 658 737 c 2,140,-1
 429 737 l 2,141,142
 422 737 422 737 422 730 c 2,143,-1
 422 528 l 2,144,145
 422 152 422 152 305 -42 c 0,146,147
 297 -55 297 -55 282 -57.5 c 128,-1,148
 267 -60 267 -60 254 -52 c 0,149,150
 242 -44 242 -44 238 -29 c 0,151,152
 237 -25 237 -25 237 -20 c 0,153,154
 237 -11 237 -11 242 -2 c 0,155,156
 276 55 276 55 298.5 124 c 128,-1,157
 321 193 321 193 331 267 c 128,-1,158
 341 341 341 341 344 399 c 128,-1,159
 347 457 347 457 347 528 c 2,160,-1
 347 748 l 2,161,162
 347 772 347 772 364.5 789.5 c 128,-1,163
 382 807 382 807 406 807 c 2,164,-1
 935 807 l 2,165,166
 949 807 949 807 959.5 797 c 128,-1,167
 970 787 970 787 970 772.5 c 128,-1,168
 970 758 970 758 959.5 747.5 c 128,-1,169
 949 737 949 737 935 737 c 2,170,-1
 745 737 l 2,171,172
 750 736 750 736 748 732 c 0,173,174
 727 658 727 658 720 634 c 0,175,176
 719 631 719 631 721 629 c 128,-1,177
 723 627 723 627 725 627 c 2,178,-1
 872 627 l 2,179,180
 896 627 896 627 913.5 609.5 c 128,-1,181
 931 592 931 592 931 568 c 2,182,-1
 931 334 l 2,97,98
825 171 m 0,183,184
 820 178 820 178 820 187 c 0,185,186
 820 191 820 191 821 195 c 0,187,188
 825 208 825 208 837 214 c 0,189,190
 846 217 846 217 855 217 c 0,191,192
 860 217 860 217 866 216 c 0,193,194
 881 212 881 212 890 199 c 0,195,196
 945 123 945 123 975 59 c 0,197,198
 978 51 978 51 978 44 c 256,199,200
 978 37 978 37 976 30 c 0,201,202
 970 16 970 16 955 9 c 0,203,204
 948 5 948 5 941 5 c 256,205,206
 934 5 934 5 928 8 c 0,207,208
 914 13 914 13 907 27 c 0,209,210
 875 97 875 97 825 171 c 0,183,184
EndSplineSet
EndChar

StartChar: uni6EAB
Encoding: 28331 28331 56
Width: 1024
Flags: W
LayerCount: 2
Fore
SplineSet
756 547 m 0,0,1
 763 540 763 540 763 529 c 128,-1,2
 763 518 763 518 755 510.5 c 128,-1,3
 747 503 747 503 736 503.5 c 128,-1,4
 725 504 725 504 717 512 c 0,5,6
 680 550 680 550 626 596 c 0,7,8
 621 601 621 601 617 595 c 0,9,10
 582 539 582 539 533 505 c 0,11,12
 524 499 524 499 513.5 501 c 128,-1,13
 503 503 503 503 495 512 c 0,14,15
 489 519 489 519 490 529 c 128,-1,16
 491 539 491 539 499 544 c 0,17,18
 580 602 580 602 607 704 c 0,19,20
 610 716 610 716 619.5 723 c 128,-1,21
 629 730 629 730 641 729 c 0,22,23
 652 728 652 728 658.5 718.5 c 128,-1,24
 665 709 665 709 662 698 c 0,25,26
 656 675 656 675 647 652 c 0,27,28
 644 645 644 645 650 640 c 0,29,30
 711 591 711 591 756 547 c 0,0,1
794 470 m 2,31,32
 802 470 802 470 802 478 c 2,33,-1
 802 742 l 2,34,35
 802 750 802 750 794 750 c 2,36,-1
 464 750 l 2,37,38
 457 750 457 750 457 742 c 2,39,-1
 457 478 l 2,40,41
 457 470 457 470 464 470 c 2,42,-1
 794 470 l 2,31,32
815 809 m 2,43,44
 840 809 840 809 857 791.5 c 128,-1,45
 874 774 874 774 874 750 c 2,46,-1
 874 470 l 2,47,48
 874 445 874 445 857 428 c 128,-1,49
 840 411 840 411 815 411 c 2,50,-1
 446 411 l 2,51,52
 422 411 422 411 404.5 428 c 128,-1,53
 387 445 387 445 387 470 c 2,54,-1
 387 750 l 2,55,56
 387 774 387 774 404.5 791.5 c 128,-1,57
 422 809 422 809 446 809 c 2,58,-1
 815 809 l 2,43,44
283 763 m 0,59,60
 296 753 296 753 297.5 737 c 128,-1,61
 299 721 299 721 289 708 c 0,62,63
 281 696 281 696 266 694.5 c 128,-1,64
 251 693 251 693 239 703 c 0,65,66
 190 742 190 742 125 777 c 0,67,68
 113 783 113 783 110 796 c 128,-1,69
 107 809 107 809 116 820 c 0,70,71
 125 832 125 832 140 836 c 0,72,73
 145 837 145 837 150 837 c 0,74,75
 160 837 160 837 169 833 c 0,76,77
 237 798 237 798 283 763 c 0,59,60
231 497 m 0,78,79
 244 488 244 488 246.5 472 c 128,-1,80
 249 456 249 456 239 443 c 0,81,82
 230 430 230 430 215 428.5 c 128,-1,83
 200 427 200 427 187 436 c 0,84,85
 140 471 140 471 74 504 c 0,86,87
 62 510 62 510 58 523 c 0,88,89
 58 527 58 527 58 530 c 0,90,91
 58 540 58 540 63 547 c 0,92,93
 73 560 73 560 88 564 c 0,94,95
 94 565 94 565 99 565 c 0,96,97
 108 565 108 565 117 561 c 0,98,99
 183 530 183 530 231 497 c 0,78,79
218 276 m 0,100,101
 223 288 223 288 237 291.5 c 128,-1,102
 251 295 251 295 262 287 c 0,103,104
 274 277 274 277 278.5 261 c 128,-1,105
 283 245 283 245 276 230 c 0,106,107
 213 87 213 87 152 -29 c 0,108,109
 145 -43 145 -43 129 -46.5 c 128,-1,110
 113 -50 113 -50 100 -41 c 0,111,112
 86 -31 86 -31 82 -14 c 0,113,114
 81 -9 81 -9 81 -4 c 0,115,116
 81 7 81 7 87 18 c 0,117,118
 155 137 155 137 218 276 c 0,100,101
427 268 m 2,119,120
 420 268 420 268 420 261 c 2,121,-1
 420 27 l 2,122,123
 420 19 420 19 427 19 c 2,124,-1
 512 19 l 2,125,126
 519 19 519 19 519 27 c 2,127,-1
 519 261 l 2,128,129
 519 268 519 268 512 268 c 2,130,-1
 427 268 l 2,119,120
679 261 m 2,131,132
 679 268 679 268 671 268 c 2,133,-1
 586 268 l 2,134,135
 579 268 579 268 579 261 c 2,136,-1
 579 27 l 2,137,138
 579 19 579 19 586 19 c 2,139,-1
 671 19 l 2,140,141
 679 19 679 19 679 27 c 2,142,-1
 679 261 l 2,131,132
839 261 m 2,143,144
 839 268 839 268 831 268 c 2,145,-1
 746 268 l 2,146,147
 738 268 738 268 738 261 c 2,148,-1
 738 27 l 2,149,150
 738 19 738 19 746 19 c 2,151,-1
 831 19 l 2,152,153
 839 19 839 19 839 27 c 2,154,-1
 839 261 l 2,143,144
911 27 m 2,155,156
 911 19 911 19 919 19 c 2,157,-1
 948 19 l 2,158,159
 962 19 962 19 972 9.5 c 128,-1,160
 982 0 982 0 982 -14 c 128,-1,161
 982 -28 982 -28 972 -38 c 128,-1,162
 962 -48 962 -48 948 -48 c 2,163,-1
 293 -48 l 2,164,165
 279 -48 279 -48 269 -38 c 128,-1,166
 259 -28 259 -28 259 -14 c 128,-1,167
 259 0 259 0 269 9.5 c 128,-1,168
 279 19 279 19 293 19 c 2,169,-1
 343 19 l 2,170,171
 350 19 350 19 350 27 c 2,172,-1
 350 275 l 2,173,174
 350 299 350 299 367.5 316.5 c 128,-1,175
 385 334 385 334 409 334 c 2,176,-1
 852 334 l 2,177,178
 877 334 877 334 894 316.5 c 128,-1,179
 911 299 911 299 911 275 c 2,180,-1
 911 27 l 2,155,156
EndSplineSet
EndChar

StartChar: cid24754
Encoding: 28507 28507 57
Width: 1024
Flags: W
LayerCount: 2
Fore
SplineSet
263 767 m 0,0,1
 276 757 276 757 277.5 741 c 128,-1,2
 279 725 279 725 269 712 c 0,3,4
 260 700 260 700 245 699 c 128,-1,5
 230 698 230 698 219 707 c 0,6,7
 175 742 175 742 117 775 c 0,8,9
 105 782 105 782 102.5 795 c 128,-1,10
 100 808 100 808 108 819 c 0,11,12
 118 831 118 831 133 834 c 128,-1,13
 148 837 148 837 161 830 c 0,14,15
 220 800 220 800 263 767 c 0,0,1
223 502 m 0,16,17
 236 493 236 493 238.5 477 c 128,-1,18
 241 461 241 461 231 448 c 0,19,20
 223 436 223 436 208 433.5 c 128,-1,21
 193 431 193 431 180 440 c 0,22,23
 134 473 134 473 74 503 c 0,24,25
 62 509 62 509 58 522 c 0,26,27
 58 526 58 526 58 529 c 0,28,29
 58 538 58 538 63 546 c 0,30,31
 73 558 73 558 88 562 c 128,-1,32
 103 566 103 566 117 560 c 0,33,34
 178 532 178 532 223 502 c 0,16,17
149 -29 m 0,35,36
 142 -44 142 -44 127 -48.5 c 128,-1,37
 112 -53 112 -53 98 -45 c 0,38,39
 83 -36 83 -36 79 -20 c 0,40,41
 77 -14 77 -14 77 -8 c 0,42,43
 77 2 77 2 81 11 c 0,44,45
 141 132 141 132 192 266 c 0,46,47
 197 279 197 279 210 283.5 c 128,-1,48
 223 288 223 288 235 280 c 0,49,50
 248 271 248 271 253 256 c 128,-1,51
 258 241 258 241 253 226 c 0,52,53
 204 94 204 94 149 -29 c 0,35,36
483 402 m 2,54,55
 486 403 486 403 486 407 c 2,56,-1
 486 504 l 2,57,58
 486 506 486 506 485 506 c 128,-1,59
 484 506 484 506 484 505 c 0,60,61
 442 393 442 393 334 319 c 0,62,63
 323 312 323 312 310 314.5 c 128,-1,64
 297 317 297 317 288 327 c 0,65,66
 282 335 282 335 282 344 c 0,67,68
 282 358 282 358 293 365 c 0,69,70
 405 439 405 439 436 561 c 0,71,72
 436 564 436 564 434.5 566 c 128,-1,73
 433 568 433 568 430 568 c 2,74,-1
 359 568 l 2,75,76
 354 568 354 568 353 563.5 c 128,-1,77
 352 559 352 559 351 553 c 0,78,79
 348 542 348 542 338.5 535.5 c 128,-1,80
 329 529 329 529 317 530 c 0,81,82
 306 532 306 532 300 541 c 128,-1,83
 294 550 294 550 297 561 c 0,84,85
 309 610 309 610 319 665 c 0,86,87
 321 676 321 676 330.5 683.5 c 128,-1,88
 340 691 340 691 351 690 c 256,89,90
 362 689 362 689 369 680 c 128,-1,91
 376 671 376 671 374 660 c 0,92,93
 372 647 372 647 369 633 c 0,94,95
 368 626 368 626 375 626 c 2,96,-1
 439 626 l 2,97,98
 446 626 446 626 447 633 c 0,99,100
 450 663 450 663 450 689 c 2,101,-1
 450 709 l 2,102,103
 450 717 450 717 442 717 c 2,104,-1
 344 717 l 2,105,106
 332 717 332 717 323.5 725.5 c 128,-1,107
 315 734 315 734 315 745.5 c 128,-1,108
 315 757 315 757 323.5 765.5 c 128,-1,109
 332 774 332 774 344 774 c 2,110,-1
 442 774 l 2,111,112
 450 774 450 774 450 782 c 2,113,-1
 450 822 l 2,114,115
 450 835 450 835 459 844.5 c 128,-1,116
 468 854 468 854 481 854 c 128,-1,117
 494 854 494 854 503.5 844.5 c 128,-1,118
 513 835 513 835 513 822 c 2,119,-1
 513 782 l 2,120,121
 513 774 513 774 521 774 c 2,122,-1
 590 774 l 2,123,124
 602 774 602 774 610 765.5 c 128,-1,125
 618 757 618 757 618 745.5 c 128,-1,126
 618 734 618 734 610 725.5 c 128,-1,127
 602 717 602 717 590 717 c 2,128,-1
 521 717 l 2,129,130
 513 717 513 717 513 709 c 2,131,-1
 513 688 l 2,132,133
 513 662 513 662 511 633 c 0,134,135
 510 626 510 626 517 626 c 2,136,-1
 589 626 l 2,137,138
 601 626 601 626 609 617.5 c 128,-1,139
 617 609 617 609 617 597 c 128,-1,140
 617 585 617 585 609 576.5 c 128,-1,141
 601 568 601 568 589 568 c 2,142,-1
 509 568 l 2,143,144
 502 568 502 568 500 561 c 0,145,146
 498 550 498 550 496 543 c 0,147,148
 495 538 495 538 500 538 c 0,149,150
 518 538 518 538 530.5 525.5 c 128,-1,151
 543 513 543 513 543 495 c 2,152,-1
 543 428 l 2,153,154
 543 426 543 426 545 424 c 128,-1,155
 547 422 547 422 550 423 c 0,156,157
 572 430 572 430 604 440 c 0,158,159
 614 443 614 443 622.5 437.5 c 128,-1,160
 631 432 631 432 633 422 c 256,161,162
 635 412 635 412 629 402.5 c 128,-1,163
 623 393 623 393 613 389 c 0,164,165
 578 377 578 377 502 350 c 0,166,167
 491 346 491 346 480 350.5 c 128,-1,168
 469 355 469 355 464 367 c 0,169,170
 460 377 460 377 465 387.5 c 128,-1,171
 470 398 470 398 481 402 c 1,172,-1
 483 402 l 2,54,55
844 243 m 2,173,174
 844 251 844 251 836 251 c 2,175,-1
 449 251 l 2,176,177
 441 251 441 251 441 243 c 2,178,-1
 441 173 l 2,179,180
 441 166 441 166 449 166 c 2,181,-1
 836 166 l 2,182,183
 844 166 844 166 844 173 c 2,184,-1
 844 243 l 2,173,174
441 28 m 2,185,186
 441 20 441 20 449 20 c 2,187,-1
 836 20 l 2,188,189
 844 20 844 20 844 28 c 2,190,-1
 844 103 l 2,191,192
 844 111 844 111 836 111 c 2,193,-1
 449 111 l 2,194,195
 441 111 441 111 441 103 c 2,196,-1
 441 28 l 2,185,186
406 -78 m 2,197,198
 391 -78 391 -78 381 -67.5 c 128,-1,199
 371 -57 371 -57 371 -42 c 2,200,-1
 371 252 l 2,201,202
 371 277 371 277 388 294 c 128,-1,203
 405 311 405 311 430 311 c 2,204,-1
 859 311 l 2,205,206
 883 311 883 311 900.5 294 c 128,-1,207
 918 277 918 277 918 252 c 2,208,-1
 918 -37 l 2,209,210
 918 -52 918 -52 907 -63 c 128,-1,211
 896 -74 896 -74 881 -74 c 2,212,-1
 873 -74 l 2,213,214
 861 -74 861 -74 852.5 -65.5 c 128,-1,215
 844 -57 844 -57 844 -45 c 0,216,217
 844 -41 844 -41 840 -41 c 2,218,-1
 446 -41 l 2,219,220
 441 -41 441 -41 441 -45 c 0,221,222
 441 -59 441 -59 431.5 -68.5 c 128,-1,223
 422 -78 422 -78 409 -78 c 2,224,-1
 406 -78 l 2,197,198
865 403 m 2,225,-1
 916 403 l 2,226,227
 928 403 928 403 932 413.5 c 128,-1,228
 936 424 936 424 937 461 c 0,229,230
 938 470 938 470 946 475 c 128,-1,231
 954 480 954 480 963 476 c 0,232,233
 975 471 975 471 981 461 c 0,234,235
 988 452 988 452 988 442 c 0,236,237
 988 393 988 393 969 368 c 0,238,239
 955 349 955 349 925 349 c 2,240,-1
 858 349 l 2,241,242
 817 349 817 349 803.5 364 c 128,-1,243
 790 379 790 379 790 422 c 2,244,-1
 790 442 l 2,245,246
 790 444 790 444 788 444 c 128,-1,247
 786 444 786 444 786 443 c 0,248,249
 748 380 748 380 684 334 c 0,250,251
 676 328 676 328 667 328 c 0,252,253
 664 328 664 328 661 329 c 0,254,255
 648 331 648 331 639 341 c 0,256,257
 632 348 632 348 632 358 c 0,258,259
 632 372 632 372 643 379 c 0,260,261
 739 445 739 445 767 561 c 0,262,263
 768 564 768 564 766 566 c 128,-1,264
 764 568 764 568 762 568 c 2,265,-1
 696 568 l 2,266,267
 691 568 691 568 690 564 c 0,268,269
 690 560 690 560 688 553 c 0,270,271
 686 542 686 542 676.5 535.5 c 128,-1,272
 667 529 667 529 656 530 c 0,273,274
 645 532 645 532 638.5 541 c 128,-1,275
 632 550 632 550 635 561 c 0,276,277
 644 606 644 606 652 664 c 0,278,279
 654 676 654 676 663 683 c 128,-1,280
 672 690 672 690 684 689 c 0,281,282
 694 688 694 688 701 679.5 c 128,-1,283
 708 671 708 671 707 660 c 0,284,285
 706 656 706 656 704.5 646.5 c 128,-1,286
 703 637 703 637 702 633 c 0,287,288
 701 626 701 626 708 626 c 2,289,-1
 770 626 l 2,290,291
 777 626 777 626 778 633 c 0,292,293
 779 651 779 651 779 683 c 2,294,-1
 779 709 l 2,295,296
 779 717 779 717 772 717 c 2,297,-1
 680 717 l 2,298,299
 668 717 668 717 659.5 725.5 c 128,-1,300
 651 734 651 734 651 745.5 c 128,-1,301
 651 757 651 757 659.5 765.5 c 128,-1,302
 668 774 668 774 680 774 c 2,303,-1
 772 774 l 2,304,305
 779 774 779 774 779 782 c 2,306,-1
 779 823 l 2,307,308
 779 836 779 836 788.5 845 c 128,-1,309
 798 854 798 854 810.5 854 c 128,-1,310
 823 854 823 854 832.5 845 c 128,-1,311
 842 836 842 836 842 823 c 2,312,-1
 842 782 l 2,313,314
 842 774 842 774 849 774 c 2,315,-1
 935 774 l 2,316,317
 947 774 947 774 955.5 765.5 c 128,-1,318
 964 757 964 757 964 745.5 c 128,-1,319
 964 734 964 734 955.5 725.5 c 128,-1,320
 947 717 947 717 935 717 c 2,321,-1
 849 717 l 2,322,323
 842 717 842 717 842 709 c 2,324,-1
 842 682 l 2,325,326
 842 665 842 665 840 633 c 0,327,328
 840 626 840 626 847 626 c 2,329,-1
 947 626 l 2,330,331
 959 626 959 626 967.5 617.5 c 128,-1,332
 976 609 976 609 976 597 c 128,-1,333
 976 585 976 585 967.5 576.5 c 128,-1,334
 959 568 959 568 947 568 c 2,335,-1
 840 568 l 2,336,337
 833 568 833 568 831 561 c 0,338,339
 830 559 830 559 828.5 551.5 c 128,-1,340
 827 544 827 544 826 540 c 0,341,342
 825 538 825 538 828 538 c 0,343,344
 835 538 835 538 840.5 532.5 c 128,-1,345
 846 527 846 527 846 519 c 2,346,-1
 846 423 l 2,347,348
 846 410 846 410 849 406.5 c 128,-1,349
 852 403 852 403 865 403 c 2,225,-1
EndSplineSet
EndChar

StartChar: cid24907
Encoding: 28595 28595 58
Width: 1024
Flags: W
LayerCount: 2
Fore
SplineSet
415 694 m 2,0,1
 408 694 408 694 408 687 c 2,2,-1
 408 288 l 2,3,4
 408 274 408 274 398 264 c 128,-1,5
 388 254 388 254 374 254 c 128,-1,6
 360 254 360 254 350 264 c 128,-1,7
 340 274 340 274 340 288 c 2,8,-1
 340 698 l 2,9,10
 340 722 340 722 357.5 739.5 c 128,-1,11
 375 757 375 757 399 757 c 2,12,-1
 551 757 l 2,13,14
 558 757 558 757 561 764 c 0,15,16
 572 789 572 789 581 817 c 0,17,18
 587 834 587 834 602 843 c 0,19,20
 613 851 613 851 626 851 c 0,21,22
 630 851 630 851 634 850 c 0,23,24
 650 847 650 847 657.5 833 c 128,-1,25
 665 819 665 819 658 805 c 0,26,27
 649 785 649 785 638 763 c 0,28,29
 637 761 637 761 638.5 759 c 128,-1,30
 640 757 640 757 642 757 c 2,31,-1
 867 757 l 2,32,33
 891 757 891 757 908.5 739.5 c 128,-1,34
 926 722 926 722 926 698 c 2,35,-1
 926 294 l 2,36,37
 926 280 926 280 915.5 269.5 c 128,-1,38
 905 259 905 259 890.5 259 c 128,-1,39
 876 259 876 259 865.5 269.5 c 128,-1,40
 855 280 855 280 855 294 c 2,41,-1
 855 687 l 2,42,43
 855 694 855 694 848 694 c 2,44,-1
 415 694 l 2,0,1
820 479 m 128,-1,46
 820 469 820 469 813 462 c 128,-1,47
 806 455 806 455 796 455 c 2,48,-1
 656 455 l 2,49,50
 655 455 655 455 655 454.5 c 128,-1,51
 655 454 655 454 656 453 c 0,52,53
 754 391 754 391 785 370 c 0,54,55
 794 364 794 364 796 352.5 c 128,-1,56
 798 341 798 341 792 332 c 0,57,58
 785 323 785 323 774.5 322 c 128,-1,59
 764 321 764 321 755 327 c 0,60,61
 743 337 743 337 661 398 c 0,62,63
 660 399 660 399 657.5 398 c 128,-1,64
 655 397 655 397 655 395 c 2,65,-1
 655 322 l 2,66,67
 655 310 655 310 647 302 c 128,-1,68
 639 294 639 294 627.5 294 c 128,-1,69
 616 294 616 294 608 302 c 128,-1,70
 600 310 600 310 600 322 c 2,71,-1
 600 408 l 2,72,73
 600 410 600 410 598.5 410.5 c 128,-1,74
 597 411 597 411 596 410 c 0,75,76
 549 347 549 347 489 304 c 0,77,78
 479 297 479 297 468 299.5 c 128,-1,79
 457 302 457 302 448 311 c 0,80,81
 442 318 442 318 443.5 328.5 c 128,-1,82
 445 339 445 339 454 344 c 0,83,84
 521 385 521 385 570 449 c 0,85,86
 571 450 571 450 570 452.5 c 128,-1,87
 569 455 569 455 567 455 c 2,88,-1
 470 455 l 2,89,90
 460 455 460 455 452.5 462 c 128,-1,91
 445 469 445 469 445 479 c 128,-1,92
 445 489 445 489 452.5 496 c 128,-1,93
 460 503 460 503 470 503 c 2,94,-1
 513 503 l 2,95,96
 515 503 515 503 517 505 c 128,-1,97
 519 507 519 507 517 510 c 0,98,99
 508 534 508 534 492 560 c 0,100,101
 488 567 488 567 491 575 c 128,-1,102
 494 583 494 583 501 586 c 0,103,104
 507 589 507 589 513 589 c 0,105,106
 525 589 525 589 533 576 c 0,107,108
 544 559 544 559 552 544 c 0,109,110
 558 533 558 533 553.5 521.5 c 128,-1,111
 549 510 549 510 538 504 c 0,112,113
 538 503 538 503 538 503 c 1,114,-1
 593 503 l 2,115,116
 600 503 600 503 600 510 c 2,117,-1
 600 600 l 2,118,119
 600 607 600 607 593 606 c 0,120,121
 538 600 538 600 491 597 c 0,122,123
 490 597 490 597 489 597 c 0,124,125
 470 597 470 597 463 617 c 0,126,127
 460 624 460 624 464 631 c 128,-1,128
 468 638 468 638 475 639 c 0,129,130
 628 651 628 651 726 673 c 0,131,132
 733 675 733 675 738 675 c 0,133,134
 757 675 757 675 771 659 c 0,135,136
 777 652 777 652 774 643 c 128,-1,137
 771 634 771 634 762 632 c 0,138,139
 723 623 723 623 663 614 c 0,140,141
 655 613 655 613 655 606 c 2,142,-1
 655 510 l 2,143,144
 655 503 655 503 663 503 c 2,145,-1
 718 503 l 2,146,147
 719 503 719 503 719 503.5 c 128,-1,148
 719 504 719 504 719 504 c 1,149,150
 708 509 708 509 704.5 520 c 128,-1,151
 701 531 701 531 706 541 c 0,152,153
 717 562 717 562 727 580 c 0,154,155
 731 590 731 590 741 594 c 128,-1,156
 751 598 751 598 761 594 c 0,157,158
 770 590 770 590 773 581 c 128,-1,159
 776 572 776 572 771 563 c 0,160,161
 749 528 749 528 737 509 c 0,162,163
 736 507 736 507 737 505 c 128,-1,164
 738 503 738 503 741 503 c 2,165,-1
 796 503 l 2,166,167
 806 503 806 503 813 496 c 128,-1,45
 820 489 820 489 820 479 c 128,-1,46
271 766 m 0,168,169
 283 756 283 756 284.5 740 c 128,-1,170
 286 724 286 724 276 712 c 0,171,172
 268 700 268 700 253 698.5 c 128,-1,173
 238 697 238 697 226 707 c 0,174,175
 182 743 182 743 122 776 c 0,176,177
 110 783 110 783 107.5 796 c 128,-1,178
 105 809 105 809 113 820 c 0,179,180
 123 832 123 832 138 835 c 0,181,182
 143 836 143 836 147 836 c 0,183,184
 157 836 157 836 167 831 c 0,185,186
 228 799 228 799 271 766 c 0,168,169
226 500 m 0,187,188
 239 491 239 491 241.5 475 c 128,-1,189
 244 459 244 459 234 446 c 0,190,191
 226 434 226 434 211 431.5 c 128,-1,192
 196 429 196 429 183 438 c 0,193,194
 137 471 137 471 74 503 c 0,195,196
 62 509 62 509 58 522 c 0,197,198
 58 526 58 526 58 529 c 0,199,200
 58 538 58 538 63 546 c 0,201,202
 73 558 73 558 88 562 c 0,203,204
 94 563 94 563 99 563 c 0,205,206
 108 563 108 563 117 560 c 0,207,208
 179 531 179 531 226 500 c 0,187,188
198 268 m 0,209,210
 204 281 204 281 217 286 c 0,211,212
 222 287 222 287 226 287 c 0,213,214
 235 287 235 287 243 282 c 0,215,216
 256 272 256 272 261 256 c 128,-1,217
 266 240 266 240 260 225 c 0,218,219
 209 92 209 92 151 -29 c 0,220,221
 144 -44 144 -44 128.5 -48 c 128,-1,222
 113 -52 113 -52 99 -44 c 0,223,224
 84 -34 84 -34 80 -18 c 0,225,226
 79 -12 79 -12 79 -6 c 0,227,228
 79 5 79 5 84 14 c 0,229,230
 146 134 146 134 198 268 c 0,209,210
969 179.5 m 128,-1,232
 969 166 969 166 959 156 c 128,-1,233
 949 146 949 146 935 146 c 2,234,-1
 695 146 l 2,235,236
 692 146 692 146 691 144 c 128,-1,237
 690 142 690 142 691 140 c 0,238,239
 766 27 766 27 948 -7 c 0,240,241
 960 -9 960 -9 964.5 -21 c 128,-1,242
 969 -33 969 -33 961 -44 c 0,243,244
 951 -59 951 -59 935 -66 c 0,245,246
 924 -71 924 -71 913 -71 c 0,247,248
 908 -71 908 -71 902 -70 c 0,249,250
 711 -24 711 -24 629 112 c 0,251,252
 628 114 628 114 625.5 114 c 128,-1,253
 623 114 623 114 622 112 c 0,254,255
 589 45 589 45 522.5 1 c 128,-1,256
 456 -43 456 -43 341 -71 c 0,257,258
 336 -72 336 -72 331 -72 c 0,259,260
 321 -72 321 -72 311 -67 c 0,261,262
 297 -60 297 -60 288 -46 c 0,263,264
 284 -40 284 -40 284 -33 c 0,265,266
 284 -28 284 -28 286 -24 c 0,267,268
 290 -12 290 -12 303 -10 c 0,269,270
 407 12 407 12 466.5 48 c 128,-1,271
 526 84 526 84 556 140 c 0,272,273
 557 142 557 142 555.5 144 c 128,-1,274
 554 146 554 146 552 146 c 2,275,-1
 319 146 l 2,276,277
 305 146 305 146 295.5 156 c 128,-1,278
 286 166 286 166 286 179.5 c 128,-1,279
 286 193 286 193 295.5 203 c 128,-1,280
 305 213 305 213 319 213 c 2,281,-1
 576 213 l 2,282,283
 583 213 583 213 584 220 c 0,284,285
 586 227 586 227 587 235 c 0,286,287
 590 251 590 251 602 261 c 128,-1,288
 614 271 614 271 630 271 c 0,289,290
 644 271 644 271 653.5 260 c 128,-1,291
 663 249 663 249 661 235 c 0,292,293
 659 227 659 227 658 219 c 0,294,295
 656 213 656 213 663 213 c 2,296,-1
 935 213 l 2,297,298
 949 213 949 213 959 203 c 128,-1,231
 969 193 969 193 969 179.5 c 128,-1,232
EndSplineSet
EndChar

